G04*
G04 #@! TF.GenerationSoftware,Altium Limited,Altium Designer,22.4.2 (48)*
G04*
G04 Layer_Color=16711935*
%FSLAX25Y25*%
%MOIN*%
G70*
G04*
G04 #@! TF.SameCoordinates,897C8E4D-7720-40B5-A877-0FB78C4BABC8*
G04*
G04*
G04 #@! TF.FilePolarity,Positive*
G04*
G01*
G75*
%ADD10C,0.00591*%
%ADD11C,0.00500*%
%ADD13C,0.00787*%
%ADD39C,0.00394*%
D10*
X459669Y333500D02*
G03*
X459669Y333500I-20669J0D01*
G01*
D11*
X363599Y324099D02*
Y348902D01*
X388402D01*
Y324099D02*
Y348902D01*
X363599Y324099D02*
X388402D01*
X531099Y366098D02*
Y390902D01*
X555902D01*
Y366098D02*
Y390902D01*
X531099Y366098D02*
X555902D01*
D13*
X487079Y355598D02*
X496921D01*
Y380402D01*
X487079D02*
X496921D01*
X487079Y355598D02*
Y380402D01*
X520705Y448878D02*
X530547D01*
Y473681D01*
X520705D02*
X530547D01*
X520705Y448878D02*
Y473681D01*
X530579Y307992D02*
X540421D01*
Y322165D01*
X530579D02*
X540421D01*
X530579Y307992D02*
Y322165D01*
X402335Y397398D02*
Y498185D01*
Y397398D02*
X473595D01*
Y498185D01*
X402335D02*
X473595D01*
D39*
X331500Y400248D02*
X341500D01*
Y358752D02*
Y400248D01*
X331500Y358752D02*
X341500D01*
X331500D02*
Y400248D01*
X319626Y474528D02*
X329626D01*
Y433032D02*
Y474528D01*
X319626Y433032D02*
X329626D01*
X319626D02*
Y474528D01*
M02*
