G04*
G04 #@! TF.GenerationSoftware,Altium Limited,Altium Designer,22.4.2 (48)*
G04*
G04 Layer_Physical_Order=1*
G04 Layer_Color=255*
%FSLAX25Y25*%
%MOIN*%
G70*
G04*
G04 #@! TF.SameCoordinates,897C8E4D-7720-40B5-A877-0FB78C4BABC8*
G04*
G04*
G04 #@! TF.FilePolarity,Positive*
G04*
G01*
G75*
%ADD15R,0.05512X0.07874*%
%ADD16R,0.05236X0.05236*%
%ADD17R,0.03543X0.07874*%
%ADD18R,0.07874X0.03543*%
%ADD20C,0.05118*%
%ADD21R,0.05118X0.05118*%
%ADD23C,0.04921*%
%ADD24R,0.04921X0.04921*%
%ADD25C,0.04724*%
%ADD26R,0.04724X0.04724*%
%ADD32C,0.02756*%
%ADD33C,0.06000*%
%ADD34R,0.05906X0.05906*%
%ADD35C,0.05906*%
%ADD36R,0.06102X0.06102*%
%ADD37C,0.06102*%
%ADD38C,0.05000*%
D15*
X383874Y350280D02*
D03*
Y322721D02*
D03*
X368126Y350280D02*
D03*
Y322721D02*
D03*
X551374Y392280D02*
D03*
Y364720D02*
D03*
X535626Y392280D02*
D03*
Y364720D02*
D03*
D16*
X441252Y431748D02*
D03*
X434028D02*
D03*
X426803D02*
D03*
X441252Y438972D02*
D03*
X434028D02*
D03*
X426803D02*
D03*
X441252Y446197D02*
D03*
X434028D02*
D03*
X426803D02*
D03*
D17*
X460465Y399563D02*
D03*
X455465D02*
D03*
X450465D02*
D03*
X445465D02*
D03*
X440465D02*
D03*
X435465D02*
D03*
X430465D02*
D03*
X425465D02*
D03*
X420465D02*
D03*
X415465D02*
D03*
D18*
X471429Y468500D02*
D03*
Y463500D02*
D03*
Y458500D02*
D03*
Y453500D02*
D03*
Y448500D02*
D03*
Y443500D02*
D03*
Y438500D02*
D03*
Y433500D02*
D03*
Y428500D02*
D03*
Y423500D02*
D03*
Y418500D02*
D03*
Y413500D02*
D03*
Y408500D02*
D03*
Y403500D02*
D03*
X404500D02*
D03*
Y408500D02*
D03*
Y413500D02*
D03*
Y418500D02*
D03*
Y423500D02*
D03*
Y428500D02*
D03*
Y433500D02*
D03*
Y438500D02*
D03*
Y443500D02*
D03*
Y448500D02*
D03*
Y453500D02*
D03*
Y458500D02*
D03*
Y463500D02*
D03*
Y468500D02*
D03*
D20*
X439000Y343343D02*
D03*
D21*
Y323657D02*
D03*
D23*
X492000Y387685D02*
D03*
X525626Y480965D02*
D03*
D24*
X492000Y348315D02*
D03*
X525626Y441595D02*
D03*
D25*
X535500Y320000D02*
D03*
D26*
Y310158D02*
D03*
D32*
X364114Y336500D02*
X392600D01*
X362500Y338114D02*
X364114Y336500D01*
X392600D02*
X411300Y355200D01*
X362500Y338114D02*
Y368500D01*
X531500Y491500D02*
X552374Y470626D01*
X481100Y448600D02*
X524000Y491500D01*
X531500D01*
X481100Y407100D02*
Y448600D01*
X552374Y468343D02*
Y470626D01*
X525626Y441595D02*
X552374Y468343D01*
X471429Y453500D02*
X477800D01*
X475000Y502800D02*
X477800Y500000D01*
Y453500D02*
Y500000D01*
X400783Y468106D02*
X404106D01*
X399578Y467650D02*
X400327D01*
X397928Y466000D02*
X399578Y467650D01*
X351846Y466000D02*
X397928D01*
X404500Y468500D02*
X471429D01*
X404106Y468106D02*
X404500Y468500D01*
X400327Y467650D02*
X400783Y468106D01*
X324626Y438780D02*
X351846Y466000D01*
X404500Y463500D02*
X413400D01*
X378646Y502800D02*
X475000D01*
X324626Y448780D02*
X378646Y502800D01*
X383874Y355000D02*
X396800D01*
X383874D02*
Y442374D01*
Y350280D02*
Y355000D01*
X415465Y399563D02*
Y420409D01*
X426803Y431748D01*
X415465Y347193D02*
X439000Y323657D01*
X415465Y347193D02*
Y399563D01*
X368126Y322721D02*
X372579D01*
X379300Y316000D01*
X431343D01*
X439000Y323657D01*
X535626Y342426D02*
Y364720D01*
X535500Y342300D02*
X535626Y342426D01*
X535500Y320000D02*
Y342300D01*
X487100Y353215D02*
X492000Y348315D01*
X487100Y353215D02*
Y442439D01*
X525626Y480965D01*
X461700Y448500D02*
X471429D01*
X457700Y444500D02*
X461700Y448500D01*
X336500Y394500D02*
X362500Y368500D01*
X411300Y355200D02*
Y443000D01*
X420200Y451900D01*
X445000D01*
X451400Y445500D01*
Y441400D02*
Y445500D01*
Y441400D02*
X455000Y437800D01*
X461300D01*
X467000Y443500D01*
X471429D01*
X462600Y458500D02*
X471429D01*
X405000Y363200D02*
Y374600D01*
X396800Y355000D02*
X405000Y363200D01*
X477500Y403500D02*
X481100Y407100D01*
X471429Y403500D02*
X477500D01*
X400000Y443500D02*
X404500D01*
X392900Y436400D02*
X400000Y443500D01*
X392900Y364500D02*
Y436400D01*
X398100Y374500D02*
Y428500D01*
X404500D01*
X340000Y322721D02*
X368126D01*
X324626Y338095D02*
X340000Y322721D01*
X324626Y338095D02*
Y438780D01*
X551374Y364720D02*
Y370626D01*
X543500Y378500D02*
X551374Y370626D01*
X543500Y378500D02*
Y423721D01*
X525626Y441595D02*
X543500Y423721D01*
X478500Y292500D02*
Y334815D01*
X492000Y348315D01*
X400000Y458500D02*
X404500D01*
X383874Y442374D02*
X400000Y458500D01*
X434028Y446197D02*
X441252D01*
X426803D02*
X434028D01*
X441252Y438972D02*
Y446197D01*
Y431748D02*
Y438972D01*
X434028D02*
X441252D01*
X434028Y431748D02*
Y438972D01*
X426803D02*
X434028D01*
X426803Y431748D02*
Y438972D01*
D33*
X555500Y517500D02*
D03*
X316000Y285000D02*
D03*
D34*
X488500Y292500D02*
D03*
D35*
X478500D02*
D03*
D36*
X336500Y364500D02*
D03*
X324626Y438780D02*
D03*
D37*
X336500Y374500D02*
D03*
Y384500D02*
D03*
Y394500D02*
D03*
X324626Y448780D02*
D03*
Y458780D02*
D03*
Y468780D02*
D03*
D38*
X413400Y463500D02*
D03*
X457700Y444500D02*
D03*
X462600Y458500D02*
D03*
X405000Y374600D02*
D03*
X392900Y364500D02*
D03*
X398100Y374500D02*
D03*
M02*
