G04*
G04 #@! TF.GenerationSoftware,Altium Limited,Altium Designer,22.4.2 (48)*
G04*
G04 Layer_Color=65535*
%FSLAX25Y25*%
%MOIN*%
G70*
G04*
G04 #@! TF.SameCoordinates,897C8E4D-7720-40B5-A877-0FB78C4BABC8*
G04*
G04*
G04 #@! TF.FilePolarity,Positive*
G04*
G01*
G75*
%ADD10C,0.00591*%
%ADD11C,0.00500*%
%ADD12C,0.00984*%
%ADD13C,0.00787*%
%ADD14C,0.01000*%
D10*
X459669Y333500D02*
G03*
X459669Y333500I-20669J0D01*
G01*
D11*
X381906Y336500D02*
G03*
X381906Y336500I-5906J0D01*
G01*
X549405Y378500D02*
G03*
X549405Y378500I-5906J0D01*
G01*
X372063Y324098D02*
X379937D01*
X372063Y348902D02*
X379937D01*
X388402Y324098D02*
Y348902D01*
X363598Y341618D02*
Y348902D01*
Y324098D02*
Y341618D01*
X539563Y366098D02*
X547437D01*
X539563Y390902D02*
X547437D01*
X555902Y366098D02*
Y390902D01*
X531098Y383618D02*
Y390902D01*
Y366098D02*
Y383618D01*
D12*
X398004Y468205D02*
G03*
X398004Y468205I-492J0D01*
G01*
D13*
X427189Y316965D02*
X450811D01*
X487079Y355598D02*
X496921D01*
Y380402D01*
X487079D02*
X496921D01*
X487079Y355598D02*
Y380402D01*
X520705Y448878D02*
X530547D01*
Y473681D01*
X520705D02*
X530547D01*
X520705Y448878D02*
Y473681D01*
X530579Y307992D02*
X531661D01*
X539339D02*
X540421D01*
Y322165D01*
X530579D02*
X531661D01*
X539339D02*
X540421D01*
X530579Y307992D02*
Y322165D01*
X473500Y287500D02*
Y297500D01*
X493500D01*
Y287500D02*
Y297500D01*
X473500Y287500D02*
X493500D01*
X331500Y400248D02*
X341500D01*
Y358752D02*
Y400248D01*
X331500Y358752D02*
X341500D01*
X331500D02*
Y400248D01*
X402335Y471748D02*
Y498185D01*
Y397398D02*
Y400252D01*
X463713Y397398D02*
X473595D01*
X402335D02*
X412217D01*
X473595Y471748D02*
Y498185D01*
Y397398D02*
Y400252D01*
X402335Y498185D02*
X473595D01*
X319626Y474528D02*
X329626D01*
Y433032D02*
Y474528D01*
X319626Y433032D02*
X329626D01*
X319626D02*
Y474528D01*
D14*
X485004Y485501D02*
X483004D01*
X482004Y486500D01*
Y488500D01*
X483004Y489499D01*
X485004D01*
X486003Y488500D01*
Y487500D01*
X482004D01*
X488003Y485501D02*
X491002D01*
X492001Y486500D01*
X491002Y487500D01*
X489002D01*
X488003Y488500D01*
X489002Y489499D01*
X492001D01*
X494001Y483501D02*
Y489499D01*
X497000D01*
X497999Y488500D01*
Y486500D01*
X497000Y485501D01*
X494001D01*
X499999Y490499D02*
X500998Y491499D01*
X502998D01*
X503997Y490499D01*
Y489499D01*
X502998Y488500D01*
X501998D01*
X502998D01*
X503997Y487500D01*
Y486500D01*
X502998Y485501D01*
X500998D01*
X499999Y486500D01*
X509996Y485501D02*
X505997D01*
X509996Y489499D01*
Y490499D01*
X508996Y491499D01*
X506996D01*
X505997Y490499D01*
X494501Y394001D02*
Y399999D01*
X497500D01*
X498500Y398999D01*
Y397000D01*
X497500Y396000D01*
X494501D01*
X496501D02*
X498500Y394001D01*
X500499D02*
X502499D01*
X501499D01*
Y399999D01*
X500499Y398999D01*
X533002Y467501D02*
Y473499D01*
X536001D01*
X537000Y472499D01*
Y470500D01*
X536001Y469500D01*
X533002D01*
X535001D02*
X537000Y467501D01*
X542998D02*
X539000D01*
X542998Y471500D01*
Y472499D01*
X541999Y473499D01*
X539999D01*
X539000Y472499D01*
X532004Y299499D02*
X533004Y300499D01*
X535003D01*
X536003Y299499D01*
Y295501D01*
X535003Y294501D01*
X533004D01*
X532004Y295501D01*
Y299499D01*
X538002Y294501D02*
Y295501D01*
X539002D01*
Y294501D01*
X538002D01*
X543001D02*
X545000D01*
X544000D01*
Y300499D01*
X543001Y299499D01*
X547999Y298500D02*
Y295501D01*
X548999Y294501D01*
X551998D01*
Y298500D01*
X557996Y300499D02*
X553997D01*
Y297500D01*
X555996D01*
X553997D01*
Y294501D01*
X466004Y274501D02*
Y280499D01*
X469003D01*
X470003Y279499D01*
Y277500D01*
X469003Y276500D01*
X466004D01*
X473002Y274501D02*
X475001D01*
X476001Y275501D01*
Y277500D01*
X475001Y278500D01*
X473002D01*
X472002Y277500D01*
Y275501D01*
X473002Y274501D01*
X478000Y278500D02*
Y275501D01*
X479000Y274501D01*
X480000Y275501D01*
X481000Y274501D01*
X481999Y275501D01*
Y278500D01*
X486998Y274501D02*
X484998D01*
X483998Y275501D01*
Y277500D01*
X484998Y278500D01*
X486998D01*
X487997Y277500D01*
Y276500D01*
X483998D01*
X489997Y278500D02*
Y274501D01*
Y276500D01*
X490996Y277500D01*
X491996Y278500D01*
X492996D01*
X363004Y303001D02*
Y308999D01*
X366004D01*
X367003Y307999D01*
Y306000D01*
X366004Y305000D01*
X363004D01*
X365004D02*
X367003Y303001D01*
X373001Y308999D02*
X369003D01*
Y303001D01*
X373001D01*
X369003Y306000D02*
X371002D01*
X378999Y307999D02*
X378000Y308999D01*
X376000D01*
X375001Y307999D01*
Y307000D01*
X376000Y306000D01*
X378000D01*
X378999Y305000D01*
Y304001D01*
X378000Y303001D01*
X376000D01*
X375001Y304001D01*
X384997Y308999D02*
X380999D01*
Y303001D01*
X384997D01*
X380999Y306000D02*
X382998D01*
X386997Y308999D02*
X390996D01*
X388996D01*
Y303001D01*
X307501Y346012D02*
X313499D01*
Y350010D01*
X308501Y356009D02*
X307501Y355009D01*
Y353010D01*
X308501Y352010D01*
X312500D01*
X313499Y353010D01*
Y355009D01*
X312500Y356009D01*
X307501Y358008D02*
X313499D01*
Y361007D01*
X312500Y362007D01*
X308501D01*
X307501Y361007D01*
Y358008D01*
X313499Y370004D02*
X309501Y374003D01*
X313499Y382000D02*
X309501D01*
X307501Y383999D01*
X309501Y385999D01*
X313499D01*
X310500D01*
Y382000D01*
X314499Y387998D02*
Y391997D01*
X307501Y393996D02*
Y395996D01*
Y394996D01*
X313499D01*
Y393996D01*
Y395996D01*
Y398995D02*
X309501D01*
Y401994D01*
X310500Y402993D01*
X313499D01*
X315499Y404993D02*
X309501D01*
Y407992D01*
X310500Y408991D01*
X312500D01*
X313499Y407992D01*
Y404993D01*
X309501Y410991D02*
X312500D01*
X313499Y411990D01*
Y414990D01*
X309501D01*
X308501Y417988D02*
X309501D01*
Y416989D01*
Y418988D01*
Y417988D01*
X312500D01*
X313499Y418988D01*
X516503Y407999D02*
Y402001D01*
X519502D01*
X520502Y403001D01*
Y404000D01*
Y405000D01*
X519502Y406000D01*
X516503D01*
X523501Y402001D02*
X525500D01*
X526500Y403001D01*
Y405000D01*
X525500Y406000D01*
X523501D01*
X522501Y405000D01*
Y403001D01*
X523501Y402001D01*
X529499D02*
X531498D01*
X532498Y403001D01*
Y405000D01*
X531498Y406000D01*
X529499D01*
X528499Y405000D01*
Y403001D01*
X529499Y402001D01*
X535497Y406999D02*
Y406000D01*
X534497D01*
X536497D01*
X535497D01*
Y403001D01*
X536497Y402001D01*
X302001Y441008D02*
X307999D01*
Y444007D01*
X307000Y445007D01*
X306000D01*
X305000D01*
X304001Y444007D01*
Y441008D01*
X307999Y448006D02*
Y450005D01*
X307000Y451005D01*
X305000D01*
X304001Y450005D01*
Y448006D01*
X305000Y447006D01*
X307000D01*
X307999Y448006D01*
Y454004D02*
Y456003D01*
X307000Y457003D01*
X305000D01*
X304001Y456003D01*
Y454004D01*
X305000Y453004D01*
X307000D01*
X307999Y454004D01*
X303001Y460002D02*
X304001D01*
Y459002D01*
Y461002D01*
Y460002D01*
X307000D01*
X307999Y461002D01*
X308999Y464001D02*
Y467999D01*
X309999Y469999D02*
X304001D01*
Y472998D01*
X305000Y473997D01*
X307000D01*
X307999Y472998D01*
Y469999D01*
Y475997D02*
Y477996D01*
Y476997D01*
X304001D01*
Y475997D01*
X307999Y480995D02*
X304001D01*
Y483994D01*
X305000Y484994D01*
X307999D01*
Y486993D02*
Y489992D01*
X307000Y490992D01*
X306000Y489992D01*
Y487993D01*
X305000Y486993D01*
X304001Y487993D01*
Y490992D01*
X429503Y360501D02*
X431503D01*
X430503D01*
Y366499D01*
X429503Y365499D01*
X434502D02*
X435501Y366499D01*
X437501D01*
X438500Y365499D01*
Y361501D01*
X437501Y360501D01*
X435501D01*
X434502Y361501D01*
Y365499D01*
X440500Y364500D02*
Y361501D01*
X441500Y360501D01*
X444498D01*
Y364500D01*
X450497Y366499D02*
X446498D01*
Y363500D01*
X448497D01*
X446498D01*
Y360501D01*
M02*
