G04*
G04 #@! TF.GenerationSoftware,Altium Limited,Altium Designer,22.4.2 (48)*
G04*
G04 Layer_Physical_Order=2*
G04 Layer_Color=16711680*
%FSLAX25Y25*%
%MOIN*%
G70*
G04*
G04 #@! TF.SameCoordinates,897C8E4D-7720-40B5-A877-0FB78C4BABC8*
G04*
G04*
G04 #@! TF.FilePolarity,Positive*
G04*
G01*
G75*
%ADD20C,0.05118*%
%ADD21R,0.05118X0.05118*%
%ADD23C,0.04921*%
%ADD24R,0.04921X0.04921*%
%ADD25C,0.04724*%
%ADD26R,0.04724X0.04724*%
%ADD32C,0.02756*%
%ADD33C,0.06000*%
%ADD34R,0.05906X0.05906*%
%ADD35C,0.05906*%
%ADD36R,0.06102X0.06102*%
%ADD37C,0.06102*%
%ADD38C,0.05000*%
D20*
X439000Y343343D02*
D03*
D21*
Y323657D02*
D03*
D23*
X492000Y387685D02*
D03*
X525626Y480965D02*
D03*
D24*
X492000Y348315D02*
D03*
X525626Y441595D02*
D03*
D25*
X535500Y320000D02*
D03*
D26*
Y310158D02*
D03*
D32*
X406093Y470807D02*
X413400Y463500D01*
X372797Y494203D02*
X396193Y470807D01*
X372797Y494203D02*
Y506386D01*
X396193Y470807D02*
X406093D01*
X372797Y506386D02*
X374412Y508000D01*
X498591D01*
X525626Y480965D01*
X488091Y518500D02*
X498591Y508000D01*
X324626Y468780D02*
X374346Y518500D01*
X488091D01*
X481000Y285000D02*
X488500Y292500D01*
X477657Y285000D02*
X481000D01*
X439000Y323657D02*
X477657Y285000D01*
X478500Y292500D02*
X496158Y310158D01*
X535500D01*
X443972Y348315D02*
X492000D01*
X439000Y343343D02*
X443972Y348315D01*
X338906Y444500D02*
X457700D01*
X324626Y458780D02*
X338906Y444500D01*
X336500Y384500D02*
X346700D01*
X390700Y428500D01*
X451100D01*
X462600Y440000D01*
Y458500D01*
X418085Y387685D02*
X492000D01*
X405000Y374600D02*
X418085Y387685D01*
X531843Y323657D02*
X535500Y320000D01*
X439000Y323657D02*
X531843D01*
X336500Y364500D02*
X392900D01*
X336500Y374500D02*
X398100D01*
D33*
X555500Y517500D02*
D03*
X316000Y285000D02*
D03*
D34*
X488500Y292500D02*
D03*
D35*
X478500D02*
D03*
D36*
X336500Y364500D02*
D03*
X324626Y438780D02*
D03*
D37*
X336500Y374500D02*
D03*
Y384500D02*
D03*
Y394500D02*
D03*
X324626Y448780D02*
D03*
Y458780D02*
D03*
Y468780D02*
D03*
D38*
X413400Y463500D02*
D03*
X457700Y444500D02*
D03*
X462600Y458500D02*
D03*
X405000Y374600D02*
D03*
X392900Y364500D02*
D03*
X398100Y374500D02*
D03*
M02*
