G04*
G04 #@! TF.GenerationSoftware,Altium Limited,Altium Designer,22.4.2 (48)*
G04*
G04 Layer_Color=16711935*
%FSLAX25Y25*%
%MOIN*%
G70*
G04*
G04 #@! TF.SameCoordinates,897C8E4D-7720-40B5-A877-0FB78C4BABC8*
G04*
G04*
G04 #@! TF.FilePolarity,Positive*
G04*
G01*
G75*
%ADD13C,0.00787*%
G36*
X436736Y339615D02*
X437515D01*
Y340798D01*
X437813D01*
Y339615D01*
X438956D01*
Y339280D01*
X436438D01*
Y340984D01*
X436736D01*
Y339615D01*
D02*
G37*
G36*
X438956Y338465D02*
X438691D01*
X438694Y338461D01*
X438705Y338454D01*
X438720Y338443D01*
X438738Y338425D01*
X438760Y338403D01*
X438789Y338378D01*
X438814Y338348D01*
X438843Y338312D01*
X438873Y338272D01*
X438898Y338228D01*
X438924Y338181D01*
X438949Y338130D01*
X438967Y338072D01*
X438982Y338014D01*
X438993Y337948D01*
X438996Y337882D01*
Y337857D01*
X438993Y337824D01*
X438989Y337784D01*
X438982Y337737D01*
X438971Y337686D01*
X438956Y337635D01*
X438935Y337580D01*
X438931Y337573D01*
X438924Y337559D01*
X438909Y337533D01*
X438891Y337504D01*
X438869Y337468D01*
X438843Y337435D01*
X438814Y337402D01*
X438782Y337373D01*
X438778Y337369D01*
X438763Y337362D01*
X438745Y337351D01*
X438716Y337336D01*
X438683Y337318D01*
X438643Y337304D01*
X438600Y337289D01*
X438552Y337278D01*
X438549D01*
X438534Y337275D01*
X438512Y337271D01*
X438483D01*
X438440Y337267D01*
X438392Y337264D01*
X438330Y337260D01*
X438261D01*
X437129D01*
Y337569D01*
X438145D01*
X438148D01*
X438156D01*
X438167D01*
X438185D01*
X438225D01*
X438276Y337573D01*
X438330D01*
X438385Y337577D01*
X438432Y337580D01*
X438472Y337588D01*
X438476D01*
X438490Y337595D01*
X438512Y337602D01*
X438541Y337613D01*
X438570Y337631D01*
X438603Y337653D01*
X438632Y337679D01*
X438661Y337711D01*
X438665Y337715D01*
X438672Y337730D01*
X438683Y337748D01*
X438694Y337777D01*
X438709Y337810D01*
X438720Y337850D01*
X438727Y337893D01*
X438731Y337944D01*
Y337970D01*
X438727Y337995D01*
X438723Y338028D01*
X438713Y338068D01*
X438702Y338112D01*
X438683Y338159D01*
X438661Y338207D01*
X438658Y338214D01*
X438647Y338228D01*
X438632Y338250D01*
X438611Y338276D01*
X438581Y338305D01*
X438549Y338334D01*
X438512Y338359D01*
X438469Y338381D01*
X438461Y338385D01*
X438447Y338388D01*
X438418Y338396D01*
X438378Y338407D01*
X438327Y338418D01*
X438265Y338425D01*
X438192Y338428D01*
X438108Y338432D01*
X437129D01*
Y338742D01*
X438956D01*
Y338465D01*
D02*
G37*
G36*
X437828Y336863D02*
X437872D01*
X437919Y336860D01*
X437970Y336856D01*
X438086Y336845D01*
X438206Y336827D01*
X438323Y336805D01*
X438378Y336790D01*
X438432Y336772D01*
X438436D01*
X438443Y336769D01*
X438458Y336761D01*
X438476Y336754D01*
X438501Y336747D01*
X438527Y336732D01*
X438589Y336703D01*
X438654Y336667D01*
X438727Y336619D01*
X438793Y336565D01*
X438854Y336499D01*
Y336496D01*
X438862Y336492D01*
X438869Y336481D01*
X438876Y336467D01*
X438887Y336448D01*
X438902Y336430D01*
X438927Y336376D01*
X438953Y336310D01*
X438978Y336234D01*
X438993Y336143D01*
X439000Y336044D01*
Y336008D01*
X438996Y335982D01*
X438993Y335953D01*
X438985Y335917D01*
X438978Y335877D01*
X438967Y335833D01*
X438953Y335789D01*
X438938Y335742D01*
X438916Y335695D01*
X438891Y335648D01*
X438862Y335600D01*
X438825Y335553D01*
X438785Y335509D01*
X438742Y335469D01*
X438738Y335466D01*
X438727Y335458D01*
X438709Y335447D01*
X438680Y335429D01*
X438647Y335411D01*
X438603Y335393D01*
X438552Y335367D01*
X438494Y335345D01*
X438428Y335324D01*
X438352Y335302D01*
X438268Y335280D01*
X438174Y335262D01*
X438072Y335244D01*
X437963Y335233D01*
X437843Y335225D01*
X437715Y335222D01*
X437711D01*
X437697D01*
X437671D01*
X437642D01*
X437602Y335225D01*
X437559D01*
X437511Y335229D01*
X437457Y335233D01*
X437344Y335244D01*
X437224Y335262D01*
X437104Y335284D01*
X437049Y335298D01*
X436994Y335313D01*
X436991D01*
X436983Y335316D01*
X436969Y335324D01*
X436951Y335331D01*
X436925Y335338D01*
X436900Y335353D01*
X436838Y335382D01*
X436772Y335418D01*
X436703Y335466D01*
X436634Y335520D01*
X436576Y335586D01*
Y335589D01*
X436568Y335593D01*
X436561Y335604D01*
X436554Y335618D01*
X436539Y335637D01*
X436528Y335659D01*
X436499Y335713D01*
X436474Y335779D01*
X436448Y335855D01*
X436434Y335946D01*
X436427Y336044D01*
Y336077D01*
X436430Y336117D01*
X436438Y336164D01*
X436448Y336219D01*
X436463Y336277D01*
X436481Y336339D01*
X436510Y336397D01*
Y336401D01*
X436514Y336405D01*
X436525Y336423D01*
X436543Y336452D01*
X436568Y336488D01*
X436605Y336528D01*
X436645Y336572D01*
X436692Y336612D01*
X436747Y336652D01*
X436754Y336656D01*
X436772Y336670D01*
X436805Y336685D01*
X436852Y336710D01*
X436907Y336732D01*
X436969Y336761D01*
X437042Y336787D01*
X437122Y336809D01*
X437125D01*
X437133Y336812D01*
X437144Y336816D01*
X437162Y336820D01*
X437184Y336823D01*
X437209Y336827D01*
X437242Y336834D01*
X437278Y336838D01*
X437318Y336845D01*
X437362Y336849D01*
X437413Y336852D01*
X437464Y336860D01*
X437522Y336863D01*
X437580D01*
X437646Y336867D01*
X437715D01*
X437719D01*
X437733D01*
X437759D01*
X437788D01*
X437828Y336863D01*
D02*
G37*
G36*
X438956Y334119D02*
X436987D01*
X436991Y334115D01*
X437005Y334097D01*
X437027Y334075D01*
X437053Y334039D01*
X437085Y333999D01*
X437122Y333948D01*
X437162Y333889D01*
X437202Y333824D01*
Y333820D01*
X437206Y333817D01*
X437220Y333795D01*
X437238Y333758D01*
X437260Y333715D01*
X437286Y333664D01*
X437311Y333609D01*
X437336Y333555D01*
X437358Y333500D01*
X437060D01*
Y333504D01*
X437053Y333511D01*
X437049Y333525D01*
X437038Y333544D01*
X437027Y333565D01*
X437013Y333591D01*
X436976Y333653D01*
X436936Y333726D01*
X436885Y333798D01*
X436827Y333875D01*
X436765Y333951D01*
X436761Y333955D01*
X436758Y333959D01*
X436747Y333969D01*
X436736Y333984D01*
X436699Y334017D01*
X436656Y334061D01*
X436605Y334104D01*
X436547Y334152D01*
X436488Y334192D01*
X436427Y334228D01*
Y334428D01*
X438956D01*
Y334119D01*
D02*
G37*
G36*
X492741Y371265D02*
X490772D01*
X490775Y371261D01*
X490790Y371243D01*
X490812Y371221D01*
X490837Y371185D01*
X490870Y371145D01*
X490907Y371094D01*
X490947Y371036D01*
X490987Y370970D01*
Y370967D01*
X490990Y370963D01*
X491005Y370941D01*
X491023Y370905D01*
X491045Y370861D01*
X491070Y370810D01*
X491096Y370756D01*
X491121Y370701D01*
X491143Y370646D01*
X490845D01*
Y370650D01*
X490837Y370657D01*
X490834Y370672D01*
X490823Y370690D01*
X490812Y370712D01*
X490797Y370737D01*
X490761Y370799D01*
X490721Y370872D01*
X490670Y370945D01*
X490612Y371021D01*
X490550Y371098D01*
X490546Y371101D01*
X490543Y371105D01*
X490532Y371116D01*
X490521Y371130D01*
X490484Y371163D01*
X490441Y371207D01*
X490390Y371251D01*
X490331Y371298D01*
X490273Y371338D01*
X490211Y371374D01*
Y371574D01*
X492741D01*
Y371265D01*
D02*
G37*
G36*
Y369798D02*
X492217Y369467D01*
X492213D01*
X492206Y369460D01*
X492195Y369452D01*
X492181Y369441D01*
X492140Y369416D01*
X492090Y369383D01*
X492035Y369343D01*
X491977Y369303D01*
X491922Y369263D01*
X491871Y369227D01*
X491867Y369223D01*
X491853Y369212D01*
X491831Y369194D01*
X491806Y369168D01*
X491751Y369114D01*
X491726Y369085D01*
X491704Y369056D01*
X491700Y369052D01*
X491696Y369045D01*
X491689Y369030D01*
X491678Y369008D01*
X491667Y368986D01*
X491656Y368961D01*
X491638Y368903D01*
Y368899D01*
X491635Y368892D01*
Y368877D01*
X491631Y368859D01*
X491627Y368834D01*
Y368804D01*
X491624Y368764D01*
Y368335D01*
X492741D01*
Y368000D01*
X490222D01*
Y369168D01*
X490226Y369198D01*
Y369230D01*
X490230Y369307D01*
X490240Y369387D01*
X490251Y369474D01*
X490270Y369554D01*
X490280Y369594D01*
X490291Y369627D01*
Y369631D01*
X490295Y369634D01*
X490306Y369656D01*
X490320Y369689D01*
X490346Y369729D01*
X490379Y369773D01*
X490422Y369820D01*
X490473Y369864D01*
X490532Y369907D01*
X490535D01*
X490539Y369911D01*
X490561Y369926D01*
X490597Y369940D01*
X490645Y369962D01*
X490699Y369980D01*
X490765Y369998D01*
X490834Y370009D01*
X490910Y370013D01*
X490914D01*
X490921D01*
X490936D01*
X490954Y370009D01*
X490979D01*
X491005Y370006D01*
X491067Y369991D01*
X491140Y369969D01*
X491216Y369940D01*
X491292Y369896D01*
X491329Y369867D01*
X491365Y369838D01*
X491369Y369835D01*
X491372Y369831D01*
X491383Y369820D01*
X491394Y369805D01*
X491409Y369787D01*
X491423Y369765D01*
X491442Y369736D01*
X491464Y369707D01*
X491482Y369671D01*
X491500Y369631D01*
X491522Y369587D01*
X491540Y369540D01*
X491554Y369485D01*
X491573Y369430D01*
X491584Y369369D01*
X491595Y369303D01*
X491598Y369310D01*
X491605Y369325D01*
X491620Y369347D01*
X491635Y369376D01*
X491675Y369441D01*
X491700Y369474D01*
X491722Y369503D01*
X491729Y369511D01*
X491747Y369529D01*
X491777Y369558D01*
X491813Y369594D01*
X491864Y369634D01*
X491919Y369682D01*
X491984Y369729D01*
X492057Y369780D01*
X492741Y370213D01*
Y369798D01*
D02*
G37*
G36*
X526367Y463646D02*
X526364D01*
X526349D01*
X526327D01*
X526298Y463649D01*
X526265Y463653D01*
X526229Y463660D01*
X526192Y463667D01*
X526152Y463682D01*
X526149D01*
X526145Y463686D01*
X526123Y463693D01*
X526090Y463707D01*
X526047Y463729D01*
X525996Y463758D01*
X525938Y463795D01*
X525879Y463835D01*
X525817Y463886D01*
X525814D01*
X525810Y463893D01*
X525788Y463911D01*
X525756Y463944D01*
X525708Y463991D01*
X525654Y464046D01*
X525588Y464115D01*
X525515Y464199D01*
X525439Y464290D01*
X525435Y464293D01*
X525424Y464308D01*
X525406Y464330D01*
X525384Y464355D01*
X525355Y464388D01*
X525322Y464428D01*
X525286Y464468D01*
X525246Y464516D01*
X525159Y464607D01*
X525071Y464698D01*
X525028Y464741D01*
X524984Y464781D01*
X524944Y464818D01*
X524904Y464847D01*
X524900D01*
X524897Y464854D01*
X524886Y464861D01*
X524871Y464869D01*
X524831Y464894D01*
X524784Y464923D01*
X524725Y464949D01*
X524664Y464974D01*
X524594Y464989D01*
X524529Y464996D01*
X524525D01*
X524522D01*
X524500Y464992D01*
X524463Y464989D01*
X524423Y464978D01*
X524372Y464963D01*
X524321Y464938D01*
X524270Y464905D01*
X524220Y464861D01*
X524212Y464854D01*
X524198Y464836D01*
X524180Y464810D01*
X524154Y464770D01*
X524132Y464719D01*
X524110Y464661D01*
X524096Y464592D01*
X524092Y464516D01*
Y464494D01*
X524096Y464479D01*
X524099Y464435D01*
X524110Y464385D01*
X524125Y464330D01*
X524150Y464268D01*
X524183Y464210D01*
X524227Y464155D01*
X524234Y464148D01*
X524252Y464133D01*
X524281Y464112D01*
X524325Y464090D01*
X524376Y464064D01*
X524442Y464042D01*
X524514Y464028D01*
X524598Y464020D01*
X524565Y463704D01*
X524562D01*
X524551Y463707D01*
X524533D01*
X524507Y463711D01*
X524478Y463718D01*
X524445Y463726D01*
X524405Y463737D01*
X524365Y463748D01*
X524278Y463777D01*
X524190Y463820D01*
X524147Y463846D01*
X524103Y463879D01*
X524063Y463911D01*
X524027Y463948D01*
X524023Y463951D01*
X524019Y463959D01*
X524008Y463970D01*
X523997Y463988D01*
X523983Y464010D01*
X523968Y464035D01*
X523950Y464064D01*
X523932Y464101D01*
X523914Y464141D01*
X523896Y464184D01*
X523881Y464232D01*
X523866Y464283D01*
X523855Y464337D01*
X523845Y464395D01*
X523841Y464457D01*
X523837Y464523D01*
Y464559D01*
X523841Y464585D01*
X523845Y464614D01*
X523848Y464650D01*
X523855Y464690D01*
X523863Y464730D01*
X523888Y464825D01*
X523925Y464920D01*
X523947Y464967D01*
X523972Y465014D01*
X524005Y465058D01*
X524041Y465098D01*
X524045Y465102D01*
X524048Y465109D01*
X524063Y465116D01*
X524078Y465131D01*
X524096Y465149D01*
X524121Y465167D01*
X524147Y465185D01*
X524180Y465207D01*
X524249Y465244D01*
X524336Y465280D01*
X524380Y465295D01*
X524431Y465302D01*
X524482Y465309D01*
X524536Y465313D01*
X524544D01*
X524562D01*
X524591Y465309D01*
X524631Y465305D01*
X524675Y465298D01*
X524725Y465284D01*
X524780Y465269D01*
X524835Y465247D01*
X524842Y465244D01*
X524860Y465236D01*
X524889Y465222D01*
X524929Y465200D01*
X524973Y465171D01*
X525028Y465134D01*
X525082Y465091D01*
X525144Y465040D01*
X525151Y465032D01*
X525173Y465014D01*
X525191Y464996D01*
X525210Y464978D01*
X525231Y464956D01*
X525261Y464927D01*
X525290Y464898D01*
X525322Y464861D01*
X525359Y464825D01*
X525399Y464781D01*
X525439Y464734D01*
X525486Y464683D01*
X525534Y464625D01*
X525585Y464567D01*
X525588Y464563D01*
X525595Y464556D01*
X525606Y464541D01*
X525621Y464523D01*
X525643Y464501D01*
X525665Y464475D01*
X525712Y464417D01*
X525767Y464355D01*
X525821Y464297D01*
X525868Y464246D01*
X525887Y464224D01*
X525905Y464206D01*
X525909Y464202D01*
X525919Y464192D01*
X525934Y464177D01*
X525956Y464159D01*
X525981Y464141D01*
X526007Y464119D01*
X526069Y464075D01*
Y465316D01*
X526367D01*
Y463646D01*
D02*
G37*
G36*
Y463078D02*
X525843Y462746D01*
X525839D01*
X525832Y462739D01*
X525821Y462732D01*
X525807Y462721D01*
X525767Y462696D01*
X525716Y462663D01*
X525661Y462623D01*
X525603Y462583D01*
X525548Y462543D01*
X525497Y462506D01*
X525493Y462503D01*
X525479Y462492D01*
X525457Y462473D01*
X525432Y462448D01*
X525377Y462393D01*
X525352Y462364D01*
X525330Y462335D01*
X525326Y462332D01*
X525322Y462324D01*
X525315Y462310D01*
X525304Y462288D01*
X525293Y462266D01*
X525282Y462241D01*
X525264Y462182D01*
Y462179D01*
X525261Y462171D01*
Y462157D01*
X525257Y462139D01*
X525253Y462113D01*
Y462084D01*
X525250Y462044D01*
Y461615D01*
X526367D01*
Y461280D01*
X523848D01*
Y462448D01*
X523852Y462477D01*
Y462510D01*
X523855Y462586D01*
X523866Y462666D01*
X523877Y462754D01*
X523896Y462834D01*
X523907Y462874D01*
X523917Y462907D01*
Y462910D01*
X523921Y462914D01*
X523932Y462936D01*
X523947Y462969D01*
X523972Y463009D01*
X524005Y463052D01*
X524048Y463100D01*
X524099Y463143D01*
X524158Y463187D01*
X524161D01*
X524165Y463191D01*
X524187Y463205D01*
X524223Y463220D01*
X524270Y463242D01*
X524325Y463260D01*
X524391Y463278D01*
X524460Y463289D01*
X524536Y463293D01*
X524540D01*
X524547D01*
X524562D01*
X524580Y463289D01*
X524605D01*
X524631Y463285D01*
X524693Y463271D01*
X524765Y463249D01*
X524842Y463220D01*
X524918Y463176D01*
X524955Y463147D01*
X524991Y463118D01*
X524995Y463114D01*
X524999Y463110D01*
X525009Y463100D01*
X525020Y463085D01*
X525035Y463067D01*
X525049Y463045D01*
X525068Y463016D01*
X525090Y462987D01*
X525108Y462950D01*
X525126Y462910D01*
X525148Y462867D01*
X525166Y462819D01*
X525180Y462765D01*
X525199Y462710D01*
X525210Y462648D01*
X525220Y462583D01*
X525224Y462590D01*
X525231Y462605D01*
X525246Y462626D01*
X525261Y462655D01*
X525301Y462721D01*
X525326Y462754D01*
X525348Y462783D01*
X525355Y462790D01*
X525373Y462808D01*
X525402Y462838D01*
X525439Y462874D01*
X525490Y462914D01*
X525545Y462961D01*
X525610Y463009D01*
X525683Y463060D01*
X526367Y463493D01*
Y463078D01*
D02*
G37*
G36*
X533236Y322410D02*
X534015D01*
Y323593D01*
X534313D01*
Y322410D01*
X535456D01*
Y322075D01*
X532937D01*
Y323778D01*
X533236D01*
Y322410D01*
D02*
G37*
G36*
X535456Y321259D02*
X535191D01*
X535194Y321256D01*
X535205Y321249D01*
X535220Y321238D01*
X535238Y321219D01*
X535260Y321198D01*
X535289Y321172D01*
X535314Y321143D01*
X535344Y321107D01*
X535373Y321067D01*
X535398Y321023D01*
X535424Y320976D01*
X535449Y320925D01*
X535467Y320866D01*
X535482Y320808D01*
X535493Y320743D01*
X535496Y320677D01*
Y320652D01*
X535493Y320619D01*
X535489Y320579D01*
X535482Y320532D01*
X535471Y320480D01*
X535456Y320430D01*
X535434Y320375D01*
X535431Y320368D01*
X535424Y320353D01*
X535409Y320328D01*
X535391Y320299D01*
X535369Y320262D01*
X535344Y320229D01*
X535314Y320197D01*
X535282Y320167D01*
X535278Y320164D01*
X535263Y320157D01*
X535245Y320146D01*
X535216Y320131D01*
X535183Y320113D01*
X535143Y320098D01*
X535100Y320084D01*
X535052Y320073D01*
X535049D01*
X535034Y320069D01*
X535012Y320065D01*
X534983D01*
X534939Y320062D01*
X534892Y320058D01*
X534830Y320055D01*
X534761D01*
X533629D01*
Y320364D01*
X534645D01*
X534648D01*
X534656D01*
X534666D01*
X534685D01*
X534725D01*
X534776Y320368D01*
X534830D01*
X534885Y320371D01*
X534932Y320375D01*
X534972Y320382D01*
X534976D01*
X534990Y320390D01*
X535012Y320397D01*
X535041Y320408D01*
X535071Y320426D01*
X535103Y320448D01*
X535132Y320473D01*
X535161Y320506D01*
X535165Y320510D01*
X535172Y320524D01*
X535183Y320542D01*
X535194Y320571D01*
X535209Y320604D01*
X535220Y320644D01*
X535227Y320688D01*
X535231Y320739D01*
Y320764D01*
X535227Y320790D01*
X535223Y320823D01*
X535213Y320863D01*
X535202Y320906D01*
X535183Y320954D01*
X535161Y321001D01*
X535158Y321008D01*
X535147Y321023D01*
X535132Y321045D01*
X535111Y321070D01*
X535081Y321099D01*
X535049Y321128D01*
X535012Y321154D01*
X534969Y321176D01*
X534961Y321179D01*
X534947Y321183D01*
X534918Y321190D01*
X534878Y321201D01*
X534827Y321212D01*
X534765Y321219D01*
X534692Y321223D01*
X534608Y321227D01*
X533629D01*
Y321536D01*
X535456D01*
Y321259D01*
D02*
G37*
G36*
Y318872D02*
X533487D01*
X533491Y318868D01*
X533505Y318850D01*
X533527Y318828D01*
X533553Y318792D01*
X533585Y318752D01*
X533622Y318701D01*
X533662Y318642D01*
X533702Y318577D01*
Y318573D01*
X533706Y318569D01*
X533720Y318548D01*
X533738Y318511D01*
X533760Y318468D01*
X533786Y318417D01*
X533811Y318362D01*
X533837Y318307D01*
X533858Y318253D01*
X533560D01*
Y318256D01*
X533553Y318264D01*
X533549Y318278D01*
X533538Y318297D01*
X533527Y318318D01*
X533513Y318344D01*
X533476Y318406D01*
X533436Y318478D01*
X533385Y318551D01*
X533327Y318628D01*
X533265Y318704D01*
X533261Y318708D01*
X533258Y318711D01*
X533247Y318722D01*
X533236Y318737D01*
X533200Y318770D01*
X533156Y318813D01*
X533105Y318857D01*
X533047Y318904D01*
X532988Y318944D01*
X532927Y318981D01*
Y319181D01*
X535456D01*
Y318872D01*
D02*
G37*
G36*
Y317212D02*
X535103D01*
Y317565D01*
X535456D01*
Y317212D01*
D02*
G37*
G36*
X534328Y316720D02*
X534372D01*
X534419Y316717D01*
X534470Y316713D01*
X534586Y316702D01*
X534706Y316684D01*
X534823Y316662D01*
X534878Y316648D01*
X534932Y316629D01*
X534936D01*
X534943Y316626D01*
X534958Y316618D01*
X534976Y316611D01*
X535001Y316604D01*
X535027Y316589D01*
X535089Y316560D01*
X535154Y316524D01*
X535227Y316476D01*
X535293Y316422D01*
X535354Y316356D01*
Y316353D01*
X535362Y316349D01*
X535369Y316338D01*
X535376Y316324D01*
X535387Y316305D01*
X535402Y316287D01*
X535427Y316233D01*
X535453Y316167D01*
X535478Y316091D01*
X535493Y316000D01*
X535500Y315901D01*
Y315865D01*
X535496Y315840D01*
X535493Y315810D01*
X535486Y315774D01*
X535478Y315734D01*
X535467Y315690D01*
X535453Y315647D01*
X535438Y315599D01*
X535416Y315552D01*
X535391Y315505D01*
X535362Y315457D01*
X535325Y315410D01*
X535285Y315366D01*
X535242Y315326D01*
X535238Y315323D01*
X535227Y315315D01*
X535209Y315304D01*
X535180Y315286D01*
X535147Y315268D01*
X535103Y315250D01*
X535052Y315224D01*
X534994Y315202D01*
X534929Y315181D01*
X534852Y315159D01*
X534768Y315137D01*
X534674Y315119D01*
X534572Y315101D01*
X534463Y315090D01*
X534342Y315082D01*
X534215Y315079D01*
X534211D01*
X534197D01*
X534171D01*
X534142D01*
X534102Y315082D01*
X534059D01*
X534011Y315086D01*
X533957Y315090D01*
X533844Y315101D01*
X533724Y315119D01*
X533604Y315141D01*
X533549Y315155D01*
X533494Y315170D01*
X533491D01*
X533484Y315173D01*
X533469Y315181D01*
X533451Y315188D01*
X533425Y315195D01*
X533400Y315210D01*
X533338Y315239D01*
X533272Y315275D01*
X533203Y315323D01*
X533134Y315377D01*
X533076Y315443D01*
Y315446D01*
X533069Y315450D01*
X533061Y315461D01*
X533054Y315476D01*
X533039Y315494D01*
X533029Y315515D01*
X532999Y315570D01*
X532974Y315636D01*
X532948Y315712D01*
X532934Y315803D01*
X532927Y315901D01*
Y315934D01*
X532930Y315974D01*
X532937Y316021D01*
X532948Y316076D01*
X532963Y316134D01*
X532981Y316196D01*
X533010Y316254D01*
Y316258D01*
X533014Y316262D01*
X533025Y316280D01*
X533043Y316309D01*
X533069Y316346D01*
X533105Y316386D01*
X533145Y316429D01*
X533192Y316469D01*
X533247Y316509D01*
X533254Y316513D01*
X533272Y316528D01*
X533305Y316542D01*
X533352Y316567D01*
X533407Y316589D01*
X533469Y316618D01*
X533542Y316644D01*
X533622Y316666D01*
X533625D01*
X533633Y316669D01*
X533644Y316673D01*
X533662Y316677D01*
X533684Y316680D01*
X533709Y316684D01*
X533742Y316691D01*
X533778Y316695D01*
X533818Y316702D01*
X533862Y316706D01*
X533913Y316709D01*
X533964Y316717D01*
X534022Y316720D01*
X534080D01*
X534146Y316724D01*
X534215D01*
X534219D01*
X534233D01*
X534259D01*
X534288D01*
X534328Y316720D01*
D02*
G37*
G36*
X442657Y449468D02*
X442682Y449464D01*
X442737Y449457D01*
X442802Y449442D01*
X442871Y449421D01*
X442940Y449388D01*
X443010Y449348D01*
X443013D01*
X443017Y449341D01*
X443039Y449326D01*
X443072Y449297D01*
X443112Y449261D01*
X443155Y449213D01*
X443199Y449155D01*
X443243Y449086D01*
X443279Y449009D01*
Y449006D01*
X443283Y448998D01*
X443286Y448987D01*
X443294Y448973D01*
X443301Y448951D01*
X443308Y448926D01*
X443326Y448867D01*
X443344Y448795D01*
X443359Y448714D01*
X443370Y448624D01*
X443374Y448529D01*
Y448525D01*
Y448518D01*
Y448503D01*
Y448482D01*
X443370Y448456D01*
Y448427D01*
X443363Y448361D01*
X443348Y448281D01*
X443330Y448198D01*
X443304Y448110D01*
X443272Y448023D01*
Y448019D01*
X443268Y448012D01*
X443261Y448001D01*
X443254Y447987D01*
X443228Y447947D01*
X443195Y447895D01*
X443155Y447841D01*
X443104Y447786D01*
X443046Y447732D01*
X442977Y447681D01*
X442973D01*
X442970Y447677D01*
X442959Y447670D01*
X442944Y447663D01*
X442908Y447644D01*
X442857Y447622D01*
X442795Y447601D01*
X442729Y447582D01*
X442653Y447568D01*
X442576Y447564D01*
X442551D01*
X442522Y447568D01*
X442485Y447572D01*
X442442Y447579D01*
X442394Y447590D01*
X442347Y447604D01*
X442300Y447626D01*
X442296Y447630D01*
X442278Y447637D01*
X442256Y447652D01*
X442227Y447674D01*
X442198Y447695D01*
X442162Y447724D01*
X442129Y447757D01*
X442100Y447794D01*
Y446905D01*
X441790D01*
Y449432D01*
X442070D01*
Y449191D01*
X442074Y449199D01*
X442089Y449213D01*
X442107Y449239D01*
X442136Y449268D01*
X442169Y449304D01*
X442205Y449337D01*
X442249Y449370D01*
X442292Y449399D01*
X442300Y449403D01*
X442314Y449410D01*
X442344Y449421D01*
X442380Y449435D01*
X442423Y449450D01*
X442475Y449461D01*
X442533Y449468D01*
X442598Y449472D01*
X442638D01*
X442657Y449468D01*
D02*
G37*
G36*
X444527Y450131D02*
X444575Y450123D01*
X444633Y450112D01*
X444698Y450094D01*
X444764Y450072D01*
X444830Y450043D01*
X444833D01*
X444837Y450039D01*
X444859Y450029D01*
X444892Y450007D01*
X444928Y449981D01*
X444972Y449945D01*
X445015Y449905D01*
X445059Y449858D01*
X445095Y449803D01*
X445099Y449796D01*
X445110Y449777D01*
X445124Y449745D01*
X445143Y449705D01*
X445161Y449657D01*
X445175Y449603D01*
X445186Y449541D01*
X445190Y449479D01*
Y449472D01*
Y449450D01*
X445186Y449421D01*
X445179Y449381D01*
X445168Y449333D01*
X445150Y449282D01*
X445128Y449231D01*
X445099Y449180D01*
X445095Y449173D01*
X445084Y449159D01*
X445063Y449133D01*
X445033Y449104D01*
X444997Y449071D01*
X444953Y449035D01*
X444902Y449002D01*
X444840Y448969D01*
X444844D01*
X444851Y448966D01*
X444862Y448962D01*
X444877Y448958D01*
X444917Y448944D01*
X444968Y448922D01*
X445026Y448893D01*
X445084Y448856D01*
X445139Y448809D01*
X445190Y448755D01*
X445194Y448747D01*
X445208Y448725D01*
X445230Y448689D01*
X445252Y448642D01*
X445274Y448584D01*
X445295Y448514D01*
X445310Y448434D01*
X445314Y448347D01*
Y448343D01*
Y448332D01*
Y448314D01*
X445310Y448292D01*
X445306Y448263D01*
X445299Y448230D01*
X445292Y448194D01*
X445285Y448154D01*
X445256Y448067D01*
X445234Y448019D01*
X445212Y447976D01*
X445183Y447928D01*
X445150Y447881D01*
X445114Y447834D01*
X445070Y447790D01*
X445066Y447786D01*
X445059Y447779D01*
X445044Y447768D01*
X445026Y447753D01*
X445004Y447735D01*
X444975Y447717D01*
X444942Y447695D01*
X444902Y447677D01*
X444862Y447655D01*
X444815Y447633D01*
X444768Y447615D01*
X444713Y447597D01*
X444655Y447582D01*
X444593Y447572D01*
X444531Y447564D01*
X444462Y447561D01*
X444429D01*
X444407Y447564D01*
X444378Y447568D01*
X444346Y447572D01*
X444309Y447579D01*
X444269Y447586D01*
X444182Y447608D01*
X444091Y447644D01*
X444043Y447666D01*
X444000Y447692D01*
X443956Y447724D01*
X443912Y447757D01*
X443909Y447761D01*
X443901Y447768D01*
X443890Y447779D01*
X443880Y447794D01*
X443861Y447812D01*
X443843Y447837D01*
X443821Y447863D01*
X443799Y447895D01*
X443778Y447932D01*
X443756Y447968D01*
X443716Y448056D01*
X443683Y448158D01*
X443672Y448212D01*
X443665Y448270D01*
X443974Y448311D01*
Y448307D01*
X443978Y448300D01*
X443982Y448285D01*
X443985Y448267D01*
X443989Y448245D01*
X443996Y448219D01*
X444014Y448165D01*
X444040Y448099D01*
X444072Y448037D01*
X444109Y447979D01*
X444152Y447928D01*
X444160Y447925D01*
X444174Y447910D01*
X444204Y447892D01*
X444240Y447874D01*
X444284Y447852D01*
X444338Y447834D01*
X444400Y447819D01*
X444466Y447815D01*
X444487D01*
X444502Y447819D01*
X444542Y447823D01*
X444593Y447834D01*
X444651Y447852D01*
X444713Y447877D01*
X444775Y447914D01*
X444833Y447965D01*
X444840Y447972D01*
X444859Y447994D01*
X444881Y448027D01*
X444910Y448070D01*
X444939Y448125D01*
X444961Y448187D01*
X444979Y448259D01*
X444986Y448340D01*
Y448343D01*
Y448350D01*
Y448361D01*
X444982Y448376D01*
X444979Y448416D01*
X444968Y448463D01*
X444953Y448522D01*
X444928Y448580D01*
X444892Y448638D01*
X444844Y448693D01*
X444837Y448700D01*
X444819Y448714D01*
X444790Y448736D01*
X444749Y448762D01*
X444698Y448787D01*
X444637Y448809D01*
X444567Y448824D01*
X444491Y448831D01*
X444458D01*
X444433Y448827D01*
X444400Y448824D01*
X444364Y448816D01*
X444320Y448809D01*
X444273Y448798D01*
X444309Y449071D01*
X444327D01*
X444342Y449068D01*
X444389D01*
X444429Y449075D01*
X444477Y449082D01*
X444531Y449093D01*
X444593Y449111D01*
X444651Y449137D01*
X444713Y449169D01*
X444717D01*
X444720Y449173D01*
X444739Y449188D01*
X444764Y449213D01*
X444793Y449246D01*
X444822Y449293D01*
X444848Y449348D01*
X444866Y449410D01*
X444873Y449446D01*
Y449486D01*
Y449490D01*
Y449494D01*
Y449515D01*
X444866Y449544D01*
X444859Y449584D01*
X444844Y449628D01*
X444826Y449676D01*
X444797Y449723D01*
X444757Y449766D01*
X444753Y449770D01*
X444735Y449785D01*
X444709Y449803D01*
X444677Y449825D01*
X444633Y449843D01*
X444582Y449861D01*
X444524Y449876D01*
X444458Y449879D01*
X444429D01*
X444396Y449872D01*
X444353Y449865D01*
X444305Y449850D01*
X444258Y449832D01*
X444207Y449803D01*
X444160Y449766D01*
X444156Y449763D01*
X444142Y449745D01*
X444120Y449719D01*
X444094Y449683D01*
X444069Y449635D01*
X444043Y449577D01*
X444022Y449508D01*
X444007Y449428D01*
X443698Y449482D01*
Y449486D01*
X443701Y449497D01*
X443705Y449512D01*
X443709Y449534D01*
X443716Y449559D01*
X443727Y449588D01*
X443749Y449657D01*
X443785Y449737D01*
X443829Y449817D01*
X443883Y449894D01*
X443952Y449963D01*
X443956Y449967D01*
X443963Y449970D01*
X443974Y449978D01*
X443989Y449989D01*
X444007Y450003D01*
X444032Y450018D01*
X444058Y450032D01*
X444091Y450050D01*
X444164Y450079D01*
X444247Y450109D01*
X444346Y450127D01*
X444396Y450134D01*
X444487D01*
X444527Y450131D01*
D02*
G37*
G36*
X440702Y449468D02*
X440756Y449464D01*
X440815Y449457D01*
X440877Y449442D01*
X440942Y449428D01*
X441004Y449406D01*
X441008D01*
X441011Y449403D01*
X441029Y449395D01*
X441059Y449381D01*
X441095Y449362D01*
X441135Y449337D01*
X441175Y449308D01*
X441211Y449275D01*
X441244Y449239D01*
X441248Y449235D01*
X441255Y449221D01*
X441270Y449195D01*
X441288Y449166D01*
X441306Y449122D01*
X441324Y449075D01*
X441339Y449020D01*
X441353Y448958D01*
X441051Y448918D01*
Y448926D01*
X441048Y448940D01*
X441040Y448966D01*
X441029Y448998D01*
X441011Y449031D01*
X440989Y449068D01*
X440964Y449104D01*
X440928Y449137D01*
X440924Y449140D01*
X440909Y449148D01*
X440887Y449162D01*
X440855Y449177D01*
X440818Y449191D01*
X440771Y449206D01*
X440713Y449213D01*
X440651Y449217D01*
X440615D01*
X440578Y449213D01*
X440531Y449210D01*
X440483Y449199D01*
X440433Y449188D01*
X440385Y449169D01*
X440345Y449144D01*
X440342Y449140D01*
X440331Y449133D01*
X440316Y449119D01*
X440301Y449097D01*
X440283Y449075D01*
X440269Y449046D01*
X440258Y449013D01*
X440254Y448980D01*
Y448977D01*
Y448969D01*
X440258Y448958D01*
Y448944D01*
X440269Y448907D01*
X440290Y448871D01*
X440294Y448867D01*
X440298Y448864D01*
X440305Y448853D01*
X440320Y448842D01*
X440334Y448831D01*
X440356Y448816D01*
X440381Y448806D01*
X440411Y448791D01*
X440414D01*
X440422Y448787D01*
X440436Y448784D01*
X440462Y448773D01*
X440498Y448762D01*
X440545Y448751D01*
X440574Y448740D01*
X440607Y448733D01*
X440644Y448722D01*
X440684Y448711D01*
X440687D01*
X440698Y448707D01*
X440716Y448704D01*
X440738Y448696D01*
X440764Y448689D01*
X440797Y448682D01*
X440866Y448660D01*
X440942Y448638D01*
X441018Y448613D01*
X441088Y448587D01*
X441117Y448576D01*
X441142Y448565D01*
X441150Y448562D01*
X441164Y448554D01*
X441186Y448543D01*
X441219Y448525D01*
X441252Y448503D01*
X441284Y448474D01*
X441317Y448442D01*
X441346Y448405D01*
X441350Y448401D01*
X441357Y448387D01*
X441372Y448365D01*
X441386Y448332D01*
X441397Y448292D01*
X441412Y448249D01*
X441419Y448198D01*
X441423Y448139D01*
Y448132D01*
Y448114D01*
X441419Y448085D01*
X441412Y448045D01*
X441401Y448001D01*
X441383Y447954D01*
X441361Y447899D01*
X441331Y447848D01*
X441328Y447841D01*
X441313Y447826D01*
X441295Y447801D01*
X441266Y447772D01*
X441226Y447739D01*
X441182Y447703D01*
X441131Y447670D01*
X441070Y447637D01*
X441066D01*
X441062Y447633D01*
X441040Y447626D01*
X441004Y447615D01*
X440957Y447601D01*
X440898Y447586D01*
X440833Y447575D01*
X440764Y447568D01*
X440684Y447564D01*
X440651D01*
X440625Y447568D01*
X440596D01*
X440560Y447572D01*
X440523Y447575D01*
X440483Y447582D01*
X440396Y447601D01*
X440305Y447626D01*
X440218Y447663D01*
X440178Y447684D01*
X440141Y447710D01*
X440138Y447714D01*
X440134Y447717D01*
X440112Y447739D01*
X440079Y447772D01*
X440043Y447823D01*
X440003Y447885D01*
X439963Y447957D01*
X439930Y448048D01*
X439905Y448150D01*
X440210Y448198D01*
Y448194D01*
Y448190D01*
X440218Y448169D01*
X440225Y448132D01*
X440239Y448092D01*
X440258Y448048D01*
X440280Y448001D01*
X440312Y447954D01*
X440352Y447914D01*
X440360Y447910D01*
X440374Y447899D01*
X440403Y447885D01*
X440440Y447866D01*
X440487Y447848D01*
X440542Y447834D01*
X440607Y447823D01*
X440684Y447819D01*
X440720D01*
X440756Y447823D01*
X440804Y447830D01*
X440855Y447841D01*
X440909Y447856D01*
X440957Y447874D01*
X441000Y447903D01*
X441004Y447906D01*
X441018Y447917D01*
X441033Y447935D01*
X441055Y447961D01*
X441073Y447990D01*
X441091Y448027D01*
X441102Y448063D01*
X441106Y448107D01*
Y448110D01*
Y448125D01*
X441102Y448143D01*
X441095Y448169D01*
X441084Y448194D01*
X441066Y448219D01*
X441044Y448249D01*
X441011Y448270D01*
X441008Y448274D01*
X440997Y448278D01*
X440978Y448289D01*
X440949Y448300D01*
X440906Y448314D01*
X440880Y448325D01*
X440851Y448332D01*
X440818Y448343D01*
X440782Y448354D01*
X440742Y448365D01*
X440695Y448376D01*
X440691D01*
X440680Y448380D01*
X440662Y448383D01*
X440640Y448390D01*
X440611Y448398D01*
X440578Y448409D01*
X440509Y448427D01*
X440429Y448452D01*
X440352Y448474D01*
X440280Y448500D01*
X440247Y448514D01*
X440221Y448525D01*
X440214Y448529D01*
X440200Y448536D01*
X440178Y448551D01*
X440148Y448569D01*
X440116Y448594D01*
X440083Y448624D01*
X440050Y448656D01*
X440021Y448696D01*
X440018Y448700D01*
X440010Y448714D01*
X439999Y448740D01*
X439988Y448769D01*
X439978Y448806D01*
X439967Y448849D01*
X439959Y448893D01*
X439956Y448944D01*
Y448951D01*
Y448966D01*
X439959Y448987D01*
X439963Y449020D01*
X439970Y449053D01*
X439978Y449093D01*
X439992Y449129D01*
X440010Y449169D01*
X440014Y449173D01*
X440021Y449188D01*
X440032Y449206D01*
X440050Y449231D01*
X440072Y449257D01*
X440098Y449290D01*
X440127Y449319D01*
X440163Y449344D01*
X440167Y449348D01*
X440178Y449352D01*
X440192Y449362D01*
X440214Y449373D01*
X440243Y449388D01*
X440276Y449403D01*
X440316Y449417D01*
X440360Y449432D01*
X440367Y449435D01*
X440381Y449439D01*
X440407Y449446D01*
X440440Y449453D01*
X440480Y449461D01*
X440523Y449464D01*
X440574Y449472D01*
X440662D01*
X440702Y449468D01*
D02*
G37*
G36*
X446515Y450131D02*
X446544Y450127D01*
X446580Y450123D01*
X446621Y450116D01*
X446661Y450109D01*
X446755Y450083D01*
X446850Y450047D01*
X446897Y450025D01*
X446944Y449999D01*
X446988Y449967D01*
X447028Y449930D01*
X447032Y449927D01*
X447039Y449923D01*
X447046Y449908D01*
X447061Y449894D01*
X447079Y449876D01*
X447097Y449850D01*
X447116Y449825D01*
X447137Y449792D01*
X447174Y449723D01*
X447210Y449635D01*
X447225Y449592D01*
X447232Y449541D01*
X447239Y449490D01*
X447243Y449435D01*
Y449428D01*
Y449410D01*
X447239Y449381D01*
X447236Y449341D01*
X447228Y449297D01*
X447214Y449246D01*
X447199Y449191D01*
X447177Y449137D01*
X447174Y449129D01*
X447166Y449111D01*
X447152Y449082D01*
X447130Y449042D01*
X447101Y448998D01*
X447064Y448944D01*
X447021Y448889D01*
X446970Y448827D01*
X446963Y448820D01*
X446944Y448798D01*
X446926Y448780D01*
X446908Y448762D01*
X446886Y448740D01*
X446857Y448711D01*
X446828Y448682D01*
X446792Y448649D01*
X446755Y448613D01*
X446711Y448572D01*
X446664Y448532D01*
X446613Y448485D01*
X446555Y448438D01*
X446497Y448387D01*
X446493Y448383D01*
X446486Y448376D01*
X446471Y448365D01*
X446453Y448350D01*
X446431Y448329D01*
X446406Y448307D01*
X446348Y448259D01*
X446286Y448205D01*
X446227Y448150D01*
X446176Y448103D01*
X446155Y448085D01*
X446136Y448067D01*
X446133Y448063D01*
X446122Y448052D01*
X446107Y448037D01*
X446089Y448016D01*
X446071Y447990D01*
X446049Y447965D01*
X446005Y447903D01*
X447247D01*
Y447604D01*
X445576D01*
Y447608D01*
Y447622D01*
Y447644D01*
X445579Y447674D01*
X445583Y447706D01*
X445590Y447743D01*
X445598Y447779D01*
X445612Y447819D01*
Y447823D01*
X445616Y447826D01*
X445623Y447848D01*
X445638Y447881D01*
X445659Y447925D01*
X445689Y447976D01*
X445725Y448034D01*
X445765Y448092D01*
X445816Y448154D01*
Y448158D01*
X445823Y448161D01*
X445842Y448183D01*
X445874Y448216D01*
X445922Y448263D01*
X445976Y448318D01*
X446045Y448383D01*
X446129Y448456D01*
X446220Y448532D01*
X446224Y448536D01*
X446238Y448547D01*
X446260Y448565D01*
X446286Y448587D01*
X446318Y448616D01*
X446358Y448649D01*
X446398Y448685D01*
X446446Y448725D01*
X446537Y448813D01*
X446628Y448900D01*
X446671Y448944D01*
X446711Y448987D01*
X446748Y449027D01*
X446777Y449068D01*
Y449071D01*
X446784Y449075D01*
X446792Y449086D01*
X446799Y449100D01*
X446824Y449140D01*
X446853Y449188D01*
X446879Y449246D01*
X446904Y449308D01*
X446919Y449377D01*
X446926Y449442D01*
Y449446D01*
Y449450D01*
X446923Y449472D01*
X446919Y449508D01*
X446908Y449548D01*
X446894Y449599D01*
X446868Y449650D01*
X446835Y449701D01*
X446792Y449752D01*
X446784Y449759D01*
X446766Y449774D01*
X446741Y449792D01*
X446701Y449817D01*
X446650Y449839D01*
X446591Y449861D01*
X446522Y449876D01*
X446446Y449879D01*
X446424D01*
X446409Y449876D01*
X446366Y449872D01*
X446315Y449861D01*
X446260Y449847D01*
X446198Y449821D01*
X446140Y449788D01*
X446085Y449745D01*
X446078Y449737D01*
X446064Y449719D01*
X446042Y449690D01*
X446020Y449646D01*
X445994Y449595D01*
X445972Y449530D01*
X445958Y449457D01*
X445951Y449373D01*
X445634Y449406D01*
Y449410D01*
X445638Y449421D01*
Y449439D01*
X445641Y449464D01*
X445649Y449494D01*
X445656Y449526D01*
X445667Y449566D01*
X445678Y449606D01*
X445707Y449694D01*
X445751Y449781D01*
X445776Y449825D01*
X445809Y449868D01*
X445842Y449908D01*
X445878Y449945D01*
X445882Y449949D01*
X445889Y449952D01*
X445900Y449963D01*
X445918Y449974D01*
X445940Y449989D01*
X445965Y450003D01*
X445994Y450021D01*
X446031Y450039D01*
X446071Y450058D01*
X446114Y450076D01*
X446162Y450090D01*
X446213Y450105D01*
X446267Y450116D01*
X446326Y450127D01*
X446387Y450131D01*
X446453Y450134D01*
X446489D01*
X446515Y450131D01*
D02*
G37*
G36*
X438878Y449468D02*
X438907Y449464D01*
X438944Y449457D01*
X438984Y449450D01*
X439031Y449439D01*
X439075Y449428D01*
X439126Y449410D01*
X439173Y449392D01*
X439224Y449366D01*
X439275Y449337D01*
X439326Y449304D01*
X439373Y449264D01*
X439417Y449221D01*
X439421Y449217D01*
X439428Y449210D01*
X439439Y449195D01*
X439453Y449173D01*
X439471Y449148D01*
X439490Y449119D01*
X439511Y449082D01*
X439533Y449039D01*
X439555Y448991D01*
X439577Y448940D01*
X439595Y448882D01*
X439613Y448820D01*
X439628Y448751D01*
X439639Y448678D01*
X439646Y448602D01*
X439650Y448518D01*
Y448514D01*
Y448500D01*
Y448474D01*
X439646Y448438D01*
X438281D01*
Y448434D01*
Y448423D01*
X438285Y448409D01*
Y448387D01*
X438288Y448361D01*
X438296Y448332D01*
X438307Y448267D01*
X438329Y448194D01*
X438358Y448114D01*
X438398Y448041D01*
X438449Y447976D01*
X438452D01*
X438456Y447968D01*
X438478Y447950D01*
X438511Y447925D01*
X438554Y447899D01*
X438613Y447870D01*
X438678Y447845D01*
X438751Y447826D01*
X438791Y447823D01*
X438834Y447819D01*
X438864D01*
X438896Y447823D01*
X438936Y447830D01*
X438980Y447841D01*
X439031Y447856D01*
X439078Y447877D01*
X439126Y447906D01*
X439129Y447910D01*
X439148Y447925D01*
X439169Y447947D01*
X439195Y447976D01*
X439224Y448016D01*
X439257Y448067D01*
X439290Y448125D01*
X439319Y448194D01*
X439639Y448154D01*
Y448150D01*
X439635Y448143D01*
X439632Y448129D01*
X439624Y448107D01*
X439613Y448085D01*
X439603Y448056D01*
X439573Y447994D01*
X439537Y447925D01*
X439486Y447852D01*
X439428Y447783D01*
X439355Y447717D01*
X439351D01*
X439344Y447710D01*
X439333Y447703D01*
X439319Y447692D01*
X439297Y447681D01*
X439275Y447670D01*
X439246Y447655D01*
X439213Y447641D01*
X439177Y447626D01*
X439140Y447612D01*
X439049Y447590D01*
X438947Y447572D01*
X438834Y447564D01*
X438795D01*
X438769Y447568D01*
X438736Y447572D01*
X438696Y447579D01*
X438653Y447586D01*
X438605Y447593D01*
X438503Y447622D01*
X438449Y447644D01*
X438398Y447666D01*
X438343Y447695D01*
X438292Y447728D01*
X438245Y447764D01*
X438198Y447808D01*
X438194Y447812D01*
X438187Y447819D01*
X438176Y447834D01*
X438161Y447856D01*
X438143Y447881D01*
X438125Y447910D01*
X438103Y447947D01*
X438081Y447987D01*
X438059Y448034D01*
X438037Y448085D01*
X438019Y448143D01*
X438001Y448205D01*
X437986Y448270D01*
X437976Y448343D01*
X437968Y448420D01*
X437964Y448500D01*
Y448503D01*
Y448522D01*
Y448543D01*
X437968Y448576D01*
X437972Y448616D01*
X437976Y448660D01*
X437983Y448711D01*
X437994Y448762D01*
X438023Y448878D01*
X438041Y448937D01*
X438063Y448998D01*
X438092Y449057D01*
X438125Y449111D01*
X438161Y449166D01*
X438201Y449217D01*
X438205Y449221D01*
X438212Y449228D01*
X438227Y449239D01*
X438245Y449257D01*
X438267Y449275D01*
X438296Y449297D01*
X438329Y449322D01*
X438369Y449344D01*
X438409Y449370D01*
X438456Y449392D01*
X438507Y449413D01*
X438561Y449432D01*
X438620Y449450D01*
X438682Y449461D01*
X438747Y449468D01*
X438816Y449472D01*
X438853D01*
X438878Y449468D01*
D02*
G37*
%LPC*%
G36*
X437828Y336550D02*
X437715D01*
X437711D01*
X437708D01*
X437690D01*
X437657D01*
X437613Y336547D01*
X437566D01*
X437508Y336543D01*
X437446Y336539D01*
X437377Y336532D01*
X437238Y336514D01*
X437169Y336503D01*
X437104Y336488D01*
X437042Y336474D01*
X436983Y336452D01*
X436933Y336430D01*
X436889Y336405D01*
X436885D01*
X436881Y336397D01*
X436871Y336390D01*
X436856Y336379D01*
X436823Y336346D01*
X436783Y336306D01*
X436747Y336252D01*
X436714Y336190D01*
X436699Y336157D01*
X436689Y336121D01*
X436685Y336081D01*
X436681Y336041D01*
Y336019D01*
X436685Y336004D01*
X436692Y335964D01*
X436703Y335917D01*
X436725Y335862D01*
X436758Y335804D01*
X436780Y335775D01*
X436801Y335746D01*
X436831Y335720D01*
X436863Y335695D01*
X436867D01*
X436874Y335688D01*
X436889Y335680D01*
X436907Y335669D01*
X436936Y335659D01*
X436969Y335644D01*
X437009Y335633D01*
X437056Y335618D01*
X437111Y335604D01*
X437173Y335589D01*
X437242Y335575D01*
X437318Y335564D01*
X437406Y335553D01*
X437500Y335546D01*
X437602Y335542D01*
X437715Y335538D01*
X437722D01*
X437741D01*
X437773D01*
X437817Y335542D01*
X437864D01*
X437923Y335546D01*
X437985Y335549D01*
X438050Y335557D01*
X438192Y335575D01*
X438261Y335586D01*
X438327Y335600D01*
X438388Y335615D01*
X438447Y335637D01*
X438498Y335659D01*
X438541Y335684D01*
X438545D01*
X438549Y335691D01*
X438574Y335709D01*
X438607Y335742D01*
X438643Y335782D01*
X438680Y335837D01*
X438713Y335899D01*
X438738Y335968D01*
X438742Y336004D01*
X438745Y336044D01*
Y336066D01*
X438742Y336081D01*
X438734Y336117D01*
X438720Y336168D01*
X438694Y336223D01*
X438658Y336284D01*
X438636Y336314D01*
X438607Y336343D01*
X438578Y336372D01*
X438541Y336401D01*
X438538D01*
X438530Y336408D01*
X438519Y336416D01*
X438501Y336423D01*
X438476Y336437D01*
X438443Y336448D01*
X438407Y336463D01*
X438363Y336477D01*
X438308Y336488D01*
X438250Y336503D01*
X438181Y336518D01*
X438108Y336528D01*
X438021Y336536D01*
X437930Y336543D01*
X437828Y336550D01*
D02*
G37*
G36*
X490914Y369671D02*
X490910D01*
X490907D01*
X490885Y369667D01*
X490852Y369664D01*
X490808Y369656D01*
X490765Y369638D01*
X490714Y369616D01*
X490666Y369583D01*
X490619Y369540D01*
X490615Y369532D01*
X490601Y369514D01*
X490583Y369485D01*
X490561Y369438D01*
X490539Y369383D01*
X490521Y369310D01*
X490506Y369227D01*
X490503Y369128D01*
Y368335D01*
X491336D01*
Y369085D01*
X491332Y369128D01*
X491329Y369179D01*
X491325Y369238D01*
X491318Y369296D01*
X491307Y369354D01*
X491292Y369405D01*
X491289Y369412D01*
X491282Y369427D01*
X491271Y369449D01*
X491256Y369478D01*
X491234Y369511D01*
X491209Y369543D01*
X491176Y369576D01*
X491140Y369602D01*
X491136Y369605D01*
X491121Y369613D01*
X491100Y369623D01*
X491070Y369638D01*
X491038Y369649D01*
X491001Y369660D01*
X490957Y369667D01*
X490914Y369671D01*
D02*
G37*
G36*
X524540Y462950D02*
X524536D01*
X524533D01*
X524511Y462947D01*
X524478Y462943D01*
X524434Y462936D01*
X524391Y462918D01*
X524340Y462896D01*
X524292Y462863D01*
X524245Y462819D01*
X524241Y462812D01*
X524227Y462794D01*
X524209Y462765D01*
X524187Y462717D01*
X524165Y462663D01*
X524147Y462590D01*
X524132Y462506D01*
X524128Y462408D01*
Y461615D01*
X524962D01*
Y462364D01*
X524958Y462408D01*
X524955Y462459D01*
X524951Y462517D01*
X524944Y462575D01*
X524933Y462634D01*
X524918Y462685D01*
X524915Y462692D01*
X524907Y462707D01*
X524897Y462728D01*
X524882Y462757D01*
X524860Y462790D01*
X524835Y462823D01*
X524802Y462856D01*
X524765Y462881D01*
X524762Y462885D01*
X524747Y462892D01*
X524725Y462903D01*
X524696Y462918D01*
X524664Y462928D01*
X524627Y462939D01*
X524583Y462947D01*
X524540Y462950D01*
D02*
G37*
G36*
X534328Y316407D02*
X534215D01*
X534211D01*
X534208D01*
X534190D01*
X534157D01*
X534113Y316404D01*
X534066D01*
X534008Y316400D01*
X533946Y316396D01*
X533877Y316389D01*
X533738Y316371D01*
X533669Y316360D01*
X533604Y316346D01*
X533542Y316331D01*
X533484Y316309D01*
X533432Y316287D01*
X533389Y316262D01*
X533385D01*
X533382Y316254D01*
X533371Y316247D01*
X533356Y316236D01*
X533323Y316203D01*
X533283Y316163D01*
X533247Y316109D01*
X533214Y316047D01*
X533200Y316014D01*
X533189Y315978D01*
X533185Y315938D01*
X533181Y315898D01*
Y315876D01*
X533185Y315861D01*
X533192Y315821D01*
X533203Y315774D01*
X533225Y315719D01*
X533258Y315661D01*
X533280Y315632D01*
X533301Y315603D01*
X533331Y315577D01*
X533363Y315552D01*
X533367D01*
X533374Y315545D01*
X533389Y315537D01*
X533407Y315527D01*
X533436Y315515D01*
X533469Y315501D01*
X533509Y315490D01*
X533556Y315476D01*
X533611Y315461D01*
X533673Y315446D01*
X533742Y315432D01*
X533818Y315421D01*
X533906Y315410D01*
X534000Y315403D01*
X534102Y315399D01*
X534215Y315395D01*
X534222D01*
X534241D01*
X534273D01*
X534317Y315399D01*
X534364D01*
X534423Y315403D01*
X534484Y315406D01*
X534550Y315414D01*
X534692Y315432D01*
X534761Y315443D01*
X534827Y315457D01*
X534889Y315472D01*
X534947Y315494D01*
X534998Y315515D01*
X535041Y315541D01*
X535045D01*
X535049Y315548D01*
X535074Y315566D01*
X535107Y315599D01*
X535143Y315639D01*
X535180Y315694D01*
X535213Y315756D01*
X535238Y315825D01*
X535242Y315861D01*
X535245Y315901D01*
Y315923D01*
X535242Y315938D01*
X535234Y315974D01*
X535220Y316025D01*
X535194Y316080D01*
X535158Y316142D01*
X535136Y316171D01*
X535107Y316200D01*
X535078Y316229D01*
X535041Y316258D01*
X535038D01*
X535031Y316265D01*
X535019Y316273D01*
X535001Y316280D01*
X534976Y316295D01*
X534943Y316305D01*
X534907Y316320D01*
X534863Y316335D01*
X534808Y316346D01*
X534750Y316360D01*
X534681Y316375D01*
X534608Y316386D01*
X534521Y316393D01*
X534430Y316400D01*
X534328Y316407D01*
D02*
G37*
G36*
X442569Y449228D02*
X442551D01*
X442536Y449224D01*
X442500Y449217D01*
X442453Y449206D01*
X442398Y449184D01*
X442340Y449151D01*
X442307Y449129D01*
X442278Y449104D01*
X442249Y449075D01*
X442220Y449042D01*
Y449039D01*
X442212Y449035D01*
X442205Y449024D01*
X442198Y449009D01*
X442187Y448987D01*
X442172Y448966D01*
X442158Y448937D01*
X442147Y448907D01*
X442132Y448871D01*
X442118Y448831D01*
X442107Y448787D01*
X442092Y448740D01*
X442085Y448685D01*
X442078Y448631D01*
X442070Y448572D01*
Y448507D01*
Y448503D01*
Y448492D01*
Y448474D01*
X442074Y448449D01*
Y448420D01*
X442078Y448387D01*
X442089Y448311D01*
X442107Y448223D01*
X442129Y448139D01*
X442165Y448056D01*
X442187Y448019D01*
X442212Y447987D01*
X442220Y447979D01*
X442238Y447961D01*
X442267Y447932D01*
X442307Y447903D01*
X442358Y447874D01*
X442416Y447845D01*
X442482Y447826D01*
X442518Y447823D01*
X442555Y447819D01*
X442576D01*
X442591Y447823D01*
X442627Y447830D01*
X442678Y447841D01*
X442733Y447863D01*
X442791Y447892D01*
X442849Y447935D01*
X442878Y447961D01*
X442908Y447990D01*
Y447994D01*
X442915Y447997D01*
X442922Y448008D01*
X442930Y448023D01*
X442944Y448041D01*
X442955Y448067D01*
X442970Y448092D01*
X442984Y448125D01*
X442995Y448158D01*
X443010Y448201D01*
X443024Y448245D01*
X443035Y448292D01*
X443042Y448347D01*
X443050Y448405D01*
X443057Y448467D01*
Y448532D01*
Y448536D01*
Y448547D01*
Y448565D01*
X443053Y448591D01*
Y448620D01*
X443050Y448653D01*
X443039Y448729D01*
X443020Y448813D01*
X442995Y448897D01*
X442959Y448980D01*
X442937Y449020D01*
X442911Y449053D01*
Y449057D01*
X442904Y449060D01*
X442886Y449082D01*
X442857Y449108D01*
X442817Y449140D01*
X442766Y449173D01*
X442707Y449202D01*
X442642Y449221D01*
X442606Y449224D01*
X442569Y449228D01*
D02*
G37*
G36*
X438820Y449217D02*
X438798D01*
X438784Y449213D01*
X438743Y449210D01*
X438696Y449199D01*
X438638Y449180D01*
X438576Y449155D01*
X438518Y449119D01*
X438460Y449071D01*
X438452Y449064D01*
X438438Y449046D01*
X438412Y449013D01*
X438387Y448969D01*
X438358Y448918D01*
X438332Y448853D01*
X438310Y448776D01*
X438299Y448693D01*
X439322D01*
Y448696D01*
Y448704D01*
X439319Y448714D01*
Y448729D01*
X439311Y448773D01*
X439300Y448820D01*
X439282Y448878D01*
X439264Y448933D01*
X439235Y448987D01*
X439202Y449035D01*
Y449039D01*
X439195Y449042D01*
X439177Y449064D01*
X439144Y449093D01*
X439100Y449126D01*
X439046Y449159D01*
X438980Y449188D01*
X438904Y449210D01*
X438864Y449213D01*
X438820Y449217D01*
D02*
G37*
%LPD*%
D13*
X486685Y345461D02*
X497315D01*
Y390539D01*
X486685D02*
X497315D01*
X486685Y345461D02*
Y390539D01*
X520311Y438740D02*
X530941D01*
Y483819D01*
X520311D02*
X530941D01*
X520311Y438740D02*
Y483819D01*
X530185Y307402D02*
X540815D01*
Y322756D01*
X530185D02*
X540815D01*
X530185Y307402D02*
Y322756D01*
X400169Y395232D02*
Y498579D01*
Y395232D02*
X475760D01*
Y498579D01*
X400169D02*
X475760D01*
M02*
