G04*
G04 #@! TF.GenerationSoftware,Altium Limited,Altium Designer,22.4.2 (48)*
G04*
G04 Layer_Color=8421504*
%FSLAX25Y25*%
%MOIN*%
G70*
G04*
G04 #@! TF.SameCoordinates,D1C75A00-648E-4898-854E-167750E82D76*
G04*
G04*
G04 #@! TF.FilePolarity,Positive*
G04*
G01*
G75*
%ADD15R,0.05512X0.07874*%
%ADD16R,0.05236X0.05236*%
%ADD17R,0.03543X0.07874*%
%ADD18R,0.07874X0.03543*%
D15*
X66929Y299213D02*
D03*
Y271654D02*
D03*
X51181Y299213D02*
D03*
Y271654D02*
D03*
X61024Y212598D02*
D03*
Y240158D02*
D03*
X76772Y212598D02*
D03*
Y240158D02*
D03*
D16*
X156831Y248681D02*
D03*
X149606D02*
D03*
X142382D02*
D03*
X156831Y255906D02*
D03*
X149606D02*
D03*
X142382D02*
D03*
X156831Y263130D02*
D03*
X149606D02*
D03*
X142382D02*
D03*
D17*
X176043Y216496D02*
D03*
X171043D02*
D03*
X166043D02*
D03*
X161043D02*
D03*
X156043D02*
D03*
X151043D02*
D03*
X146043D02*
D03*
X141043D02*
D03*
X136043D02*
D03*
X131043D02*
D03*
D18*
X187008Y285433D02*
D03*
Y280433D02*
D03*
Y275433D02*
D03*
Y270433D02*
D03*
Y265433D02*
D03*
Y260433D02*
D03*
Y255433D02*
D03*
Y250433D02*
D03*
Y245433D02*
D03*
Y240433D02*
D03*
Y235433D02*
D03*
Y230433D02*
D03*
Y225433D02*
D03*
Y220433D02*
D03*
X120079D02*
D03*
Y225433D02*
D03*
Y230433D02*
D03*
Y235433D02*
D03*
Y240433D02*
D03*
Y245433D02*
D03*
Y250433D02*
D03*
Y255433D02*
D03*
Y260433D02*
D03*
Y265433D02*
D03*
Y270433D02*
D03*
Y275433D02*
D03*
Y280433D02*
D03*
Y285433D02*
D03*
M02*
