G04*
G04 #@! TF.GenerationSoftware,Altium Limited,Altium Designer,22.4.2 (48)*
G04*
G04 Layer_Color=128*
%FSLAX25Y25*%
%MOIN*%
G70*
G04*
G04 #@! TF.SameCoordinates,D1C75A00-648E-4898-854E-167750E82D76*
G04*
G04*
G04 #@! TF.FilePolarity,Positive*
G04*
G01*
G75*
%ADD11C,0.00500*%
D11*
X234350Y245374D02*
X240846D01*
X237598Y242126D02*
Y248622D01*
X234350Y260965D02*
X240846D01*
X237598Y257717D02*
Y264213D01*
X234744Y292697D02*
X241240D01*
X237992Y289449D02*
Y295945D01*
X234744Y308287D02*
X241240D01*
X237992Y305039D02*
Y311535D01*
X273819Y98425D02*
X277362D01*
X275590Y96653D02*
Y100197D01*
X273819Y88425D02*
X277362D01*
X275590Y86654D02*
Y90197D01*
X274803Y25591D02*
X278346D01*
X276575Y23819D02*
Y27362D01*
X274803Y15590D02*
X278346D01*
X276575Y13819D02*
Y17362D01*
X114370Y99410D02*
X117913D01*
X116142Y97638D02*
Y101181D01*
X114370Y89410D02*
X117913D01*
X116142Y87638D02*
Y91181D01*
X227461Y135748D02*
X233957D01*
X230709Y132500D02*
Y138996D01*
X227461Y120157D02*
X233957D01*
X230709Y116909D02*
Y123405D01*
X114370Y24606D02*
X117913D01*
X116142Y22835D02*
Y26378D01*
X114370Y14606D02*
X117913D01*
X116142Y12835D02*
Y16378D01*
X76870Y57992D02*
X83366D01*
X80118Y54744D02*
Y61240D01*
X76870Y42401D02*
X83366D01*
X80118Y39154D02*
Y45649D01*
X31594Y108189D02*
X38091D01*
X34843Y104941D02*
Y111437D01*
X31594Y92598D02*
X38091D01*
X34843Y89350D02*
Y95846D01*
X76870Y108189D02*
X83366D01*
X80118Y104941D02*
Y111437D01*
X76870Y92598D02*
X83366D01*
X80118Y89350D02*
Y95846D01*
X136319Y187008D02*
X139272D01*
X137795Y185531D02*
Y188484D01*
X136319Y147638D02*
X139272D01*
X137795Y146161D02*
Y149114D01*
X185531Y147638D02*
X188484D01*
X187008Y146161D02*
Y149114D01*
X185531Y187008D02*
X188484D01*
X187008Y185531D02*
Y188484D01*
X169882Y128937D02*
X172638D01*
X171260Y127559D02*
Y130315D01*
X160039Y128937D02*
X162795D01*
X161417Y127559D02*
Y130315D01*
X244488Y196850D02*
X247638D01*
X246063Y195276D02*
Y198425D01*
X224803Y196850D02*
X227953D01*
X226378Y195276D02*
Y198425D01*
X76732Y147480D02*
X80748D01*
X78740Y145473D02*
Y149488D01*
X76732Y157480D02*
X80748D01*
X78740Y155473D02*
Y159488D01*
X76732Y167480D02*
X80748D01*
X78740Y165472D02*
Y169488D01*
X76732Y177480D02*
X80748D01*
X78740Y175472D02*
Y179488D01*
X3937Y325787D02*
X15748D01*
X9843Y319882D02*
Y331693D01*
X299213Y9843D02*
X311024D01*
X305118Y3937D02*
Y15748D01*
X168876Y190945D02*
X171676D01*
X170276Y189545D02*
Y192345D01*
X77340Y275590D02*
X80140D01*
X78740Y274190D02*
Y276991D01*
X138364Y274606D02*
X141164D01*
X139764Y273206D02*
Y276006D01*
X126553Y246063D02*
X129353D01*
X127953Y244663D02*
Y247463D01*
X164694Y244175D02*
X167494D01*
X166095Y242775D02*
Y245575D01*
M02*
