G04*
G04 #@! TF.GenerationSoftware,Altium Limited,Altium Designer,22.4.2 (48)*
G04*
G04 Layer_Color=8388736*
%FSLAX25Y25*%
%MOIN*%
G70*
G04*
G04 #@! TF.SameCoordinates,D1C75A00-648E-4898-854E-167750E82D76*
G04*
G04*
G04 #@! TF.FilePolarity,Negative*
G04*
G01*
G75*
%ADD16R,0.05236X0.05236*%
%ADD17R,0.03543X0.07874*%
%ADD18R,0.07874X0.03543*%
%ADD19R,0.06102X0.08465*%
%ADD20R,0.09055X0.09055*%
%ADD21C,0.09055*%
%ADD22C,0.06496*%
%ADD23R,0.06496X0.06496*%
%ADD24C,0.04921*%
%ADD25R,0.04921X0.04921*%
%ADD26C,0.04724*%
%ADD27R,0.04724X0.04724*%
%ADD28C,0.05118*%
%ADD29R,0.05118X0.05118*%
%ADD30R,0.06693X0.06693*%
%ADD31C,0.06693*%
%ADD32C,0.06591*%
%ADD33C,0.05591*%
D16*
X156831Y248681D02*
D03*
X149606D02*
D03*
X142382D02*
D03*
X156831Y255906D02*
D03*
X149606D02*
D03*
X142382D02*
D03*
X156831Y263130D02*
D03*
X149606D02*
D03*
X142382D02*
D03*
D17*
X176043Y216496D02*
D03*
X171043D02*
D03*
X166043D02*
D03*
X161043D02*
D03*
X156043D02*
D03*
X151043D02*
D03*
X146043D02*
D03*
X141043D02*
D03*
X136043D02*
D03*
X131043D02*
D03*
D18*
X187008Y285433D02*
D03*
Y280433D02*
D03*
Y275433D02*
D03*
Y270433D02*
D03*
Y265433D02*
D03*
Y260433D02*
D03*
Y255433D02*
D03*
Y250433D02*
D03*
Y245433D02*
D03*
Y240433D02*
D03*
Y235433D02*
D03*
Y230433D02*
D03*
Y225433D02*
D03*
Y220433D02*
D03*
X120079D02*
D03*
Y225433D02*
D03*
Y230433D02*
D03*
Y235433D02*
D03*
Y240433D02*
D03*
Y245433D02*
D03*
Y250433D02*
D03*
Y255433D02*
D03*
Y260433D02*
D03*
Y265433D02*
D03*
Y270433D02*
D03*
Y275433D02*
D03*
Y280433D02*
D03*
Y285433D02*
D03*
D19*
X66929Y299213D02*
D03*
Y271654D02*
D03*
X51181Y299213D02*
D03*
Y271654D02*
D03*
X61024Y212598D02*
D03*
Y240158D02*
D03*
X76772Y212598D02*
D03*
Y240158D02*
D03*
D20*
X237598Y245374D02*
D03*
X237992Y292697D02*
D03*
X230709Y120157D02*
D03*
X80118Y42401D02*
D03*
X34843Y92598D02*
D03*
X80118Y92598D02*
D03*
D21*
X237598Y260965D02*
D03*
X237992Y308287D02*
D03*
X230709Y135748D02*
D03*
X80118Y57992D02*
D03*
X34843Y108189D02*
D03*
X80118Y108189D02*
D03*
D22*
X275590Y98425D02*
D03*
X276575Y25591D02*
D03*
X116142Y99410D02*
D03*
Y24606D02*
D03*
D23*
X275590Y88425D02*
D03*
X276575Y15590D02*
D03*
X116142Y89410D02*
D03*
Y14606D02*
D03*
D24*
X137795Y187008D02*
D03*
X187008D02*
D03*
D25*
X137795Y147638D02*
D03*
X187008D02*
D03*
D26*
X171260Y128937D02*
D03*
D27*
X161417D02*
D03*
D28*
X246063Y196850D02*
D03*
D29*
X226378D02*
D03*
D30*
X78740Y147480D02*
D03*
D31*
Y157480D02*
D03*
Y167480D02*
D03*
Y177480D02*
D03*
D32*
X9843Y325787D02*
D03*
X305118Y9843D02*
D03*
D33*
X170276Y190945D02*
D03*
X78740Y275590D02*
D03*
X139764Y274606D02*
D03*
X127953Y246063D02*
D03*
X166095Y244175D02*
D03*
M02*
