G04*
G04 #@! TF.GenerationSoftware,Altium Limited,Altium Designer,22.4.2 (48)*
G04*
G04 Layer_Color=32768*
%FSLAX25Y25*%
%MOIN*%
G70*
G04*
G04 #@! TF.SameCoordinates,D1C75A00-648E-4898-854E-167750E82D76*
G04*
G04*
G04 #@! TF.FilePolarity,Positive*
G04*
G01*
G75*
%ADD11C,0.00500*%
%ADD43C,0.00394*%
%ADD44C,0.00197*%
D11*
X46654Y266732D02*
Y304134D01*
Y266732D02*
X71457D01*
Y304134D01*
X46654D02*
X71457D01*
X56497Y245079D02*
X81300D01*
Y207677D02*
Y245079D01*
X56497Y207677D02*
X81300D01*
X56497D02*
Y245079D01*
D43*
X243110Y251201D02*
Y255138D01*
X241142Y253169D02*
X245079D01*
X243504Y298524D02*
Y302461D01*
X241535Y300492D02*
X245472D01*
X234252Y127953D02*
X238189D01*
X236220Y125984D02*
Y129921D01*
X83661Y50197D02*
X87598D01*
X85630Y48228D02*
Y52165D01*
X38386Y100394D02*
X42323D01*
X40354Y98425D02*
Y102362D01*
X83661Y100394D02*
X87598D01*
X85630Y98425D02*
Y102362D01*
D44*
X222638Y242224D02*
Y264114D01*
Y242224D02*
X229331D01*
Y237303D02*
Y242224D01*
Y237303D02*
X256890D01*
Y269035D01*
X222638Y264114D02*
X229331D01*
Y269035D01*
X256890D01*
X223031Y289547D02*
Y311437D01*
Y289547D02*
X229724D01*
Y284626D02*
Y289547D01*
Y284626D02*
X257283D01*
Y316358D01*
X223031Y311437D02*
X229724D01*
Y316358D01*
X257283D01*
X222441Y143819D02*
X250000D01*
X222441Y138898D02*
Y143819D01*
X215748Y138898D02*
X222441D01*
X250000Y112087D02*
Y143819D01*
X222441Y112087D02*
X250000D01*
X222441D02*
Y117008D01*
X215748D02*
X222441D01*
X215748D02*
Y138898D01*
X71850Y66063D02*
X99409D01*
X71850Y61142D02*
Y66063D01*
X65157Y61142D02*
X71850D01*
X99409Y34331D02*
Y66063D01*
X71850Y34331D02*
X99409D01*
X71850D02*
Y39252D01*
X65157D02*
X71850D01*
X65157D02*
Y61142D01*
X26575Y116260D02*
X54134D01*
X26575Y111338D02*
Y116260D01*
X19882Y111338D02*
X26575D01*
X54134Y84527D02*
Y116260D01*
X26575Y84527D02*
X54134D01*
X26575D02*
Y89449D01*
X19882D02*
X26575D01*
X19882D02*
Y111338D01*
X71850Y116260D02*
X99409D01*
X71850Y111339D02*
Y116260D01*
X65157Y111339D02*
X71850D01*
X99409Y84528D02*
Y116260D01*
X71850Y84528D02*
X99409D01*
X71850D02*
Y89449D01*
X65157D02*
X71850D01*
X65157D02*
Y111339D01*
X72854Y184114D02*
X84626D01*
Y140846D02*
Y184114D01*
X72854Y140846D02*
X84626D01*
X72854D02*
Y184114D01*
M02*
