G04*
G04 #@! TF.GenerationSoftware,Altium Limited,Altium Designer,22.4.2 (48)*
G04*
G04 Layer_Color=16711935*
%FSLAX25Y25*%
%MOIN*%
G70*
G04*
G04 #@! TF.SameCoordinates,D1C75A00-648E-4898-854E-167750E82D76*
G04*
G04*
G04 #@! TF.FilePolarity,Positive*
G04*
G01*
G75*
%ADD11C,0.00500*%
%ADD43C,0.00394*%
D11*
X46654Y273032D02*
Y297835D01*
X71457D01*
Y273032D02*
Y297835D01*
X46654Y273032D02*
X71457D01*
X56497Y213976D02*
X81300D01*
Y238780D01*
X56497D02*
X81300D01*
X56497Y213976D02*
Y238780D01*
D43*
X229724Y268642D02*
X256496D01*
Y237697D02*
Y268642D01*
X229724Y237697D02*
X256496D01*
X223031Y263720D02*
X229724D01*
X223031Y242618D02*
X229724D01*
Y237697D02*
Y242618D01*
Y263720D02*
Y268642D01*
X223031Y242618D02*
Y263720D01*
X230118Y315965D02*
X256890D01*
Y285020D02*
Y315965D01*
X230118Y285020D02*
X256890D01*
X223425Y311043D02*
X230118D01*
X223425Y289941D02*
X230118D01*
Y285020D02*
Y289941D01*
Y311043D02*
Y315965D01*
X223425Y289941D02*
Y311043D01*
X216142Y117402D02*
Y138504D01*
X222835D02*
Y143425D01*
Y112480D02*
Y117402D01*
X216142D02*
X222835D01*
X216142Y138504D02*
X222835D01*
Y112480D02*
X249606D01*
Y143425D01*
X222835D02*
X249606D01*
X65551Y39646D02*
Y60748D01*
X72244D02*
Y65669D01*
Y34725D02*
Y39646D01*
X65551D02*
X72244D01*
X65551Y60748D02*
X72244D01*
Y34725D02*
X99016D01*
Y65669D01*
X72244D02*
X99016D01*
X20276Y89842D02*
Y110945D01*
X26969D02*
Y115866D01*
Y84921D02*
Y89842D01*
X20276D02*
X26969D01*
X20276Y110945D02*
X26969D01*
Y84921D02*
X53740D01*
Y115866D01*
X26969D02*
X53740D01*
X65551Y89842D02*
Y110945D01*
X72244D02*
Y115866D01*
Y84921D02*
Y89842D01*
X65551D02*
X72244D01*
X65551Y110945D02*
X72244D01*
Y84921D02*
X99016D01*
Y115866D01*
X72244D02*
X99016D01*
X73740Y183228D02*
X83740D01*
Y141732D02*
Y183228D01*
X73740Y141732D02*
X83740D01*
X73740D02*
Y183228D01*
M02*
