G04*
G04 #@! TF.GenerationSoftware,Altium Limited,Altium Designer,22.4.2 (48)*
G04*
G04 Layer_Color=65535*
%FSLAX25Y25*%
%MOIN*%
G70*
G04*
G04 #@! TF.SameCoordinates,D1C75A00-648E-4898-854E-167750E82D76*
G04*
G04*
G04 #@! TF.FilePolarity,Positive*
G04*
G01*
G75*
%ADD10C,0.00984*%
%ADD11C,0.00500*%
%ADD12C,0.00591*%
%ADD13C,0.00787*%
%ADD14C,0.01000*%
D10*
X238091Y235138D02*
G03*
X238091Y235138I-492J0D01*
G01*
X238484Y282461D02*
G03*
X238484Y282461I-492J0D01*
G01*
X231201Y109921D02*
G03*
X231201Y109921I-492J0D01*
G01*
X80610Y32165D02*
G03*
X80610Y32165I-492J0D01*
G01*
X35335Y82362D02*
G03*
X35335Y82362I-492J0D01*
G01*
X80610D02*
G03*
X80610Y82362I-492J0D01*
G01*
X113583Y285138D02*
G03*
X113583Y285138I-492J0D01*
G01*
D11*
X64961Y285433D02*
G03*
X64961Y285433I-5906J0D01*
G01*
X74803Y226378D02*
G03*
X74803Y226378I-5906J0D01*
G01*
X55118Y273031D02*
X62992D01*
X55118Y297835D02*
X62992D01*
X71457Y273031D02*
Y297835D01*
X46654Y290551D02*
Y297835D01*
Y273031D02*
Y290551D01*
X56496Y213976D02*
Y231496D01*
Y238779D01*
X81299Y213976D02*
Y238779D01*
X64961D02*
X72835D01*
X64961Y213976D02*
X72835D01*
D12*
X256890Y196850D02*
G03*
X256890Y196850I-20669J0D01*
G01*
D13*
X256496Y237697D02*
Y268642D01*
X223031Y242618D02*
Y263720D01*
Y242618D02*
X229724D01*
Y237697D02*
Y242618D01*
Y237697D02*
X256496D01*
X223031Y263720D02*
X229724D01*
Y268642D01*
X256496D01*
X256890Y285020D02*
Y315965D01*
X223425Y289941D02*
Y311043D01*
Y289941D02*
X230118D01*
Y285020D02*
Y289941D01*
Y285020D02*
X256890D01*
X223425Y311043D02*
X230118D01*
Y315965D01*
X256890D01*
X270590Y83425D02*
Y103425D01*
Y83425D02*
X280591D01*
Y103425D01*
X270590D02*
X280591D01*
X271575Y10591D02*
Y30591D01*
Y10591D02*
X281575D01*
Y30591D01*
X271575D02*
X281575D01*
X111142Y84409D02*
Y104409D01*
Y84409D02*
X121142D01*
Y104409D01*
X111142D02*
X121142D01*
X222835Y143425D02*
X249606D01*
X222835Y138504D02*
Y143425D01*
X216142Y138504D02*
X222835D01*
Y112480D02*
X249606D01*
X222835D02*
Y117402D01*
X216142D02*
X222835D01*
X216142D02*
Y138504D01*
X249606Y112480D02*
Y143425D01*
X111142Y9606D02*
Y29606D01*
Y9606D02*
X121142D01*
Y29606D01*
X111142D02*
X121142D01*
X72244Y65669D02*
X99016D01*
X72244Y60748D02*
Y65669D01*
X65551Y60748D02*
X72244D01*
Y34725D02*
X99016D01*
X72244D02*
Y39646D01*
X65551D02*
X72244D01*
X65551D02*
Y60748D01*
X99016Y34725D02*
Y65669D01*
X26969Y115866D02*
X53740D01*
X26969Y110945D02*
Y115866D01*
X20276Y110945D02*
X26969D01*
Y84921D02*
X53740D01*
X26969D02*
Y89842D01*
X20276D02*
X26969D01*
X20276D02*
Y110945D01*
X53740Y84921D02*
Y115866D01*
X72244Y115866D02*
X99016D01*
X72244Y110945D02*
Y115866D01*
X65551Y110945D02*
X72244D01*
Y84921D02*
X99016D01*
X72244D02*
Y89842D01*
X65551D02*
X72244D01*
X65551D02*
Y110945D01*
X99016Y84921D02*
Y115866D01*
X132874Y154921D02*
X142717D01*
Y179724D01*
X132874D02*
X142717D01*
X132874Y154921D02*
Y179724D01*
X182087Y154921D02*
Y179724D01*
X191929D01*
Y154921D02*
Y179724D01*
X182087Y154921D02*
X191929D01*
X117913Y288681D02*
Y315118D01*
Y214331D02*
Y217185D01*
X179291Y214331D02*
X189173D01*
X117913D02*
X127795D01*
X189173Y288681D02*
Y315118D01*
Y214331D02*
Y217185D01*
X117913Y315118D02*
X189173D01*
X159252Y132776D02*
Y133858D01*
Y124016D02*
Y125099D01*
Y124016D02*
X173425D01*
Y132776D02*
Y133858D01*
Y124016D02*
Y125099D01*
X159252Y133858D02*
X173425D01*
X219685Y185039D02*
Y208661D01*
X73740Y183228D02*
X83740D01*
Y141732D02*
Y183228D01*
X73740Y141732D02*
X83740D01*
X73740D02*
Y183228D01*
D14*
X261596Y247292D02*
X260940Y247948D01*
X259628D01*
X258972Y247292D01*
Y246636D01*
X259628Y245980D01*
X260940D01*
X261596Y245324D01*
Y244668D01*
X260940Y244012D01*
X259628D01*
X258972Y244668D01*
X265532Y247292D02*
X264876Y247948D01*
X263564D01*
X262908Y247292D01*
Y244668D01*
X263564Y244012D01*
X264876D01*
X265532Y244668D01*
X266844Y247948D02*
Y244012D01*
X269468D01*
X261793Y262646D02*
X261137Y263302D01*
X259825D01*
X259169Y262646D01*
Y261990D01*
X259825Y261334D01*
X261137D01*
X261793Y260678D01*
Y260022D01*
X261137Y259366D01*
X259825D01*
X259169Y260022D01*
X263105Y263302D02*
Y259366D01*
X265073D01*
X265729Y260022D01*
Y262646D01*
X265073Y263302D01*
X263105D01*
X267041Y259366D02*
Y261990D01*
X268353Y263302D01*
X269665Y261990D01*
Y259366D01*
Y261334D01*
X267041D01*
X261760Y294601D02*
X261236Y295126D01*
X260186D01*
X259661Y294601D01*
Y292502D01*
X260186Y291978D01*
X261236D01*
X261760Y292502D01*
Y293552D01*
X260711D01*
X262810Y291978D02*
Y295126D01*
X264384D01*
X264909Y294601D01*
Y293552D01*
X264384Y293027D01*
X262810D01*
X265959Y295126D02*
X267008D01*
X266483D01*
Y291978D01*
X265959D01*
X267008D01*
X270157Y295126D02*
X269107D01*
X268582Y294601D01*
Y292502D01*
X269107Y291978D01*
X270157D01*
X270682Y292502D01*
Y294601D01*
X270157Y295126D01*
X271731Y291453D02*
X273830D01*
X274880Y294601D02*
X275404Y295126D01*
X276454D01*
X276979Y294601D01*
Y294077D01*
X276454Y293552D01*
X275929D01*
X276454D01*
X276979Y293027D01*
Y292502D01*
X276454Y291978D01*
X275404D01*
X274880Y292502D01*
X278028Y294601D02*
X278553Y295126D01*
X279603D01*
X280127Y294601D01*
Y294077D01*
X279603Y293552D01*
X279078D01*
X279603D01*
X280127Y293027D01*
Y292502D01*
X279603Y291978D01*
X278553D01*
X278028Y292502D01*
X261760Y309956D02*
X261236Y310480D01*
X260186D01*
X259661Y309956D01*
Y307857D01*
X260186Y307332D01*
X261236D01*
X261760Y307857D01*
Y308906D01*
X260711D01*
X262810Y307332D02*
Y310480D01*
X264384D01*
X264909Y309956D01*
Y308906D01*
X264384Y308381D01*
X262810D01*
X265959Y310480D02*
X267008D01*
X266483D01*
Y307332D01*
X265959D01*
X267008D01*
X270157Y310480D02*
X269107D01*
X268582Y309956D01*
Y307857D01*
X269107Y307332D01*
X270157D01*
X270682Y307857D01*
Y309956D01*
X270157Y310480D01*
X271731Y306807D02*
X273830D01*
X274880Y309956D02*
X275404Y310480D01*
X276454D01*
X276979Y309956D01*
Y309431D01*
X276454Y308906D01*
X275929D01*
X276454D01*
X276979Y308381D01*
Y307857D01*
X276454Y307332D01*
X275404D01*
X274880Y307857D01*
X279603Y307332D02*
Y310480D01*
X278028Y308906D01*
X280127D01*
X13795Y92863D02*
X16419D01*
X15107Y94175D02*
Y91551D01*
X247063Y189320D02*
X249687D01*
X248375Y190632D02*
Y188008D01*
X64976Y36761D02*
X67600D01*
X66288Y38073D02*
Y35449D01*
X84661Y82036D02*
X87285D01*
X85973Y83348D02*
Y80724D01*
X300445Y208808D02*
X299920Y208283D01*
Y207233D01*
X300445Y206709D01*
X300970D01*
X301494Y207233D01*
Y208283D01*
X302019Y208808D01*
X302544D01*
X303069Y208283D01*
Y207233D01*
X302544Y206709D01*
X303069Y210382D02*
Y211432D01*
X302544Y211956D01*
X301494D01*
X300970Y211432D01*
Y210382D01*
X301494Y209857D01*
X302544D01*
X303069Y210382D01*
X300970Y213006D02*
X302544D01*
X303069Y213531D01*
Y215105D01*
X300970D01*
X303069Y216154D02*
X300970D01*
Y217729D01*
X301494Y218253D01*
X303069D01*
X299920Y221402D02*
X303069D01*
Y219828D01*
X302544Y219303D01*
X301494D01*
X300970Y219828D01*
Y221402D01*
X299920Y225600D02*
X303069D01*
Y227699D01*
Y230323D02*
Y229274D01*
X302544Y228749D01*
X301494D01*
X300970Y229274D01*
Y230323D01*
X301494Y230848D01*
X302019D01*
Y228749D01*
X300970Y231897D02*
X303069Y232947D01*
X300970Y233997D01*
X303069Y236620D02*
Y235571D01*
X302544Y235046D01*
X301494D01*
X300970Y235571D01*
Y236620D01*
X301494Y237145D01*
X302019D01*
Y235046D01*
X303069Y238195D02*
Y239244D01*
Y238719D01*
X299920D01*
Y238195D01*
X303069Y243967D02*
X299920D01*
X300970Y245017D01*
X299920Y246066D01*
X303069D01*
Y247640D02*
Y248690D01*
X302544Y249215D01*
X301494D01*
X300970Y248690D01*
Y247640D01*
X301494Y247116D01*
X302544D01*
X303069Y247640D01*
Y250264D02*
X300970D01*
Y251838D01*
X301494Y252363D01*
X303069D01*
Y253413D02*
Y254462D01*
Y253938D01*
X300970D01*
Y253413D01*
X300445Y256561D02*
X300970D01*
Y256037D01*
Y257086D01*
Y256561D01*
X302544D01*
X303069Y257086D01*
Y259185D02*
Y260235D01*
X302544Y260759D01*
X301494D01*
X300970Y260235D01*
Y259185D01*
X301494Y258660D01*
X302544D01*
X303069Y259185D01*
X300970Y261809D02*
X303069D01*
X302019D01*
X301494Y262334D01*
X300970Y262859D01*
Y263383D01*
X303069Y264958D02*
Y266007D01*
Y265482D01*
X300970D01*
Y264958D01*
X303069Y267581D02*
X300970D01*
Y269156D01*
X301494Y269681D01*
X303069D01*
X304118Y271780D02*
Y272304D01*
X303593Y272829D01*
X300970D01*
Y271255D01*
X301494Y270730D01*
X302544D01*
X303069Y271255D01*
Y272829D01*
X300445Y279126D02*
X299920Y278602D01*
Y277552D01*
X300445Y277027D01*
X300970D01*
X301494Y277552D01*
Y278602D01*
X302019Y279126D01*
X302544D01*
X303069Y278602D01*
Y277552D01*
X302544Y277027D01*
X300970Y280176D02*
X302544D01*
X303069Y280701D01*
Y282275D01*
X303593D01*
X304118Y281750D01*
Y281225D01*
X303069Y282275D02*
X300970D01*
X303069Y283324D02*
Y284899D01*
X302544Y285423D01*
X302019Y284899D01*
Y283849D01*
X301494Y283324D01*
X300970Y283849D01*
Y285423D01*
X300445Y286998D02*
X300970D01*
Y286473D01*
Y287523D01*
Y286998D01*
X302544D01*
X303069Y287523D01*
Y290671D02*
Y289622D01*
X302544Y289097D01*
X301494D01*
X300970Y289622D01*
Y290671D01*
X301494Y291196D01*
X302019D01*
Y289097D01*
X303069Y292245D02*
X300970D01*
Y292770D01*
X301494Y293295D01*
X303069D01*
X301494D01*
X300970Y293820D01*
X301494Y294344D01*
X303069D01*
X64033Y180516D02*
X63377Y181172D01*
X62065D01*
X61409Y180516D01*
Y177892D01*
X62065Y177236D01*
X63377D01*
X64033Y177892D01*
Y179204D01*
X62721D01*
X65345Y177236D02*
Y181172D01*
X67969Y177236D01*
Y181172D01*
X69281D02*
Y177236D01*
X71249D01*
X71905Y177892D01*
Y180516D01*
X71249Y181172D01*
X69281D01*
X61409Y150988D02*
X62065Y151644D01*
X63377D01*
X64033Y150988D01*
Y150332D01*
X63377Y149677D01*
X62721D01*
X63377D01*
X64033Y149021D01*
Y148365D01*
X63377Y147709D01*
X62065D01*
X61409Y148365D01*
X65345Y151644D02*
Y149021D01*
X66657Y147709D01*
X67969Y149021D01*
Y151644D01*
X69281Y150988D02*
X69937Y151644D01*
X71249D01*
X71905Y150988D01*
Y150332D01*
X71249Y149677D01*
X70593D01*
X71249D01*
X71905Y149021D01*
Y148365D01*
X71249Y147709D01*
X69937D01*
X69281Y148365D01*
X61409Y157551D02*
Y161487D01*
X63377D01*
X64033Y160831D01*
Y159519D01*
X63377Y158863D01*
X61409D01*
X62721D02*
X64033Y157551D01*
X65345Y161487D02*
X67969Y157551D01*
Y161487D02*
X65345Y157551D01*
X61409Y171329D02*
X64033D01*
X62721D01*
Y167394D01*
X65345Y171329D02*
X67969Y167394D01*
Y171329D02*
X65345Y167394D01*
X275847Y237647D02*
X274848Y236647D01*
Y234648D01*
X275847Y233648D01*
X276847D01*
X277847Y234648D01*
Y236647D01*
X278846Y237647D01*
X279846D01*
X280846Y236647D01*
Y234648D01*
X279846Y233648D01*
X274848Y239646D02*
X280846D01*
Y242645D01*
X279846Y243645D01*
X275847D01*
X274848Y242645D01*
Y239646D01*
X280846Y245644D02*
X276847D01*
X274848Y247644D01*
X276847Y249643D01*
X280846D01*
X277847D01*
Y245644D01*
X281845Y251642D02*
Y255641D01*
X275847Y261639D02*
X274848Y260640D01*
Y258640D01*
X275847Y257640D01*
X276847D01*
X277847Y258640D01*
Y260640D01*
X278846Y261639D01*
X279846D01*
X280846Y260640D01*
Y258640D01*
X279846Y257640D01*
X275847Y267637D02*
X274848Y266637D01*
Y264638D01*
X275847Y263638D01*
X279846D01*
X280846Y264638D01*
Y266637D01*
X279846Y267637D01*
X274848Y269637D02*
X280846D01*
Y273635D01*
X223654Y321442D02*
Y325441D01*
X225653Y327440D01*
X227653Y325441D01*
Y321442D01*
Y324441D01*
X223654D01*
X229652Y321442D02*
Y325441D01*
X232651D01*
X233651Y324441D01*
Y321442D01*
X236650Y325441D02*
X238649D01*
X239649Y324441D01*
Y321442D01*
X236650D01*
X235650Y322442D01*
X236650Y323442D01*
X239649D01*
X241648Y321442D02*
X243648D01*
X242648D01*
Y327440D01*
X241648D01*
X247646Y321442D02*
X249645D01*
X250645Y322442D01*
Y324441D01*
X249645Y325441D01*
X247646D01*
X246646Y324441D01*
Y322442D01*
X247646Y321442D01*
X254644Y319443D02*
X255644D01*
X256643Y320443D01*
Y325441D01*
X253644D01*
X252645Y324441D01*
Y322442D01*
X253644Y321442D01*
X256643D01*
X258643Y320443D02*
X262641D01*
X264641Y327440D02*
X266640D01*
X265640D01*
Y321442D01*
X264641D01*
X266640D01*
X269639D02*
Y325441D01*
X272638D01*
X273638Y324441D01*
Y321442D01*
X275637Y319443D02*
Y325441D01*
X278636D01*
X279636Y324441D01*
Y322442D01*
X278636Y321442D01*
X275637D01*
X281635Y325441D02*
Y322442D01*
X282635Y321442D01*
X285634D01*
Y325441D01*
X288633Y326441D02*
Y325441D01*
X287633D01*
X289633D01*
X288633D01*
Y322442D01*
X289633Y321442D01*
X292632D02*
X295631D01*
X296630Y322442D01*
X295631Y323442D01*
X293631D01*
X292632Y324441D01*
X293631Y325441D01*
X296630D01*
X283863Y102230D02*
X284912D01*
X284387D01*
Y99082D01*
X283863D01*
X284912D01*
X286486D02*
Y102230D01*
X288585Y99082D01*
Y102230D01*
X289635Y98557D02*
X291734D01*
X292784Y102230D02*
Y99082D01*
X294358D01*
X294883Y99607D01*
Y100131D01*
X294358Y100656D01*
X292784D01*
X294358D01*
X294883Y101181D01*
Y101706D01*
X294358Y102230D01*
X292784D01*
X295932Y101181D02*
Y99607D01*
X296457Y99082D01*
X298031D01*
Y101181D01*
X301180D02*
X299605D01*
X299081Y100656D01*
Y99607D01*
X299605Y99082D01*
X301180D01*
X302229D02*
Y102230D01*
Y100131D02*
X303804Y101181D01*
X302229Y100131D02*
X303804Y99082D01*
X305378Y98557D02*
X307477D01*
X308526Y100656D02*
X310626D01*
X238587Y17585D02*
X239636D01*
X239112D01*
Y14436D01*
X238587D01*
X239636D01*
X241211D02*
Y17585D01*
X243310Y14436D01*
Y17585D01*
X244359Y13911D02*
X246459D01*
X247508Y17585D02*
Y14436D01*
X249082D01*
X249607Y14961D01*
Y15486D01*
X249082Y16010D01*
X247508D01*
X249082D01*
X249607Y16535D01*
Y17060D01*
X249082Y17585D01*
X247508D01*
X250657Y16535D02*
Y14961D01*
X251181Y14436D01*
X252756D01*
Y16535D01*
X255904D02*
X254330D01*
X253805Y16010D01*
Y14961D01*
X254330Y14436D01*
X255904D01*
X256954D02*
Y17585D01*
Y15486D02*
X258528Y16535D01*
X256954Y15486D02*
X258528Y14436D01*
X260102Y13911D02*
X262201D01*
X263251Y16010D02*
X265350D01*
X264300Y17060D02*
Y14961D01*
X112608Y111089D02*
X111558D01*
X111033Y110564D01*
Y108465D01*
X111558Y107940D01*
X112608D01*
X113133Y108465D01*
Y110564D01*
X112608Y111089D01*
X114182D02*
Y108465D01*
X114707Y107940D01*
X115756D01*
X116281Y108465D01*
Y111089D01*
X117331D02*
X119430D01*
X118380D01*
Y107940D01*
X120479Y107415D02*
X122578D01*
X123628Y111089D02*
Y107940D01*
X125202D01*
X125727Y108465D01*
Y108990D01*
X125202Y109514D01*
X123628D01*
X125202D01*
X125727Y110039D01*
Y110564D01*
X125202Y111089D01*
X123628D01*
X126777Y110039D02*
Y108465D01*
X127301Y107940D01*
X128876D01*
Y110039D01*
X132024D02*
X130450D01*
X129925Y109514D01*
Y108465D01*
X130450Y107940D01*
X132024D01*
X133074D02*
Y111089D01*
Y108990D02*
X134648Y110039D01*
X133074Y108990D02*
X134648Y107940D01*
X136222Y107415D02*
X138321D01*
X141470Y110564D02*
X140945Y111089D01*
X139896D01*
X139371Y110564D01*
Y108465D01*
X139896Y107940D01*
X140945D01*
X141470Y108465D01*
X143044Y107940D02*
X144094D01*
X144618Y108465D01*
Y109514D01*
X144094Y110039D01*
X143044D01*
X142519Y109514D01*
Y108465D01*
X143044Y107940D01*
X145668D02*
Y110039D01*
X147242D01*
X147767Y109514D01*
Y107940D01*
X148817Y110039D02*
X149866Y107940D01*
X150916Y110039D01*
X153540Y107940D02*
X152490D01*
X151965Y108465D01*
Y109514D01*
X152490Y110039D01*
X153540D01*
X154064Y109514D01*
Y108990D01*
X151965D01*
X155114Y110039D02*
Y107940D01*
Y108990D01*
X155639Y109514D01*
X156163Y110039D01*
X156688D01*
X158787Y110564D02*
Y110039D01*
X158262D01*
X159312D01*
X158787D01*
Y108465D01*
X159312Y107940D01*
X162460D02*
X161411D01*
X160886Y108465D01*
Y109514D01*
X161411Y110039D01*
X162460D01*
X162985Y109514D01*
Y108990D01*
X160886D01*
X164035Y110039D02*
Y107940D01*
Y108990D01*
X164560Y109514D01*
X165084Y110039D01*
X165609D01*
X167183Y107415D02*
X169282D01*
X170332Y109514D02*
X172431D01*
X205698Y144741D02*
Y149464D01*
X208060D01*
X208847Y148677D01*
Y147102D01*
X208060Y146315D01*
X205698D01*
X211209Y144741D02*
X212783D01*
X213570Y145528D01*
Y147102D01*
X212783Y147889D01*
X211209D01*
X210421Y147102D01*
Y145528D01*
X211209Y144741D01*
X215144Y147889D02*
Y145528D01*
X215932Y144741D01*
X216719Y145528D01*
X217506Y144741D01*
X218293Y145528D01*
Y147889D01*
X222229Y144741D02*
X220654D01*
X219867Y145528D01*
Y147102D01*
X220654Y147889D01*
X222229D01*
X223016Y147102D01*
Y146315D01*
X219867D01*
X224590Y147889D02*
Y144741D01*
Y146315D01*
X225377Y147102D01*
X226164Y147889D01*
X226952D01*
X229313Y143954D02*
X232462D01*
X234036Y149464D02*
Y144741D01*
Y147102D01*
X237184D01*
Y149464D01*
Y144741D01*
X241120D02*
X239546D01*
X238759Y145528D01*
Y147102D01*
X239546Y147889D01*
X241120D01*
X241907Y147102D01*
Y146315D01*
X238759D01*
X244269Y147889D02*
X245843D01*
X246630Y147102D01*
Y144741D01*
X244269D01*
X243482Y145528D01*
X244269Y146315D01*
X246630D01*
X251353Y149464D02*
Y144741D01*
X248992D01*
X248204Y145528D01*
Y147102D01*
X248992Y147889D01*
X251353D01*
X255289Y144741D02*
X253714D01*
X252927Y145528D01*
Y147102D01*
X253714Y147889D01*
X255289D01*
X256076Y147102D01*
Y146315D01*
X252927D01*
X257650Y147889D02*
Y144741D01*
Y146315D01*
X258437Y147102D01*
X259225Y147889D01*
X260012D01*
X262373Y143954D02*
X265522D01*
X270245Y149464D02*
X267096D01*
Y144741D01*
X270245D01*
X267096Y147102D02*
X268670D01*
X274968Y148677D02*
X274180Y149464D01*
X272606D01*
X271819Y148677D01*
Y147889D01*
X272606Y147102D01*
X274180D01*
X274968Y146315D01*
Y145528D01*
X274180Y144741D01*
X272606D01*
X271819Y145528D01*
X276542Y144741D02*
Y149464D01*
X278903D01*
X279690Y148677D01*
Y147102D01*
X278903Y146315D01*
X276542D01*
X281265Y148677D02*
X282052Y149464D01*
X283626D01*
X284413Y148677D01*
Y147889D01*
X283626Y147102D01*
X282839D01*
X283626D01*
X284413Y146315D01*
Y145528D01*
X283626Y144741D01*
X282052D01*
X281265Y145528D01*
X289136Y144741D02*
X285987D01*
X289136Y147889D01*
Y148677D01*
X288349Y149464D01*
X286775D01*
X285987Y148677D01*
X47647Y16601D02*
X46598D01*
X46073Y16076D01*
Y13977D01*
X46598Y13452D01*
X47647D01*
X48172Y13977D01*
Y16076D01*
X47647Y16601D01*
X49222D02*
Y13977D01*
X49746Y13452D01*
X50796D01*
X51321Y13977D01*
Y16601D01*
X52370D02*
X54469D01*
X53420D01*
Y13452D01*
X55519Y12927D02*
X57618D01*
X58667Y16601D02*
Y13452D01*
X60242D01*
X60766Y13977D01*
Y14501D01*
X60242Y15026D01*
X58667D01*
X60242D01*
X60766Y15551D01*
Y16076D01*
X60242Y16601D01*
X58667D01*
X61816Y15551D02*
Y13977D01*
X62341Y13452D01*
X63915D01*
Y15551D01*
X67063D02*
X65489D01*
X64964Y15026D01*
Y13977D01*
X65489Y13452D01*
X67063D01*
X68113D02*
Y16601D01*
Y14501D02*
X69687Y15551D01*
X68113Y14501D02*
X69687Y13452D01*
X71262Y12927D02*
X73361D01*
X76509Y16076D02*
X75985Y16601D01*
X74935D01*
X74410Y16076D01*
Y13977D01*
X74935Y13452D01*
X75985D01*
X76509Y13977D01*
X78084Y13452D02*
X79133D01*
X79658Y13977D01*
Y15026D01*
X79133Y15551D01*
X78084D01*
X77559Y15026D01*
Y13977D01*
X78084Y13452D01*
X80707D02*
Y15551D01*
X82282D01*
X82806Y15026D01*
Y13452D01*
X83856Y15551D02*
X84905Y13452D01*
X85955Y15551D01*
X88579Y13452D02*
X87529D01*
X87005Y13977D01*
Y15026D01*
X87529Y15551D01*
X88579D01*
X89104Y15026D01*
Y14501D01*
X87005D01*
X90153Y15551D02*
Y13452D01*
Y14501D01*
X90678Y15026D01*
X91203Y15551D01*
X91728D01*
X93827Y16076D02*
Y15551D01*
X93302D01*
X94351D01*
X93827D01*
Y13977D01*
X94351Y13452D01*
X97500D02*
X96450D01*
X95926Y13977D01*
Y15026D01*
X96450Y15551D01*
X97500D01*
X98025Y15026D01*
Y14501D01*
X95926D01*
X99074Y15551D02*
Y13452D01*
Y14501D01*
X99599Y15026D01*
X100124Y15551D01*
X100648D01*
X102223Y12927D02*
X104322D01*
X105371Y15026D02*
X107470D01*
X106421Y16076D02*
Y13977D01*
X16936Y60434D02*
Y65157D01*
X18511Y63582D01*
X20085Y65157D01*
Y60434D01*
X21659D02*
X23234D01*
X22446D01*
Y63582D01*
X21659D01*
X25595D02*
Y60434D01*
Y62008D01*
X26382Y62795D01*
X27169Y63582D01*
X27957D01*
X33467D02*
X31105D01*
X30318Y62795D01*
Y61221D01*
X31105Y60434D01*
X33467D01*
X35828D02*
X37402D01*
X38189Y61221D01*
Y62795D01*
X37402Y63582D01*
X35828D01*
X35041Y62795D01*
Y61221D01*
X35828Y60434D01*
X39764Y58859D02*
Y63582D01*
X42125D01*
X42912Y62795D01*
Y61221D01*
X42125Y60434D01*
X39764D01*
X44486Y65157D02*
Y60434D01*
Y62795D01*
X45274Y63582D01*
X46848D01*
X47635Y62795D01*
Y60434D01*
X49997D02*
X51571D01*
X52358Y61221D01*
Y62795D01*
X51571Y63582D01*
X49997D01*
X49209Y62795D01*
Y61221D01*
X49997Y60434D01*
X53932D02*
Y63582D01*
X56294D01*
X57081Y62795D01*
Y60434D01*
X61017D02*
X59442D01*
X58655Y61221D01*
Y62795D01*
X59442Y63582D01*
X61017D01*
X61804Y62795D01*
Y62008D01*
X58655D01*
X29136Y122440D02*
Y117717D01*
X32285D01*
X37007Y121653D02*
X36220Y122440D01*
X34646D01*
X33859Y121653D01*
Y118504D01*
X34646Y117717D01*
X36220D01*
X37007Y118504D01*
X38582Y122440D02*
Y117717D01*
X40943D01*
X41730Y118504D01*
Y121653D01*
X40943Y122440D01*
X38582D01*
X59260Y121653D02*
X60048Y122440D01*
X61622D01*
X62409Y121653D01*
Y120866D01*
X61622Y120079D01*
X60835D01*
X61622D01*
X62409Y119292D01*
Y118504D01*
X61622Y117717D01*
X60048D01*
X59260Y118504D01*
X63983Y117717D02*
Y118504D01*
X64771D01*
Y117717D01*
X63983D01*
X67919Y121653D02*
X68706Y122440D01*
X70281D01*
X71068Y121653D01*
Y120866D01*
X70281Y120079D01*
X69493D01*
X70281D01*
X71068Y119292D01*
Y118504D01*
X70281Y117717D01*
X68706D01*
X67919Y118504D01*
X75791Y121653D02*
X75003Y122440D01*
X73429D01*
X72642Y121653D01*
Y118504D01*
X73429Y117717D01*
X75003D01*
X75791Y118504D01*
X78152Y117717D02*
X79726D01*
X80514Y118504D01*
Y120079D01*
X79726Y120866D01*
X78152D01*
X77365Y120079D01*
Y118504D01*
X78152Y117717D01*
X82088D02*
Y120866D01*
X84449D01*
X85236Y120079D01*
Y117717D01*
X86811Y120866D02*
X88385Y117717D01*
X89959Y120866D01*
X93895Y117717D02*
X92321D01*
X91533Y118504D01*
Y120079D01*
X92321Y120866D01*
X93895D01*
X94682Y120079D01*
Y119292D01*
X91533D01*
X96256Y120866D02*
Y117717D01*
Y119292D01*
X97044Y120079D01*
X97831Y120866D01*
X98618D01*
X101766Y121653D02*
Y120866D01*
X100979D01*
X102554D01*
X101766D01*
Y118504D01*
X102554Y117717D01*
X107276D02*
X105702D01*
X104915Y118504D01*
Y120079D01*
X105702Y120866D01*
X107276D01*
X108064Y120079D01*
Y119292D01*
X104915D01*
X109638Y120866D02*
Y117717D01*
Y119292D01*
X110425Y120079D01*
X111212Y120866D01*
X111999D01*
X32292Y308071D02*
Y312794D01*
X34654D01*
X35441Y312007D01*
Y310433D01*
X34654Y309646D01*
X32292D01*
X33866D02*
X35441Y308071D01*
X40164Y312794D02*
X37015D01*
Y308071D01*
X40164D01*
X37015Y310433D02*
X38589D01*
X44886Y312007D02*
X44099Y312794D01*
X42525D01*
X41738Y312007D01*
Y311220D01*
X42525Y310433D01*
X44099D01*
X44886Y309646D01*
Y308859D01*
X44099Y308071D01*
X42525D01*
X41738Y308859D01*
X49609Y312794D02*
X46461D01*
Y308071D01*
X49609D01*
X46461Y310433D02*
X48035D01*
X51184Y312794D02*
X54332D01*
X52758D01*
Y308071D01*
X55906Y307284D02*
X59055D01*
X63778Y312007D02*
X62991Y312794D01*
X61417D01*
X60629Y312007D01*
Y311220D01*
X61417Y310433D01*
X62991D01*
X63778Y309646D01*
Y308859D01*
X62991Y308071D01*
X61417D01*
X60629Y308859D01*
X65352Y311220D02*
Y308859D01*
X66139Y308071D01*
X66927Y308859D01*
X67714Y308071D01*
X68501Y308859D01*
Y311220D01*
X70075Y308071D02*
X71649D01*
X70862D01*
Y311220D01*
X70075D01*
X74798Y312007D02*
Y311220D01*
X74011D01*
X75585D01*
X74798D01*
Y308859D01*
X75585Y308071D01*
X81095Y311220D02*
X78734D01*
X77947Y310433D01*
Y308859D01*
X78734Y308071D01*
X81095D01*
X82670Y312794D02*
Y308071D01*
Y310433D01*
X83457Y311220D01*
X85031D01*
X85818Y310433D01*
Y308071D01*
X133045Y193273D02*
Y199271D01*
X136044D01*
X137044Y198271D01*
Y196272D01*
X136044Y195272D01*
X133045D01*
X135045D02*
X137044Y193273D01*
X143042D02*
X139043D01*
X143042Y197272D01*
Y198271D01*
X142042Y199271D01*
X140043D01*
X139043Y198271D01*
X182258Y193273D02*
Y199271D01*
X185257D01*
X186257Y198271D01*
Y196272D01*
X185257Y195272D01*
X182258D01*
X184257D02*
X186257Y193273D01*
X188256D02*
X190255D01*
X189256D01*
Y199271D01*
X188256Y198271D01*
X117493Y327802D02*
X113495D01*
Y321804D01*
X117493D01*
X113495Y324803D02*
X115494D01*
X123491Y326802D02*
X122492Y327802D01*
X120492D01*
X119493Y326802D01*
Y325803D01*
X120492Y324803D01*
X122492D01*
X123491Y323803D01*
Y322804D01*
X122492Y321804D01*
X120492D01*
X119493Y322804D01*
X125491Y321804D02*
Y327802D01*
X128490D01*
X129489Y326802D01*
Y324803D01*
X128490Y323803D01*
X125491D01*
X131489Y326802D02*
X132488Y327802D01*
X134488D01*
X135487Y326802D01*
Y325803D01*
X134488Y324803D01*
X133488D01*
X134488D01*
X135487Y323803D01*
Y322804D01*
X134488Y321804D01*
X132488D01*
X131489Y322804D01*
X141486Y321804D02*
X137487D01*
X141486Y325803D01*
Y326802D01*
X140486Y327802D01*
X138487D01*
X137487Y326802D01*
X143485Y324803D02*
X147484D01*
X149483Y327802D02*
Y321804D01*
X151482Y323803D01*
X153482Y321804D01*
Y327802D01*
X155481Y321804D02*
Y327802D01*
X158480D01*
X159480Y326802D01*
Y324803D01*
X158480Y323803D01*
X155481D01*
X157480D02*
X159480Y321804D01*
X164478Y327802D02*
X162479D01*
X161479Y326802D01*
Y322804D01*
X162479Y321804D01*
X164478D01*
X165478Y322804D01*
Y326802D01*
X164478Y327802D01*
X170476D02*
X168477D01*
X167477Y326802D01*
Y322804D01*
X168477Y321804D01*
X170476D01*
X171476Y322804D01*
Y326802D01*
X170476Y327802D01*
X173475Y321804D02*
Y327802D01*
X175475Y325803D01*
X177474Y327802D01*
Y321804D01*
X179473Y324803D02*
X183472D01*
X185471Y326802D02*
X186471Y327802D01*
X188470D01*
X189470Y326802D01*
Y325803D01*
X188470Y324803D01*
X187471D01*
X188470D01*
X189470Y323803D01*
Y322804D01*
X188470Y321804D01*
X186471D01*
X185471Y322804D01*
X195468Y321804D02*
X191469D01*
X195468Y325803D01*
Y326802D01*
X194468Y327802D01*
X192469D01*
X191469Y326802D01*
X197467Y327802D02*
Y321804D01*
X200466D01*
X201466Y322804D01*
Y326802D01*
X200466Y327802D01*
X197467D01*
X153528Y144716D02*
X152528Y145716D01*
X150529D01*
X149529Y144716D01*
Y140717D01*
X150529Y139717D01*
X152528D01*
X153528Y140717D01*
X159526Y139717D02*
X155527D01*
X159526Y143716D01*
Y144716D01*
X158526Y145716D01*
X156527D01*
X155527Y144716D01*
X220769Y226299D02*
X219769Y227298D01*
X217770D01*
X216770Y226299D01*
Y222300D01*
X217770Y221300D01*
X219769D01*
X220769Y222300D01*
X222768Y221300D02*
X224768D01*
X223768D01*
Y227298D01*
X222768Y226299D01*
X45480Y253739D02*
Y249016D01*
X47842D01*
X48629Y249803D01*
Y250591D01*
X47842Y251378D01*
X45480D01*
X47842D01*
X48629Y252165D01*
Y252952D01*
X47842Y253739D01*
X45480D01*
X52565D02*
X50990D01*
X50203Y252952D01*
Y249803D01*
X50990Y249016D01*
X52565D01*
X53352Y249803D01*
Y252952D01*
X52565Y253739D01*
X57288D02*
X55713D01*
X54926Y252952D01*
Y249803D01*
X55713Y249016D01*
X57288D01*
X58075Y249803D01*
Y252952D01*
X57288Y253739D01*
X59649D02*
X62798D01*
X61223D01*
Y249016D01*
X64372Y248229D02*
X67520D01*
X72243Y252952D02*
X71456Y253739D01*
X69882D01*
X69095Y252952D01*
Y252165D01*
X69882Y251378D01*
X71456D01*
X72243Y250591D01*
Y249803D01*
X71456Y249016D01*
X69882D01*
X69095Y249803D01*
X73818Y252165D02*
Y249803D01*
X74605Y249016D01*
X75392Y249803D01*
X76179Y249016D01*
X76966Y249803D01*
Y252165D01*
X78540Y249016D02*
X80115D01*
X79328D01*
Y252165D01*
X78540D01*
X83263Y252952D02*
Y252165D01*
X82476D01*
X84051D01*
X83263D01*
Y249803D01*
X84051Y249016D01*
X89561Y252165D02*
X87199D01*
X86412Y251378D01*
Y249803D01*
X87199Y249016D01*
X89561D01*
X91135Y253739D02*
Y249016D01*
Y251378D01*
X91922Y252165D01*
X93496D01*
X94283Y251378D01*
Y249016D01*
X55103Y140365D02*
Y134367D01*
X58102D01*
X59101Y135367D01*
Y136366D01*
X58102Y137366D01*
X55103D01*
X58102D01*
X59101Y138366D01*
Y139365D01*
X58102Y140365D01*
X55103D01*
X62100Y134367D02*
X64100D01*
X65099Y135367D01*
Y137366D01*
X64100Y138366D01*
X62100D01*
X61101Y137366D01*
Y135367D01*
X62100Y134367D01*
X68098D02*
X70098D01*
X71097Y135367D01*
Y137366D01*
X70098Y138366D01*
X68098D01*
X67099Y137366D01*
Y135367D01*
X68098Y134367D01*
X74096Y139365D02*
Y138366D01*
X73097D01*
X75096D01*
X74096D01*
Y135367D01*
X75096Y134367D01*
X78095Y133367D02*
X82094D01*
X84093Y134367D02*
Y140365D01*
X87092D01*
X88092Y139365D01*
Y137366D01*
X87092Y136366D01*
X84093D01*
X90091Y134367D02*
X92091D01*
X91091D01*
Y138366D01*
X90091D01*
X95090Y134367D02*
Y138366D01*
X98089D01*
X99088Y137366D01*
Y134367D01*
X101088D02*
X104087D01*
X105086Y135367D01*
X104087Y136366D01*
X102087D01*
X101088Y137366D01*
X102087Y138366D01*
X105086D01*
M02*
