G04*
G04 #@! TF.GenerationSoftware,Altium Limited,Altium Designer,22.4.2 (48)*
G04*
G04 Layer_Color=16711935*
%FSLAX25Y25*%
%MOIN*%
G70*
G04*
G04 #@! TF.SameCoordinates,D1C75A00-648E-4898-854E-167750E82D76*
G04*
G04*
G04 #@! TF.FilePolarity,Positive*
G04*
G01*
G75*
%ADD13C,0.00787*%
G36*
X138536Y169689D02*
X138533D01*
X138518D01*
X138496D01*
X138467Y169693D01*
X138435Y169696D01*
X138398Y169703D01*
X138362Y169711D01*
X138322Y169725D01*
X138318D01*
X138314Y169729D01*
X138293Y169736D01*
X138260Y169751D01*
X138216Y169773D01*
X138165Y169802D01*
X138107Y169838D01*
X138049Y169878D01*
X137987Y169929D01*
X137983D01*
X137979Y169936D01*
X137958Y169955D01*
X137925Y169987D01*
X137878Y170035D01*
X137823Y170089D01*
X137757Y170158D01*
X137685Y170242D01*
X137608Y170333D01*
X137604Y170337D01*
X137594Y170351D01*
X137575Y170373D01*
X137554Y170399D01*
X137524Y170431D01*
X137492Y170471D01*
X137455Y170511D01*
X137415Y170559D01*
X137328Y170650D01*
X137241Y170741D01*
X137197Y170784D01*
X137153Y170825D01*
X137113Y170861D01*
X137073Y170890D01*
X137069D01*
X137066Y170897D01*
X137055Y170905D01*
X137040Y170912D01*
X137000Y170937D01*
X136953Y170966D01*
X136895Y170992D01*
X136833Y171017D01*
X136764Y171032D01*
X136698Y171039D01*
X136695D01*
X136691D01*
X136669Y171036D01*
X136633Y171032D01*
X136593Y171021D01*
X136542Y171007D01*
X136491Y170981D01*
X136440Y170948D01*
X136389Y170905D01*
X136381Y170897D01*
X136367Y170879D01*
X136349Y170854D01*
X136323Y170814D01*
X136301Y170763D01*
X136280Y170704D01*
X136265Y170635D01*
X136261Y170559D01*
Y170537D01*
X136265Y170522D01*
X136269Y170479D01*
X136280Y170428D01*
X136294Y170373D01*
X136320Y170311D01*
X136352Y170253D01*
X136396Y170198D01*
X136403Y170191D01*
X136422Y170177D01*
X136451Y170155D01*
X136494Y170133D01*
X136545Y170107D01*
X136611Y170086D01*
X136684Y170071D01*
X136767Y170064D01*
X136735Y169747D01*
X136731D01*
X136720Y169751D01*
X136702D01*
X136676Y169754D01*
X136647Y169762D01*
X136615Y169769D01*
X136574Y169780D01*
X136534Y169791D01*
X136447Y169820D01*
X136360Y169864D01*
X136316Y169889D01*
X136272Y169922D01*
X136232Y169955D01*
X136196Y169991D01*
X136192Y169995D01*
X136189Y170002D01*
X136178Y170013D01*
X136167Y170031D01*
X136152Y170053D01*
X136138Y170078D01*
X136119Y170107D01*
X136101Y170144D01*
X136083Y170184D01*
X136065Y170228D01*
X136050Y170275D01*
X136036Y170326D01*
X136025Y170380D01*
X136014Y170439D01*
X136010Y170501D01*
X136007Y170566D01*
Y170603D01*
X136010Y170628D01*
X136014Y170657D01*
X136018Y170694D01*
X136025Y170733D01*
X136032Y170774D01*
X136057Y170868D01*
X136094Y170963D01*
X136116Y171010D01*
X136141Y171057D01*
X136174Y171101D01*
X136210Y171141D01*
X136214Y171145D01*
X136218Y171152D01*
X136232Y171159D01*
X136247Y171174D01*
X136265Y171192D01*
X136291Y171210D01*
X136316Y171229D01*
X136349Y171250D01*
X136418Y171287D01*
X136505Y171323D01*
X136549Y171338D01*
X136600Y171345D01*
X136651Y171352D01*
X136706Y171356D01*
X136713D01*
X136731D01*
X136760Y171352D01*
X136800Y171349D01*
X136844Y171341D01*
X136895Y171327D01*
X136949Y171312D01*
X137004Y171290D01*
X137011Y171287D01*
X137029Y171280D01*
X137058Y171265D01*
X137099Y171243D01*
X137142Y171214D01*
X137197Y171178D01*
X137251Y171134D01*
X137313Y171083D01*
X137321Y171076D01*
X137343Y171057D01*
X137361Y171039D01*
X137379Y171021D01*
X137401Y170999D01*
X137430Y170970D01*
X137459Y170941D01*
X137492Y170905D01*
X137528Y170868D01*
X137568Y170825D01*
X137608Y170777D01*
X137655Y170726D01*
X137703Y170668D01*
X137754Y170610D01*
X137757Y170606D01*
X137765Y170599D01*
X137776Y170584D01*
X137790Y170566D01*
X137812Y170544D01*
X137834Y170519D01*
X137881Y170460D01*
X137936Y170399D01*
X137990Y170340D01*
X138038Y170289D01*
X138056Y170268D01*
X138074Y170249D01*
X138078Y170246D01*
X138089Y170235D01*
X138103Y170220D01*
X138125Y170202D01*
X138151Y170184D01*
X138176Y170162D01*
X138238Y170118D01*
Y171360D01*
X138536D01*
Y169689D01*
D02*
G37*
G36*
Y169121D02*
X138012Y168790D01*
X138009D01*
X138001Y168782D01*
X137990Y168775D01*
X137976Y168764D01*
X137936Y168739D01*
X137885Y168706D01*
X137830Y168666D01*
X137772Y168626D01*
X137717Y168586D01*
X137666Y168550D01*
X137663Y168546D01*
X137648Y168535D01*
X137626Y168517D01*
X137601Y168491D01*
X137546Y168437D01*
X137521Y168408D01*
X137499Y168378D01*
X137495Y168375D01*
X137492Y168368D01*
X137484Y168353D01*
X137473Y168331D01*
X137463Y168309D01*
X137452Y168284D01*
X137434Y168226D01*
Y168222D01*
X137430Y168215D01*
Y168200D01*
X137426Y168182D01*
X137423Y168156D01*
Y168127D01*
X137419Y168087D01*
Y167658D01*
X138536D01*
Y167323D01*
X136018D01*
Y168491D01*
X136021Y168520D01*
Y168553D01*
X136025Y168630D01*
X136036Y168710D01*
X136047Y168797D01*
X136065Y168877D01*
X136076Y168917D01*
X136087Y168950D01*
Y168954D01*
X136090Y168957D01*
X136101Y168979D01*
X136116Y169012D01*
X136141Y169052D01*
X136174Y169096D01*
X136218Y169143D01*
X136269Y169186D01*
X136327Y169230D01*
X136330D01*
X136334Y169234D01*
X136356Y169248D01*
X136392Y169263D01*
X136440Y169285D01*
X136494Y169303D01*
X136560Y169321D01*
X136629Y169332D01*
X136706Y169336D01*
X136709D01*
X136716D01*
X136731D01*
X136749Y169332D01*
X136775D01*
X136800Y169328D01*
X136862Y169314D01*
X136935Y169292D01*
X137011Y169263D01*
X137088Y169219D01*
X137124Y169190D01*
X137161Y169161D01*
X137164Y169157D01*
X137168Y169154D01*
X137179Y169143D01*
X137190Y169128D01*
X137204Y169110D01*
X137219Y169088D01*
X137237Y169059D01*
X137259Y169030D01*
X137277Y168994D01*
X137295Y168954D01*
X137317Y168910D01*
X137335Y168863D01*
X137350Y168808D01*
X137368Y168753D01*
X137379Y168692D01*
X137390Y168626D01*
X137393Y168633D01*
X137401Y168648D01*
X137415Y168670D01*
X137430Y168699D01*
X137470Y168764D01*
X137495Y168797D01*
X137517Y168826D01*
X137524Y168833D01*
X137543Y168852D01*
X137572Y168881D01*
X137608Y168917D01*
X137659Y168957D01*
X137714Y169004D01*
X137779Y169052D01*
X137852Y169103D01*
X138536Y169536D01*
Y169121D01*
D02*
G37*
G36*
X187749Y170588D02*
X185780D01*
X185783Y170584D01*
X185798Y170566D01*
X185820Y170544D01*
X185845Y170508D01*
X185878Y170468D01*
X185914Y170417D01*
X185954Y170359D01*
X185995Y170293D01*
Y170289D01*
X185998Y170286D01*
X186013Y170264D01*
X186031Y170228D01*
X186053Y170184D01*
X186078Y170133D01*
X186104Y170078D01*
X186129Y170024D01*
X186151Y169969D01*
X185853D01*
Y169973D01*
X185845Y169980D01*
X185842Y169995D01*
X185831Y170013D01*
X185820Y170035D01*
X185805Y170060D01*
X185769Y170122D01*
X185729Y170195D01*
X185678Y170268D01*
X185620Y170344D01*
X185558Y170421D01*
X185554Y170424D01*
X185550Y170428D01*
X185539Y170439D01*
X185529Y170453D01*
X185492Y170486D01*
X185449Y170530D01*
X185398Y170573D01*
X185339Y170621D01*
X185281Y170661D01*
X185219Y170697D01*
Y170897D01*
X187749D01*
Y170588D01*
D02*
G37*
G36*
Y169121D02*
X187225Y168790D01*
X187221D01*
X187214Y168782D01*
X187203Y168775D01*
X187188Y168764D01*
X187148Y168739D01*
X187097Y168706D01*
X187043Y168666D01*
X186985Y168626D01*
X186930Y168586D01*
X186879Y168550D01*
X186875Y168546D01*
X186861Y168535D01*
X186839Y168517D01*
X186813Y168491D01*
X186759Y168437D01*
X186733Y168407D01*
X186712Y168378D01*
X186708Y168375D01*
X186704Y168368D01*
X186697Y168353D01*
X186686Y168331D01*
X186675Y168309D01*
X186664Y168284D01*
X186646Y168226D01*
Y168222D01*
X186642Y168215D01*
Y168200D01*
X186639Y168182D01*
X186635Y168156D01*
Y168127D01*
X186632Y168087D01*
Y167658D01*
X187749D01*
Y167323D01*
X185230D01*
Y168491D01*
X185234Y168520D01*
Y168553D01*
X185237Y168630D01*
X185248Y168710D01*
X185259Y168797D01*
X185277Y168877D01*
X185288Y168917D01*
X185299Y168950D01*
Y168954D01*
X185303Y168957D01*
X185314Y168979D01*
X185328Y169012D01*
X185354Y169052D01*
X185387Y169096D01*
X185430Y169143D01*
X185481Y169186D01*
X185539Y169230D01*
X185543D01*
X185547Y169234D01*
X185569Y169248D01*
X185605Y169263D01*
X185652Y169285D01*
X185707Y169303D01*
X185773Y169321D01*
X185842Y169332D01*
X185918Y169336D01*
X185922D01*
X185929D01*
X185943D01*
X185962Y169332D01*
X185987D01*
X186013Y169328D01*
X186075Y169314D01*
X186147Y169292D01*
X186224Y169263D01*
X186300Y169219D01*
X186337Y169190D01*
X186373Y169161D01*
X186377Y169157D01*
X186380Y169154D01*
X186391Y169143D01*
X186402Y169128D01*
X186417Y169110D01*
X186431Y169088D01*
X186450Y169059D01*
X186471Y169030D01*
X186489Y168994D01*
X186508Y168954D01*
X186530Y168910D01*
X186548Y168863D01*
X186562Y168808D01*
X186581Y168753D01*
X186591Y168692D01*
X186602Y168626D01*
X186606Y168633D01*
X186613Y168648D01*
X186628Y168670D01*
X186642Y168699D01*
X186682Y168764D01*
X186708Y168797D01*
X186730Y168826D01*
X186737Y168833D01*
X186755Y168852D01*
X186784Y168881D01*
X186821Y168917D01*
X186872Y168957D01*
X186926Y169004D01*
X186992Y169052D01*
X187065Y169103D01*
X187749Y169536D01*
Y169121D01*
D02*
G37*
G36*
X156826Y266441D02*
X156852D01*
X156921Y266434D01*
X156998Y266423D01*
X157078Y266405D01*
X157165Y266383D01*
X157245Y266354D01*
X157249D01*
X157256Y266350D01*
X157267Y266343D01*
X157281Y266336D01*
X157318Y266317D01*
X157365Y266285D01*
X157420Y266248D01*
X157475Y266201D01*
X157525Y266146D01*
X157573Y266084D01*
Y266081D01*
X157576Y266077D01*
X157584Y266066D01*
X157591Y266055D01*
X157609Y266019D01*
X157631Y265972D01*
X157656Y265913D01*
X157675Y265844D01*
X157693Y265771D01*
X157700Y265691D01*
X157380Y265666D01*
Y265669D01*
Y265677D01*
X157376Y265688D01*
X157372Y265706D01*
X157362Y265746D01*
X157347Y265800D01*
X157325Y265859D01*
X157292Y265917D01*
X157252Y265972D01*
X157201Y266022D01*
X157194Y266026D01*
X157176Y266041D01*
X157140Y266063D01*
X157092Y266084D01*
X157030Y266106D01*
X156958Y266128D01*
X156867Y266143D01*
X156765Y266146D01*
X156714D01*
X156692Y266143D01*
X156663Y266139D01*
X156597Y266132D01*
X156524Y266117D01*
X156452Y266099D01*
X156382Y266070D01*
X156353Y266052D01*
X156324Y266033D01*
X156317Y266030D01*
X156302Y266015D01*
X156281Y265990D01*
X156259Y265961D01*
X156233Y265921D01*
X156211Y265877D01*
X156197Y265826D01*
X156190Y265768D01*
Y265760D01*
Y265746D01*
X156193Y265720D01*
X156201Y265691D01*
X156211Y265655D01*
X156230Y265618D01*
X156251Y265582D01*
X156284Y265546D01*
X156288Y265542D01*
X156306Y265531D01*
X156321Y265520D01*
X156335Y265513D01*
X156357Y265502D01*
X156382Y265487D01*
X156415Y265476D01*
X156452Y265462D01*
X156492Y265447D01*
X156539Y265429D01*
X156590Y265415D01*
X156648Y265396D01*
X156714Y265382D01*
X156787Y265364D01*
X156790D01*
X156805Y265360D01*
X156826Y265356D01*
X156852Y265349D01*
X156885Y265342D01*
X156925Y265331D01*
X156965Y265320D01*
X157009Y265309D01*
X157103Y265284D01*
X157194Y265258D01*
X157238Y265244D01*
X157278Y265229D01*
X157314Y265218D01*
X157343Y265203D01*
X157347D01*
X157354Y265200D01*
X157365Y265193D01*
X157380Y265185D01*
X157420Y265163D01*
X157467Y265134D01*
X157522Y265094D01*
X157576Y265051D01*
X157627Y265000D01*
X157671Y264945D01*
X157675Y264938D01*
X157689Y264920D01*
X157704Y264887D01*
X157726Y264843D01*
X157744Y264792D01*
X157762Y264730D01*
X157773Y264661D01*
X157777Y264588D01*
Y264585D01*
Y264581D01*
Y264570D01*
Y264556D01*
X157769Y264516D01*
X157762Y264465D01*
X157747Y264406D01*
X157729Y264345D01*
X157700Y264279D01*
X157660Y264210D01*
Y264206D01*
X157656Y264202D01*
X157638Y264181D01*
X157613Y264148D01*
X157576Y264111D01*
X157529Y264068D01*
X157471Y264020D01*
X157405Y263977D01*
X157329Y263937D01*
X157325D01*
X157318Y263933D01*
X157307Y263930D01*
X157292Y263922D01*
X157271Y263915D01*
X157245Y263904D01*
X157187Y263890D01*
X157118Y263871D01*
X157034Y263853D01*
X156943Y263842D01*
X156845Y263839D01*
X156787D01*
X156757Y263842D01*
X156725D01*
X156688Y263846D01*
X156644Y263849D01*
X156553Y263864D01*
X156459Y263879D01*
X156364Y263904D01*
X156273Y263937D01*
X156270D01*
X156262Y263941D01*
X156251Y263948D01*
X156237Y263955D01*
X156193Y263977D01*
X156142Y264010D01*
X156084Y264053D01*
X156022Y264104D01*
X155964Y264166D01*
X155909Y264235D01*
Y264239D01*
X155902Y264246D01*
X155898Y264257D01*
X155887Y264272D01*
X155880Y264290D01*
X155869Y264312D01*
X155844Y264366D01*
X155818Y264436D01*
X155796Y264512D01*
X155782Y264599D01*
X155775Y264690D01*
X156088Y264719D01*
Y264716D01*
Y264712D01*
X156091Y264701D01*
Y264687D01*
X156098Y264654D01*
X156109Y264607D01*
X156124Y264559D01*
X156139Y264505D01*
X156164Y264454D01*
X156190Y264406D01*
X156193Y264403D01*
X156204Y264388D01*
X156222Y264363D01*
X156251Y264337D01*
X156288Y264304D01*
X156328Y264272D01*
X156382Y264239D01*
X156441Y264210D01*
X156444D01*
X156448Y264206D01*
X156459Y264202D01*
X156470Y264199D01*
X156506Y264188D01*
X156553Y264173D01*
X156612Y264159D01*
X156677Y264148D01*
X156750Y264141D01*
X156830Y264137D01*
X156863D01*
X156899Y264141D01*
X156943Y264144D01*
X156994Y264152D01*
X157052Y264159D01*
X157110Y264173D01*
X157165Y264192D01*
X157172Y264195D01*
X157191Y264202D01*
X157216Y264217D01*
X157249Y264232D01*
X157281Y264257D01*
X157318Y264283D01*
X157354Y264312D01*
X157383Y264348D01*
X157387Y264352D01*
X157394Y264366D01*
X157405Y264385D01*
X157420Y264414D01*
X157434Y264443D01*
X157445Y264479D01*
X157453Y264519D01*
X157456Y264563D01*
Y264566D01*
Y264585D01*
X157453Y264607D01*
X157449Y264636D01*
X157438Y264665D01*
X157427Y264701D01*
X157409Y264738D01*
X157383Y264770D01*
X157380Y264774D01*
X157369Y264785D01*
X157354Y264799D01*
X157329Y264821D01*
X157300Y264843D01*
X157260Y264869D01*
X157212Y264894D01*
X157158Y264916D01*
X157154Y264920D01*
X157136Y264923D01*
X157107Y264934D01*
X157089Y264938D01*
X157063Y264945D01*
X157038Y264956D01*
X157005Y264963D01*
X156968Y264974D01*
X156925Y264985D01*
X156881Y264996D01*
X156830Y265011D01*
X156772Y265025D01*
X156710Y265040D01*
X156706D01*
X156695Y265043D01*
X156677Y265047D01*
X156655Y265054D01*
X156626Y265062D01*
X156594Y265069D01*
X156521Y265091D01*
X156441Y265116D01*
X156357Y265142D01*
X156284Y265167D01*
X156251Y265182D01*
X156222Y265196D01*
X156219D01*
X156215Y265200D01*
X156193Y265214D01*
X156160Y265233D01*
X156124Y265262D01*
X156080Y265295D01*
X156037Y265335D01*
X155993Y265382D01*
X155957Y265433D01*
X155953Y265440D01*
X155942Y265458D01*
X155927Y265487D01*
X155913Y265524D01*
X155898Y265571D01*
X155884Y265626D01*
X155873Y265684D01*
X155869Y265746D01*
Y265750D01*
Y265753D01*
Y265764D01*
Y265779D01*
X155877Y265815D01*
X155884Y265862D01*
X155895Y265917D01*
X155913Y265979D01*
X155938Y266041D01*
X155975Y266103D01*
Y266106D01*
X155978Y266110D01*
X155997Y266132D01*
X156022Y266161D01*
X156055Y266197D01*
X156098Y266237D01*
X156153Y266281D01*
X156219Y266321D01*
X156291Y266357D01*
X156295D01*
X156302Y266361D01*
X156313Y266365D01*
X156328Y266372D01*
X156346Y266379D01*
X156371Y266387D01*
X156426Y266401D01*
X156495Y266416D01*
X156575Y266430D01*
X156659Y266441D01*
X156754Y266445D01*
X156801D01*
X156826Y266441D01*
D02*
G37*
G36*
X181855Y266408D02*
X181903Y266401D01*
X181961Y266390D01*
X182026Y266372D01*
X182092Y266350D01*
X182157Y266321D01*
X182161D01*
X182165Y266317D01*
X182186Y266306D01*
X182219Y266285D01*
X182256Y266259D01*
X182299Y266223D01*
X182343Y266183D01*
X182387Y266135D01*
X182423Y266081D01*
X182427Y266073D01*
X182438Y266055D01*
X182452Y266022D01*
X182470Y265983D01*
X182489Y265935D01*
X182503Y265881D01*
X182514Y265819D01*
X182518Y265757D01*
Y265750D01*
Y265728D01*
X182514Y265699D01*
X182507Y265658D01*
X182496Y265611D01*
X182478Y265560D01*
X182456Y265509D01*
X182427Y265458D01*
X182423Y265451D01*
X182412Y265437D01*
X182390Y265411D01*
X182361Y265382D01*
X182325Y265349D01*
X182281Y265313D01*
X182230Y265280D01*
X182168Y265247D01*
X182172D01*
X182179Y265244D01*
X182190Y265240D01*
X182205Y265236D01*
X182245Y265222D01*
X182296Y265200D01*
X182354Y265171D01*
X182412Y265134D01*
X182467Y265087D01*
X182518Y265033D01*
X182521Y265025D01*
X182536Y265003D01*
X182558Y264967D01*
X182580Y264920D01*
X182601Y264861D01*
X182623Y264792D01*
X182638Y264712D01*
X182641Y264625D01*
Y264621D01*
Y264610D01*
Y264592D01*
X182638Y264570D01*
X182634Y264541D01*
X182627Y264508D01*
X182620Y264472D01*
X182612Y264432D01*
X182583Y264345D01*
X182561Y264297D01*
X182539Y264253D01*
X182510Y264206D01*
X182478Y264159D01*
X182441Y264111D01*
X182397Y264068D01*
X182394Y264064D01*
X182387Y264057D01*
X182372Y264046D01*
X182354Y264031D01*
X182332Y264013D01*
X182303Y263995D01*
X182270Y263973D01*
X182230Y263955D01*
X182190Y263933D01*
X182143Y263911D01*
X182095Y263893D01*
X182041Y263875D01*
X181983Y263860D01*
X181921Y263849D01*
X181859Y263842D01*
X181790Y263839D01*
X181757D01*
X181735Y263842D01*
X181706Y263846D01*
X181673Y263849D01*
X181637Y263857D01*
X181597Y263864D01*
X181509Y263886D01*
X181418Y263922D01*
X181371Y263944D01*
X181327Y263970D01*
X181284Y264002D01*
X181240Y264035D01*
X181236Y264039D01*
X181229Y264046D01*
X181218Y264057D01*
X181207Y264071D01*
X181189Y264090D01*
X181171Y264115D01*
X181149Y264141D01*
X181127Y264173D01*
X181105Y264210D01*
X181084Y264246D01*
X181044Y264334D01*
X181011Y264436D01*
X181000Y264490D01*
X180992Y264548D01*
X181302Y264588D01*
Y264585D01*
X181306Y264577D01*
X181309Y264563D01*
X181313Y264545D01*
X181316Y264523D01*
X181324Y264497D01*
X181342Y264443D01*
X181367Y264377D01*
X181400Y264315D01*
X181437Y264257D01*
X181480Y264206D01*
X181488Y264202D01*
X181502Y264188D01*
X181531Y264170D01*
X181568Y264152D01*
X181611Y264130D01*
X181666Y264111D01*
X181728Y264097D01*
X181793Y264093D01*
X181815D01*
X181830Y264097D01*
X181870Y264101D01*
X181921Y264111D01*
X181979Y264130D01*
X182041Y264155D01*
X182103Y264192D01*
X182161Y264243D01*
X182168Y264250D01*
X182186Y264272D01*
X182208Y264304D01*
X182237Y264348D01*
X182266Y264403D01*
X182288Y264465D01*
X182307Y264537D01*
X182314Y264617D01*
Y264621D01*
Y264628D01*
Y264639D01*
X182310Y264654D01*
X182307Y264694D01*
X182296Y264741D01*
X182281Y264799D01*
X182256Y264858D01*
X182219Y264916D01*
X182172Y264971D01*
X182165Y264978D01*
X182146Y264992D01*
X182117Y265014D01*
X182077Y265040D01*
X182026Y265065D01*
X181964Y265087D01*
X181895Y265102D01*
X181819Y265109D01*
X181786D01*
X181761Y265105D01*
X181728Y265102D01*
X181691Y265094D01*
X181648Y265087D01*
X181600Y265076D01*
X181637Y265349D01*
X181655D01*
X181669Y265346D01*
X181717D01*
X181757Y265353D01*
X181804Y265360D01*
X181859Y265371D01*
X181921Y265389D01*
X181979Y265415D01*
X182041Y265447D01*
X182044D01*
X182048Y265451D01*
X182066Y265466D01*
X182092Y265491D01*
X182121Y265524D01*
X182150Y265571D01*
X182176Y265626D01*
X182194Y265688D01*
X182201Y265724D01*
Y265764D01*
Y265768D01*
Y265771D01*
Y265793D01*
X182194Y265822D01*
X182186Y265862D01*
X182172Y265906D01*
X182154Y265953D01*
X182124Y266001D01*
X182085Y266044D01*
X182081Y266048D01*
X182063Y266063D01*
X182037Y266081D01*
X182004Y266103D01*
X181961Y266121D01*
X181910Y266139D01*
X181851Y266154D01*
X181786Y266157D01*
X181757D01*
X181724Y266150D01*
X181680Y266143D01*
X181633Y266128D01*
X181586Y266110D01*
X181535Y266081D01*
X181488Y266044D01*
X181484Y266041D01*
X181469Y266022D01*
X181448Y265997D01*
X181422Y265961D01*
X181396Y265913D01*
X181371Y265855D01*
X181349Y265786D01*
X181335Y265706D01*
X181025Y265760D01*
Y265764D01*
X181029Y265775D01*
X181033Y265790D01*
X181036Y265811D01*
X181044Y265837D01*
X181054Y265866D01*
X181076Y265935D01*
X181113Y266015D01*
X181156Y266095D01*
X181211Y266172D01*
X181280Y266241D01*
X181284Y266245D01*
X181291Y266248D01*
X181302Y266255D01*
X181316Y266266D01*
X181335Y266281D01*
X181360Y266296D01*
X181386Y266310D01*
X181418Y266328D01*
X181491Y266357D01*
X181575Y266387D01*
X181673Y266405D01*
X181724Y266412D01*
X181815D01*
X181855Y266408D01*
D02*
G37*
G36*
X161322D02*
X161369Y266401D01*
X161427Y266390D01*
X161493Y266372D01*
X161558Y266350D01*
X161624Y266321D01*
X161628D01*
X161631Y266317D01*
X161653Y266306D01*
X161686Y266285D01*
X161722Y266259D01*
X161766Y266223D01*
X161810Y266183D01*
X161853Y266135D01*
X161890Y266081D01*
X161893Y266073D01*
X161904Y266055D01*
X161919Y266022D01*
X161937Y265983D01*
X161955Y265935D01*
X161970Y265881D01*
X161981Y265819D01*
X161984Y265757D01*
Y265750D01*
Y265728D01*
X161981Y265699D01*
X161974Y265658D01*
X161963Y265611D01*
X161944Y265560D01*
X161923Y265509D01*
X161893Y265458D01*
X161890Y265451D01*
X161879Y265437D01*
X161857Y265411D01*
X161828Y265382D01*
X161792Y265349D01*
X161748Y265313D01*
X161697Y265280D01*
X161635Y265247D01*
X161639D01*
X161646Y265244D01*
X161657Y265240D01*
X161671Y265236D01*
X161711Y265222D01*
X161762Y265200D01*
X161821Y265171D01*
X161879Y265134D01*
X161933Y265087D01*
X161984Y265033D01*
X161988Y265025D01*
X162003Y265003D01*
X162024Y264967D01*
X162046Y264920D01*
X162068Y264861D01*
X162090Y264792D01*
X162104Y264712D01*
X162108Y264625D01*
Y264621D01*
Y264610D01*
Y264592D01*
X162104Y264570D01*
X162101Y264541D01*
X162094Y264508D01*
X162086Y264472D01*
X162079Y264432D01*
X162050Y264345D01*
X162028Y264297D01*
X162006Y264253D01*
X161977Y264206D01*
X161944Y264159D01*
X161908Y264111D01*
X161864Y264068D01*
X161861Y264064D01*
X161853Y264057D01*
X161839Y264046D01*
X161821Y264031D01*
X161799Y264013D01*
X161770Y263995D01*
X161737Y263973D01*
X161697Y263955D01*
X161657Y263933D01*
X161609Y263911D01*
X161562Y263893D01*
X161508Y263875D01*
X161449Y263860D01*
X161387Y263849D01*
X161326Y263842D01*
X161256Y263839D01*
X161224D01*
X161202Y263842D01*
X161173Y263846D01*
X161140Y263849D01*
X161103Y263857D01*
X161064Y263864D01*
X160976Y263886D01*
X160885Y263922D01*
X160838Y263944D01*
X160794Y263970D01*
X160750Y264002D01*
X160707Y264035D01*
X160703Y264039D01*
X160696Y264046D01*
X160685Y264057D01*
X160674Y264071D01*
X160656Y264090D01*
X160638Y264115D01*
X160616Y264141D01*
X160594Y264173D01*
X160572Y264210D01*
X160550Y264246D01*
X160510Y264334D01*
X160477Y264436D01*
X160467Y264490D01*
X160459Y264548D01*
X160769Y264588D01*
Y264585D01*
X160772Y264577D01*
X160776Y264563D01*
X160780Y264545D01*
X160783Y264523D01*
X160791Y264497D01*
X160809Y264443D01*
X160834Y264377D01*
X160867Y264315D01*
X160903Y264257D01*
X160947Y264206D01*
X160954Y264202D01*
X160969Y264188D01*
X160998Y264170D01*
X161034Y264152D01*
X161078Y264130D01*
X161133Y264111D01*
X161195Y264097D01*
X161260Y264093D01*
X161282D01*
X161296Y264097D01*
X161337Y264101D01*
X161387Y264111D01*
X161446Y264130D01*
X161508Y264155D01*
X161569Y264192D01*
X161628Y264243D01*
X161635Y264250D01*
X161653Y264272D01*
X161675Y264304D01*
X161704Y264348D01*
X161733Y264403D01*
X161755Y264465D01*
X161773Y264537D01*
X161781Y264617D01*
Y264621D01*
Y264628D01*
Y264639D01*
X161777Y264654D01*
X161773Y264694D01*
X161762Y264741D01*
X161748Y264799D01*
X161722Y264858D01*
X161686Y264916D01*
X161639Y264971D01*
X161631Y264978D01*
X161613Y264992D01*
X161584Y265014D01*
X161544Y265040D01*
X161493Y265065D01*
X161431Y265087D01*
X161362Y265102D01*
X161285Y265109D01*
X161253D01*
X161227Y265105D01*
X161195Y265102D01*
X161158Y265094D01*
X161115Y265087D01*
X161067Y265076D01*
X161103Y265349D01*
X161122D01*
X161136Y265346D01*
X161184D01*
X161224Y265353D01*
X161271Y265360D01*
X161326Y265371D01*
X161387Y265389D01*
X161446Y265415D01*
X161508Y265447D01*
X161511D01*
X161515Y265451D01*
X161533Y265466D01*
X161558Y265491D01*
X161588Y265524D01*
X161617Y265571D01*
X161642Y265626D01*
X161660Y265688D01*
X161668Y265724D01*
Y265764D01*
Y265768D01*
Y265771D01*
Y265793D01*
X161660Y265822D01*
X161653Y265862D01*
X161639Y265906D01*
X161620Y265953D01*
X161591Y266001D01*
X161551Y266044D01*
X161548Y266048D01*
X161529Y266063D01*
X161504Y266081D01*
X161471Y266103D01*
X161427Y266121D01*
X161377Y266139D01*
X161318Y266154D01*
X161253Y266157D01*
X161224D01*
X161191Y266150D01*
X161147Y266143D01*
X161100Y266128D01*
X161053Y266110D01*
X161002Y266081D01*
X160954Y266044D01*
X160951Y266041D01*
X160936Y266022D01*
X160914Y265997D01*
X160889Y265961D01*
X160863Y265913D01*
X160838Y265855D01*
X160816Y265786D01*
X160801Y265706D01*
X160492Y265760D01*
Y265764D01*
X160496Y265775D01*
X160499Y265790D01*
X160503Y265811D01*
X160510Y265837D01*
X160521Y265866D01*
X160543Y265935D01*
X160579Y266015D01*
X160623Y266095D01*
X160678Y266172D01*
X160747Y266241D01*
X160750Y266245D01*
X160758Y266248D01*
X160769Y266255D01*
X160783Y266266D01*
X160801Y266281D01*
X160827Y266296D01*
X160852Y266310D01*
X160885Y266328D01*
X160958Y266357D01*
X161042Y266387D01*
X161140Y266405D01*
X161191Y266412D01*
X161282D01*
X161322Y266408D01*
D02*
G37*
G36*
X180738Y264639D02*
X179780D01*
Y264949D01*
X180738D01*
Y264639D01*
D02*
G37*
G36*
X165293D02*
X164336D01*
Y264949D01*
X165293D01*
Y264639D01*
D02*
G37*
G36*
X179402Y263882D02*
X179081D01*
Y265990D01*
X178346Y263882D01*
X178048D01*
X177320Y266026D01*
Y263882D01*
X176999D01*
Y266401D01*
X177498D01*
X178095Y264614D01*
Y264610D01*
X178099Y264603D01*
X178102Y264592D01*
X178110Y264574D01*
X178124Y264530D01*
X178142Y264475D01*
X178161Y264414D01*
X178182Y264352D01*
X178201Y264294D01*
X178215Y264243D01*
X178219Y264250D01*
X178223Y264268D01*
X178233Y264301D01*
X178248Y264345D01*
X178266Y264403D01*
X178292Y264472D01*
X178317Y264552D01*
X178350Y264647D01*
X178954Y266401D01*
X179402D01*
Y263882D01*
D02*
G37*
G36*
X167990D02*
X167663D01*
X167135Y265800D01*
Y265804D01*
X167131Y265811D01*
X167128Y265822D01*
X167124Y265841D01*
X167113Y265881D01*
X167102Y265928D01*
X167088Y265979D01*
X167073Y266026D01*
X167062Y266066D01*
X167059Y266084D01*
X167055Y266095D01*
Y266092D01*
X167051Y266088D01*
X167048Y266066D01*
X167040Y266033D01*
X167029Y265993D01*
X167018Y265950D01*
X167004Y265899D01*
X166993Y265848D01*
X166979Y265800D01*
X166447Y263882D01*
X166098D01*
X165439Y266401D01*
X165785D01*
X166159Y264749D01*
Y264745D01*
X166163Y264738D01*
X166167Y264723D01*
X166170Y264705D01*
X166174Y264679D01*
X166181Y264654D01*
X166189Y264621D01*
X166196Y264585D01*
X166214Y264508D01*
X166232Y264421D01*
X166251Y264326D01*
X166269Y264232D01*
Y264235D01*
X166272Y264250D01*
X166280Y264268D01*
X166283Y264297D01*
X166290Y264326D01*
X166301Y264363D01*
X166320Y264443D01*
X166341Y264523D01*
X166349Y264563D01*
X166360Y264599D01*
X166367Y264632D01*
X166374Y264661D01*
X166382Y264683D01*
X166385Y264698D01*
X166862Y266401D01*
X167266D01*
X167623Y265124D01*
Y265120D01*
X167630Y265102D01*
X167637Y265076D01*
X167645Y265043D01*
X167656Y265000D01*
X167670Y264952D01*
X167685Y264898D01*
X167699Y264836D01*
X167717Y264767D01*
X167732Y264698D01*
X167765Y264548D01*
X167798Y264392D01*
X167823Y264232D01*
Y264235D01*
X167827Y264243D01*
Y264257D01*
X167834Y264275D01*
X167838Y264297D01*
X167845Y264323D01*
X167849Y264355D01*
X167859Y264392D01*
X167878Y264472D01*
X167899Y264566D01*
X167921Y264668D01*
X167950Y264781D01*
X168343Y266401D01*
X168682D01*
X167990Y263882D01*
D02*
G37*
G36*
X186067Y266397D02*
X186140Y266394D01*
X186212Y266387D01*
X186285Y266376D01*
X186347Y266365D01*
X186351D01*
X186358Y266361D01*
X186369D01*
X186383Y266354D01*
X186423Y266343D01*
X186474Y266325D01*
X186533Y266299D01*
X186594Y266266D01*
X186656Y266230D01*
X186715Y266183D01*
X186718Y266179D01*
X186722Y266175D01*
X186733Y266164D01*
X186747Y266154D01*
X186784Y266117D01*
X186827Y266066D01*
X186875Y266004D01*
X186926Y265932D01*
X186973Y265848D01*
X187013Y265753D01*
Y265750D01*
X187017Y265742D01*
X187024Y265728D01*
X187028Y265706D01*
X187039Y265680D01*
X187046Y265651D01*
X187053Y265618D01*
X187064Y265579D01*
X187075Y265538D01*
X187082Y265491D01*
X187100Y265389D01*
X187111Y265276D01*
X187115Y265153D01*
Y265149D01*
Y265142D01*
Y265124D01*
Y265105D01*
X187111Y265080D01*
Y265051D01*
X187108Y264982D01*
X187097Y264901D01*
X187086Y264818D01*
X187068Y264730D01*
X187046Y264643D01*
Y264639D01*
X187042Y264632D01*
X187039Y264621D01*
X187035Y264607D01*
X187020Y264566D01*
X186998Y264516D01*
X186977Y264457D01*
X186948Y264399D01*
X186911Y264337D01*
X186875Y264279D01*
X186871Y264272D01*
X186856Y264253D01*
X186835Y264228D01*
X186806Y264195D01*
X186773Y264159D01*
X186733Y264122D01*
X186693Y264082D01*
X186645Y264050D01*
X186638Y264046D01*
X186624Y264035D01*
X186598Y264020D01*
X186562Y264002D01*
X186518Y263981D01*
X186467Y263962D01*
X186409Y263941D01*
X186343Y263922D01*
X186336D01*
X186325Y263919D01*
X186314Y263915D01*
X186278Y263911D01*
X186227Y263904D01*
X186169Y263897D01*
X186099Y263890D01*
X186023Y263886D01*
X185939Y263882D01*
X185033D01*
Y266401D01*
X186001D01*
X186067Y266397D01*
D02*
G37*
G36*
X183843Y266408D02*
X183872Y266405D01*
X183908Y266401D01*
X183948Y266394D01*
X183988Y266387D01*
X184083Y266361D01*
X184177Y266325D01*
X184225Y266303D01*
X184272Y266277D01*
X184316Y266245D01*
X184356Y266208D01*
X184360Y266205D01*
X184367Y266201D01*
X184374Y266186D01*
X184389Y266172D01*
X184407Y266154D01*
X184425Y266128D01*
X184443Y266103D01*
X184465Y266070D01*
X184501Y266001D01*
X184538Y265913D01*
X184552Y265870D01*
X184560Y265819D01*
X184567Y265768D01*
X184571Y265713D01*
Y265706D01*
Y265688D01*
X184567Y265658D01*
X184563Y265618D01*
X184556Y265575D01*
X184541Y265524D01*
X184527Y265469D01*
X184505Y265415D01*
X184501Y265407D01*
X184494Y265389D01*
X184480Y265360D01*
X184458Y265320D01*
X184429Y265276D01*
X184392Y265222D01*
X184349Y265167D01*
X184298Y265105D01*
X184290Y265098D01*
X184272Y265076D01*
X184254Y265058D01*
X184236Y265040D01*
X184214Y265018D01*
X184185Y264989D01*
X184156Y264960D01*
X184119Y264927D01*
X184083Y264891D01*
X184039Y264850D01*
X183992Y264810D01*
X183941Y264763D01*
X183883Y264716D01*
X183824Y264665D01*
X183821Y264661D01*
X183814Y264654D01*
X183799Y264643D01*
X183781Y264628D01*
X183759Y264607D01*
X183733Y264585D01*
X183675Y264537D01*
X183613Y264483D01*
X183555Y264428D01*
X183504Y264381D01*
X183482Y264363D01*
X183464Y264345D01*
X183460Y264341D01*
X183449Y264330D01*
X183435Y264315D01*
X183417Y264294D01*
X183398Y264268D01*
X183377Y264243D01*
X183333Y264181D01*
X184574D01*
Y263882D01*
X182904D01*
Y263886D01*
Y263900D01*
Y263922D01*
X182907Y263951D01*
X182911Y263984D01*
X182918Y264020D01*
X182925Y264057D01*
X182940Y264097D01*
Y264101D01*
X182943Y264104D01*
X182951Y264126D01*
X182965Y264159D01*
X182987Y264202D01*
X183016Y264253D01*
X183053Y264312D01*
X183093Y264370D01*
X183144Y264432D01*
Y264436D01*
X183151Y264439D01*
X183169Y264461D01*
X183202Y264494D01*
X183249Y264541D01*
X183304Y264596D01*
X183373Y264661D01*
X183457Y264734D01*
X183548Y264810D01*
X183551Y264814D01*
X183566Y264825D01*
X183588Y264843D01*
X183613Y264865D01*
X183646Y264894D01*
X183686Y264927D01*
X183726Y264963D01*
X183774Y265003D01*
X183864Y265091D01*
X183955Y265178D01*
X183999Y265222D01*
X184039Y265265D01*
X184076Y265305D01*
X184105Y265346D01*
Y265349D01*
X184112Y265353D01*
X184119Y265364D01*
X184126Y265378D01*
X184152Y265418D01*
X184181Y265466D01*
X184207Y265524D01*
X184232Y265586D01*
X184247Y265655D01*
X184254Y265720D01*
Y265724D01*
Y265728D01*
X184250Y265750D01*
X184247Y265786D01*
X184236Y265826D01*
X184221Y265877D01*
X184196Y265928D01*
X184163Y265979D01*
X184119Y266030D01*
X184112Y266037D01*
X184094Y266052D01*
X184068Y266070D01*
X184028Y266095D01*
X183977Y266117D01*
X183919Y266139D01*
X183850Y266154D01*
X183774Y266157D01*
X183752D01*
X183737Y266154D01*
X183693Y266150D01*
X183642Y266139D01*
X183588Y266124D01*
X183526Y266099D01*
X183468Y266066D01*
X183413Y266022D01*
X183406Y266015D01*
X183391Y265997D01*
X183369Y265968D01*
X183348Y265924D01*
X183322Y265873D01*
X183300Y265808D01*
X183286Y265735D01*
X183278Y265651D01*
X182962Y265684D01*
Y265688D01*
X182965Y265699D01*
Y265717D01*
X182969Y265742D01*
X182976Y265771D01*
X182984Y265804D01*
X182994Y265844D01*
X183005Y265884D01*
X183035Y265972D01*
X183078Y266059D01*
X183104Y266103D01*
X183136Y266146D01*
X183169Y266186D01*
X183206Y266223D01*
X183209Y266226D01*
X183217Y266230D01*
X183227Y266241D01*
X183246Y266252D01*
X183267Y266266D01*
X183293Y266281D01*
X183322Y266299D01*
X183359Y266317D01*
X183398Y266336D01*
X183442Y266354D01*
X183490Y266368D01*
X183540Y266383D01*
X183595Y266394D01*
X183653Y266405D01*
X183715Y266408D01*
X183781Y266412D01*
X183817D01*
X183843Y266408D01*
D02*
G37*
G36*
X170196Y266397D02*
X170229D01*
X170305Y266394D01*
X170386Y266383D01*
X170473Y266372D01*
X170553Y266354D01*
X170593Y266343D01*
X170626Y266332D01*
X170629D01*
X170633Y266328D01*
X170655Y266317D01*
X170688Y266303D01*
X170728Y266277D01*
X170771Y266245D01*
X170819Y266201D01*
X170862Y266150D01*
X170906Y266092D01*
Y266088D01*
X170910Y266084D01*
X170924Y266063D01*
X170939Y266026D01*
X170961Y265979D01*
X170979Y265924D01*
X170997Y265859D01*
X171008Y265790D01*
X171012Y265713D01*
Y265709D01*
Y265702D01*
Y265688D01*
X171008Y265669D01*
Y265644D01*
X171004Y265618D01*
X170990Y265557D01*
X170968Y265484D01*
X170939Y265407D01*
X170895Y265331D01*
X170866Y265295D01*
X170837Y265258D01*
X170833Y265254D01*
X170830Y265251D01*
X170819Y265240D01*
X170804Y265229D01*
X170786Y265214D01*
X170764Y265200D01*
X170735Y265182D01*
X170706Y265160D01*
X170669Y265142D01*
X170629Y265124D01*
X170586Y265102D01*
X170538Y265083D01*
X170484Y265069D01*
X170429Y265051D01*
X170367Y265040D01*
X170302Y265029D01*
X170309Y265025D01*
X170324Y265018D01*
X170345Y265003D01*
X170375Y264989D01*
X170440Y264949D01*
X170473Y264923D01*
X170502Y264901D01*
X170509Y264894D01*
X170528Y264876D01*
X170557Y264847D01*
X170593Y264810D01*
X170633Y264759D01*
X170680Y264705D01*
X170728Y264639D01*
X170779Y264566D01*
X171212Y263882D01*
X170797D01*
X170466Y264406D01*
Y264410D01*
X170458Y264417D01*
X170451Y264428D01*
X170440Y264443D01*
X170415Y264483D01*
X170382Y264534D01*
X170342Y264588D01*
X170302Y264647D01*
X170262Y264701D01*
X170225Y264752D01*
X170222Y264756D01*
X170211Y264770D01*
X170193Y264792D01*
X170167Y264818D01*
X170113Y264872D01*
X170083Y264898D01*
X170054Y264920D01*
X170051Y264923D01*
X170043Y264927D01*
X170029Y264934D01*
X170007Y264945D01*
X169985Y264956D01*
X169960Y264967D01*
X169901Y264985D01*
X169898D01*
X169890Y264989D01*
X169876D01*
X169858Y264992D01*
X169832Y264996D01*
X169803D01*
X169763Y265000D01*
X169334D01*
Y263882D01*
X168999D01*
Y266401D01*
X170167D01*
X170196Y266397D01*
D02*
G37*
G36*
X163309Y266408D02*
X163338Y266405D01*
X163375Y266401D01*
X163415Y266394D01*
X163455Y266387D01*
X163550Y266361D01*
X163644Y266325D01*
X163692Y266303D01*
X163739Y266277D01*
X163783Y266245D01*
X163823Y266208D01*
X163826Y266205D01*
X163833Y266201D01*
X163841Y266186D01*
X163855Y266172D01*
X163874Y266154D01*
X163892Y266128D01*
X163910Y266103D01*
X163932Y266070D01*
X163968Y266001D01*
X164005Y265913D01*
X164019Y265870D01*
X164026Y265819D01*
X164034Y265768D01*
X164037Y265713D01*
Y265706D01*
Y265688D01*
X164034Y265658D01*
X164030Y265618D01*
X164023Y265575D01*
X164008Y265524D01*
X163994Y265469D01*
X163972Y265415D01*
X163968Y265407D01*
X163961Y265389D01*
X163946Y265360D01*
X163925Y265320D01*
X163895Y265276D01*
X163859Y265222D01*
X163815Y265167D01*
X163764Y265105D01*
X163757Y265098D01*
X163739Y265076D01*
X163721Y265058D01*
X163702Y265040D01*
X163681Y265018D01*
X163652Y264989D01*
X163622Y264960D01*
X163586Y264927D01*
X163550Y264891D01*
X163506Y264850D01*
X163459Y264810D01*
X163408Y264763D01*
X163349Y264716D01*
X163291Y264665D01*
X163287Y264661D01*
X163280Y264654D01*
X163266Y264643D01*
X163248Y264628D01*
X163226Y264607D01*
X163200Y264585D01*
X163142Y264537D01*
X163080Y264483D01*
X163022Y264428D01*
X162971Y264381D01*
X162949Y264363D01*
X162931Y264345D01*
X162927Y264341D01*
X162916Y264330D01*
X162902Y264315D01*
X162883Y264294D01*
X162865Y264268D01*
X162844Y264243D01*
X162800Y264181D01*
X164041D01*
Y263882D01*
X162370D01*
Y263886D01*
Y263900D01*
Y263922D01*
X162374Y263951D01*
X162378Y263984D01*
X162385Y264020D01*
X162392Y264057D01*
X162407Y264097D01*
Y264101D01*
X162410Y264104D01*
X162418Y264126D01*
X162432Y264159D01*
X162454Y264202D01*
X162483Y264253D01*
X162520Y264312D01*
X162559Y264370D01*
X162610Y264432D01*
Y264436D01*
X162618Y264439D01*
X162636Y264461D01*
X162669Y264494D01*
X162716Y264541D01*
X162771Y264596D01*
X162840Y264661D01*
X162924Y264734D01*
X163014Y264810D01*
X163018Y264814D01*
X163033Y264825D01*
X163055Y264843D01*
X163080Y264865D01*
X163113Y264894D01*
X163153Y264927D01*
X163193Y264963D01*
X163240Y265003D01*
X163331Y265091D01*
X163422Y265178D01*
X163466Y265222D01*
X163506Y265265D01*
X163542Y265305D01*
X163572Y265346D01*
Y265349D01*
X163579Y265353D01*
X163586Y265364D01*
X163593Y265378D01*
X163619Y265418D01*
X163648Y265466D01*
X163673Y265524D01*
X163699Y265586D01*
X163713Y265655D01*
X163721Y265720D01*
Y265724D01*
Y265728D01*
X163717Y265750D01*
X163713Y265786D01*
X163702Y265826D01*
X163688Y265877D01*
X163662Y265928D01*
X163630Y265979D01*
X163586Y266030D01*
X163579Y266037D01*
X163560Y266052D01*
X163535Y266070D01*
X163495Y266095D01*
X163444Y266117D01*
X163386Y266139D01*
X163317Y266154D01*
X163240Y266157D01*
X163218D01*
X163204Y266154D01*
X163160Y266150D01*
X163109Y266139D01*
X163055Y266124D01*
X162993Y266099D01*
X162934Y266066D01*
X162880Y266022D01*
X162873Y266015D01*
X162858Y265997D01*
X162836Y265968D01*
X162814Y265924D01*
X162789Y265873D01*
X162767Y265808D01*
X162752Y265735D01*
X162745Y265651D01*
X162428Y265684D01*
Y265688D01*
X162432Y265699D01*
Y265717D01*
X162436Y265742D01*
X162443Y265771D01*
X162450Y265804D01*
X162461Y265844D01*
X162472Y265884D01*
X162501Y265972D01*
X162545Y266059D01*
X162571Y266103D01*
X162603Y266146D01*
X162636Y266186D01*
X162672Y266223D01*
X162676Y266226D01*
X162683Y266230D01*
X162694Y266241D01*
X162712Y266252D01*
X162734Y266266D01*
X162760Y266281D01*
X162789Y266299D01*
X162825Y266317D01*
X162865Y266336D01*
X162909Y266354D01*
X162956Y266368D01*
X163007Y266383D01*
X163062Y266394D01*
X163120Y266405D01*
X163182Y266408D01*
X163248Y266412D01*
X163284D01*
X163309Y266408D01*
D02*
G37*
G36*
X159324Y266397D02*
X159385Y266394D01*
X159451Y266390D01*
X159513Y266383D01*
X159567Y266376D01*
X159575D01*
X159600Y266368D01*
X159633Y266361D01*
X159677Y266350D01*
X159724Y266332D01*
X159775Y266310D01*
X159829Y266285D01*
X159877Y266255D01*
X159884Y266252D01*
X159899Y266241D01*
X159921Y266219D01*
X159950Y266194D01*
X159982Y266161D01*
X160015Y266117D01*
X160052Y266070D01*
X160081Y266015D01*
X160084Y266008D01*
X160092Y265990D01*
X160106Y265957D01*
X160121Y265913D01*
X160132Y265862D01*
X160146Y265804D01*
X160153Y265739D01*
X160157Y265669D01*
Y265666D01*
Y265655D01*
Y265640D01*
X160153Y265615D01*
X160150Y265589D01*
X160146Y265557D01*
X160139Y265520D01*
X160132Y265480D01*
X160106Y265396D01*
X160092Y265353D01*
X160070Y265305D01*
X160044Y265258D01*
X160019Y265214D01*
X159986Y265171D01*
X159950Y265127D01*
X159946Y265124D01*
X159939Y265116D01*
X159928Y265105D01*
X159910Y265094D01*
X159888Y265076D01*
X159859Y265058D01*
X159822Y265036D01*
X159782Y265018D01*
X159735Y264996D01*
X159680Y264974D01*
X159622Y264956D01*
X159553Y264941D01*
X159480Y264927D01*
X159400Y264916D01*
X159309Y264909D01*
X159214Y264905D01*
X158570D01*
Y263882D01*
X158235D01*
Y266401D01*
X159269D01*
X159324Y266397D01*
D02*
G37*
G36*
X155367Y266103D02*
X153878D01*
Y265335D01*
X155272D01*
Y265036D01*
X153878D01*
Y264181D01*
X155425D01*
Y263882D01*
X153543D01*
Y266401D01*
X155367D01*
Y266103D01*
D02*
G37*
G36*
X175434Y266441D02*
X175467D01*
X175500Y266438D01*
X175543Y266430D01*
X175587Y266423D01*
X175682Y266405D01*
X175791Y266376D01*
X175897Y266332D01*
X175951Y266306D01*
X176006Y266277D01*
X176009Y266274D01*
X176017Y266270D01*
X176031Y266259D01*
X176053Y266248D01*
X176075Y266230D01*
X176104Y266208D01*
X176166Y266157D01*
X176231Y266092D01*
X176304Y266012D01*
X176373Y265917D01*
X176432Y265811D01*
Y265808D01*
X176439Y265797D01*
X176446Y265782D01*
X176453Y265760D01*
X176468Y265731D01*
X176479Y265699D01*
X176494Y265658D01*
X176508Y265615D01*
X176519Y265567D01*
X176533Y265517D01*
X176548Y265458D01*
X176559Y265400D01*
X176574Y265273D01*
X176581Y265134D01*
Y265131D01*
Y265116D01*
Y265098D01*
X176577Y265069D01*
Y265036D01*
X176574Y264996D01*
X176566Y264952D01*
X176563Y264905D01*
X176544Y264799D01*
X176515Y264683D01*
X176475Y264566D01*
X176453Y264508D01*
X176424Y264450D01*
Y264446D01*
X176417Y264436D01*
X176410Y264421D01*
X176395Y264399D01*
X176381Y264374D01*
X176362Y264348D01*
X176311Y264279D01*
X176250Y264206D01*
X176177Y264130D01*
X176089Y264057D01*
X175988Y263991D01*
X175984D01*
X175977Y263984D01*
X175958Y263977D01*
X175936Y263966D01*
X175911Y263955D01*
X175882Y263944D01*
X175846Y263930D01*
X175805Y263915D01*
X175762Y263900D01*
X175715Y263886D01*
X175609Y263864D01*
X175496Y263846D01*
X175376Y263839D01*
X175340D01*
X175318Y263842D01*
X175285D01*
X175249Y263849D01*
X175208Y263853D01*
X175161Y263860D01*
X175063Y263882D01*
X174957Y263911D01*
X174848Y263955D01*
X174794Y263981D01*
X174739Y264010D01*
X174735Y264013D01*
X174728Y264017D01*
X174714Y264028D01*
X174692Y264042D01*
X174670Y264057D01*
X174644Y264079D01*
X174582Y264133D01*
X174513Y264199D01*
X174441Y264279D01*
X174375Y264370D01*
X174313Y264475D01*
Y264479D01*
X174306Y264490D01*
X174299Y264505D01*
X174291Y264527D01*
X174280Y264556D01*
X174269Y264588D01*
X174255Y264625D01*
X174244Y264665D01*
X174229Y264712D01*
X174215Y264759D01*
X174193Y264869D01*
X174178Y264982D01*
X174171Y265105D01*
Y265109D01*
Y265112D01*
Y265134D01*
X174175Y265167D01*
Y265211D01*
X174182Y265262D01*
X174189Y265324D01*
X174200Y265393D01*
X174215Y265466D01*
X174229Y265542D01*
X174251Y265622D01*
X174280Y265702D01*
X174313Y265786D01*
X174349Y265866D01*
X174397Y265946D01*
X174448Y266019D01*
X174506Y266088D01*
X174510Y266092D01*
X174521Y266103D01*
X174542Y266121D01*
X174568Y266143D01*
X174601Y266172D01*
X174641Y266201D01*
X174688Y266234D01*
X174743Y266266D01*
X174801Y266299D01*
X174866Y266332D01*
X174939Y266361D01*
X175016Y266390D01*
X175099Y266412D01*
X175187Y266430D01*
X175278Y266441D01*
X175376Y266445D01*
X175409D01*
X175434Y266441D01*
D02*
G37*
G36*
X172697D02*
X172730D01*
X172762Y266438D01*
X172806Y266430D01*
X172850Y266423D01*
X172944Y266405D01*
X173054Y266376D01*
X173159Y266332D01*
X173214Y266306D01*
X173268Y266277D01*
X173272Y266274D01*
X173279Y266270D01*
X173294Y266259D01*
X173316Y266248D01*
X173338Y266230D01*
X173367Y266208D01*
X173429Y266157D01*
X173494Y266092D01*
X173567Y266012D01*
X173636Y265917D01*
X173694Y265811D01*
Y265808D01*
X173702Y265797D01*
X173709Y265782D01*
X173716Y265760D01*
X173731Y265731D01*
X173742Y265699D01*
X173756Y265658D01*
X173771Y265615D01*
X173782Y265567D01*
X173796Y265517D01*
X173811Y265458D01*
X173822Y265400D01*
X173836Y265273D01*
X173844Y265134D01*
Y265131D01*
Y265116D01*
Y265098D01*
X173840Y265069D01*
Y265036D01*
X173836Y264996D01*
X173829Y264952D01*
X173825Y264905D01*
X173807Y264799D01*
X173778Y264683D01*
X173738Y264566D01*
X173716Y264508D01*
X173687Y264450D01*
Y264446D01*
X173680Y264436D01*
X173672Y264421D01*
X173658Y264399D01*
X173643Y264374D01*
X173625Y264348D01*
X173574Y264279D01*
X173512Y264206D01*
X173440Y264130D01*
X173352Y264057D01*
X173250Y263991D01*
X173247D01*
X173239Y263984D01*
X173221Y263977D01*
X173199Y263966D01*
X173174Y263955D01*
X173145Y263944D01*
X173108Y263930D01*
X173068Y263915D01*
X173024Y263900D01*
X172977Y263886D01*
X172872Y263864D01*
X172759Y263846D01*
X172639Y263839D01*
X172602D01*
X172580Y263842D01*
X172548D01*
X172511Y263849D01*
X172471Y263853D01*
X172424Y263860D01*
X172326Y263882D01*
X172220Y263911D01*
X172111Y263955D01*
X172056Y263981D01*
X172002Y264010D01*
X171998Y264013D01*
X171991Y264017D01*
X171976Y264028D01*
X171954Y264042D01*
X171932Y264057D01*
X171907Y264079D01*
X171845Y264133D01*
X171776Y264199D01*
X171703Y264279D01*
X171638Y264370D01*
X171576Y264475D01*
Y264479D01*
X171569Y264490D01*
X171561Y264505D01*
X171554Y264527D01*
X171543Y264556D01*
X171532Y264588D01*
X171518Y264625D01*
X171507Y264665D01*
X171492Y264712D01*
X171477Y264759D01*
X171456Y264869D01*
X171441Y264982D01*
X171434Y265105D01*
Y265109D01*
Y265112D01*
Y265134D01*
X171438Y265167D01*
Y265211D01*
X171445Y265262D01*
X171452Y265324D01*
X171463Y265393D01*
X171477Y265466D01*
X171492Y265542D01*
X171514Y265622D01*
X171543Y265702D01*
X171576Y265786D01*
X171612Y265866D01*
X171660Y265946D01*
X171711Y266019D01*
X171769Y266088D01*
X171772Y266092D01*
X171783Y266103D01*
X171805Y266121D01*
X171831Y266143D01*
X171863Y266172D01*
X171903Y266201D01*
X171951Y266234D01*
X172005Y266266D01*
X172064Y266299D01*
X172129Y266332D01*
X172202Y266361D01*
X172278Y266390D01*
X172362Y266412D01*
X172449Y266430D01*
X172540Y266441D01*
X172639Y266445D01*
X172671D01*
X172697Y266441D01*
D02*
G37*
G36*
X167587Y131540D02*
X167620Y131536D01*
X167660Y131532D01*
X167700Y131529D01*
X167747Y131518D01*
X167845Y131496D01*
X167955Y131463D01*
X168009Y131441D01*
X168060Y131416D01*
X168111Y131383D01*
X168162Y131350D01*
X168166Y131347D01*
X168173Y131343D01*
X168188Y131332D01*
X168206Y131314D01*
X168224Y131296D01*
X168249Y131270D01*
X168275Y131241D01*
X168304Y131212D01*
X168333Y131176D01*
X168362Y131132D01*
X168395Y131088D01*
X168424Y131041D01*
X168450Y130986D01*
X168479Y130932D01*
X168501Y130873D01*
X168523Y130808D01*
X168195Y130731D01*
Y130735D01*
X168191Y130742D01*
X168184Y130757D01*
X168177Y130775D01*
X168169Y130797D01*
X168158Y130826D01*
X168129Y130884D01*
X168093Y130950D01*
X168049Y131015D01*
X167995Y131077D01*
X167937Y131132D01*
X167929Y131139D01*
X167907Y131154D01*
X167871Y131172D01*
X167824Y131197D01*
X167762Y131219D01*
X167693Y131241D01*
X167609Y131256D01*
X167518Y131259D01*
X167489D01*
X167471Y131256D01*
X167445D01*
X167416Y131252D01*
X167347Y131241D01*
X167270Y131227D01*
X167190Y131201D01*
X167107Y131165D01*
X167030Y131117D01*
X167026D01*
X167023Y131110D01*
X166997Y131092D01*
X166965Y131063D01*
X166925Y131019D01*
X166877Y130964D01*
X166834Y130903D01*
X166794Y130826D01*
X166757Y130742D01*
Y130739D01*
X166753Y130731D01*
X166750Y130721D01*
X166746Y130702D01*
X166739Y130681D01*
X166732Y130655D01*
X166721Y130593D01*
X166706Y130520D01*
X166692Y130440D01*
X166684Y130353D01*
X166681Y130258D01*
Y130255D01*
Y130244D01*
Y130226D01*
Y130204D01*
X166684Y130178D01*
Y130145D01*
X166688Y130109D01*
X166692Y130069D01*
X166702Y129982D01*
X166721Y129887D01*
X166743Y129792D01*
X166772Y129698D01*
Y129694D01*
X166775Y129687D01*
X166783Y129676D01*
X166790Y129658D01*
X166812Y129614D01*
X166844Y129563D01*
X166885Y129505D01*
X166936Y129443D01*
X166994Y129388D01*
X167063Y129337D01*
X167067D01*
X167074Y129334D01*
X167085Y129326D01*
X167099Y129319D01*
X167118Y129312D01*
X167139Y129301D01*
X167190Y129279D01*
X167256Y129257D01*
X167329Y129239D01*
X167409Y129225D01*
X167492Y129221D01*
X167518D01*
X167540Y129225D01*
X167565D01*
X167591Y129228D01*
X167656Y129243D01*
X167733Y129261D01*
X167809Y129290D01*
X167889Y129330D01*
X167929Y129352D01*
X167966Y129381D01*
X167969Y129385D01*
X167973Y129388D01*
X167984Y129399D01*
X167998Y129410D01*
X168013Y129428D01*
X168031Y129450D01*
X168053Y129472D01*
X168071Y129501D01*
X168093Y129534D01*
X168119Y129570D01*
X168140Y129607D01*
X168162Y129650D01*
X168180Y129698D01*
X168199Y129749D01*
X168217Y129803D01*
X168231Y129861D01*
X168566Y129778D01*
Y129774D01*
X168563Y129760D01*
X168555Y129738D01*
X168544Y129709D01*
X168533Y129676D01*
X168519Y129636D01*
X168501Y129592D01*
X168479Y129545D01*
X168428Y129443D01*
X168362Y129341D01*
X168322Y129290D01*
X168282Y129239D01*
X168239Y129195D01*
X168188Y129152D01*
X168184Y129148D01*
X168177Y129141D01*
X168158Y129133D01*
X168140Y129119D01*
X168111Y129101D01*
X168082Y129083D01*
X168042Y129064D01*
X168002Y129046D01*
X167955Y129024D01*
X167904Y129006D01*
X167849Y128988D01*
X167791Y128970D01*
X167729Y128955D01*
X167664Y128948D01*
X167594Y128941D01*
X167522Y128937D01*
X167482D01*
X167452Y128941D01*
X167420D01*
X167380Y128944D01*
X167336Y128952D01*
X167285Y128959D01*
X167179Y128977D01*
X167070Y129006D01*
X166961Y129046D01*
X166910Y129072D01*
X166859Y129101D01*
X166855Y129104D01*
X166848Y129108D01*
X166834Y129119D01*
X166819Y129133D01*
X166797Y129148D01*
X166772Y129170D01*
X166743Y129195D01*
X166713Y129225D01*
X166684Y129257D01*
X166652Y129290D01*
X166586Y129374D01*
X166524Y129472D01*
X166470Y129581D01*
Y129585D01*
X166462Y129596D01*
X166459Y129614D01*
X166448Y129636D01*
X166440Y129665D01*
X166429Y129701D01*
X166415Y129741D01*
X166404Y129785D01*
X166393Y129832D01*
X166379Y129887D01*
X166360Y130000D01*
X166346Y130127D01*
X166339Y130258D01*
Y130262D01*
Y130277D01*
Y130298D01*
X166342Y130324D01*
Y130360D01*
X166346Y130397D01*
X166349Y130444D01*
X166357Y130491D01*
X166375Y130597D01*
X166400Y130713D01*
X166437Y130830D01*
X166488Y130943D01*
X166491Y130946D01*
X166495Y130957D01*
X166502Y130972D01*
X166517Y130990D01*
X166531Y131015D01*
X166550Y131044D01*
X166597Y131110D01*
X166659Y131183D01*
X166732Y131256D01*
X166815Y131328D01*
X166914Y131390D01*
X166917Y131394D01*
X166928Y131398D01*
X166943Y131405D01*
X166961Y131416D01*
X166990Y131427D01*
X167019Y131438D01*
X167056Y131452D01*
X167096Y131467D01*
X167139Y131481D01*
X167187Y131496D01*
X167289Y131518D01*
X167405Y131536D01*
X167525Y131543D01*
X167562D01*
X167587Y131540D01*
D02*
G37*
G36*
X169746Y131507D02*
X169775Y131503D01*
X169811Y131500D01*
X169851Y131492D01*
X169891Y131485D01*
X169986Y131459D01*
X170080Y131423D01*
X170128Y131401D01*
X170175Y131376D01*
X170219Y131343D01*
X170259Y131307D01*
X170262Y131303D01*
X170270Y131299D01*
X170277Y131285D01*
X170292Y131270D01*
X170310Y131252D01*
X170328Y131227D01*
X170346Y131201D01*
X170368Y131168D01*
X170404Y131099D01*
X170441Y131012D01*
X170455Y130968D01*
X170463Y130917D01*
X170470Y130866D01*
X170474Y130812D01*
Y130804D01*
Y130786D01*
X170470Y130757D01*
X170466Y130717D01*
X170459Y130673D01*
X170445Y130622D01*
X170430Y130568D01*
X170408Y130513D01*
X170404Y130506D01*
X170397Y130488D01*
X170383Y130458D01*
X170361Y130418D01*
X170332Y130375D01*
X170295Y130320D01*
X170252Y130266D01*
X170201Y130204D01*
X170193Y130196D01*
X170175Y130175D01*
X170157Y130156D01*
X170139Y130138D01*
X170117Y130116D01*
X170088Y130087D01*
X170059Y130058D01*
X170022Y130025D01*
X169986Y129989D01*
X169942Y129949D01*
X169895Y129909D01*
X169844Y129861D01*
X169786Y129814D01*
X169727Y129763D01*
X169724Y129760D01*
X169717Y129752D01*
X169702Y129741D01*
X169684Y129727D01*
X169662Y129705D01*
X169636Y129683D01*
X169578Y129636D01*
X169516Y129581D01*
X169458Y129527D01*
X169407Y129479D01*
X169385Y129461D01*
X169367Y129443D01*
X169363Y129439D01*
X169352Y129428D01*
X169338Y129414D01*
X169320Y129392D01*
X169301Y129367D01*
X169280Y129341D01*
X169236Y129279D01*
X170477D01*
Y128981D01*
X168806D01*
Y128984D01*
Y128999D01*
Y129021D01*
X168810Y129050D01*
X168814Y129083D01*
X168821Y129119D01*
X168828Y129155D01*
X168843Y129195D01*
Y129199D01*
X168846Y129203D01*
X168854Y129225D01*
X168868Y129257D01*
X168890Y129301D01*
X168919Y129352D01*
X168956Y129410D01*
X168996Y129468D01*
X169047Y129530D01*
Y129534D01*
X169054Y129538D01*
X169072Y129559D01*
X169105Y129592D01*
X169152Y129639D01*
X169207Y129694D01*
X169276Y129760D01*
X169360Y129832D01*
X169451Y129909D01*
X169454Y129912D01*
X169469Y129923D01*
X169491Y129942D01*
X169516Y129963D01*
X169549Y129993D01*
X169589Y130025D01*
X169629Y130062D01*
X169676Y130102D01*
X169767Y130189D01*
X169858Y130277D01*
X169902Y130320D01*
X169942Y130364D01*
X169978Y130404D01*
X170008Y130444D01*
Y130448D01*
X170015Y130451D01*
X170022Y130462D01*
X170029Y130477D01*
X170055Y130517D01*
X170084Y130564D01*
X170110Y130622D01*
X170135Y130684D01*
X170150Y130753D01*
X170157Y130819D01*
Y130823D01*
Y130826D01*
X170153Y130848D01*
X170150Y130884D01*
X170139Y130924D01*
X170124Y130975D01*
X170099Y131026D01*
X170066Y131077D01*
X170022Y131128D01*
X170015Y131135D01*
X169997Y131150D01*
X169971Y131168D01*
X169931Y131194D01*
X169880Y131216D01*
X169822Y131237D01*
X169753Y131252D01*
X169676Y131256D01*
X169655D01*
X169640Y131252D01*
X169596Y131248D01*
X169545Y131237D01*
X169491Y131223D01*
X169429Y131197D01*
X169371Y131165D01*
X169316Y131121D01*
X169309Y131114D01*
X169294Y131096D01*
X169272Y131066D01*
X169251Y131023D01*
X169225Y130972D01*
X169203Y130906D01*
X169189Y130833D01*
X169181Y130750D01*
X168865Y130782D01*
Y130786D01*
X168868Y130797D01*
Y130815D01*
X168872Y130841D01*
X168879Y130870D01*
X168886Y130903D01*
X168897Y130943D01*
X168908Y130983D01*
X168938Y131070D01*
X168981Y131157D01*
X169007Y131201D01*
X169039Y131245D01*
X169072Y131285D01*
X169109Y131321D01*
X169112Y131325D01*
X169120Y131328D01*
X169130Y131339D01*
X169149Y131350D01*
X169170Y131365D01*
X169196Y131379D01*
X169225Y131398D01*
X169261Y131416D01*
X169301Y131434D01*
X169345Y131452D01*
X169393Y131467D01*
X169444Y131481D01*
X169498Y131492D01*
X169556Y131503D01*
X169618Y131507D01*
X169684Y131510D01*
X169720D01*
X169746Y131507D01*
D02*
G37*
G36*
X237469Y199453D02*
X237502Y199449D01*
X237542Y199446D01*
X237582Y199442D01*
X237629Y199431D01*
X237727Y199409D01*
X237837Y199376D01*
X237891Y199355D01*
X237942Y199329D01*
X237993Y199296D01*
X238044Y199264D01*
X238048Y199260D01*
X238055Y199256D01*
X238070Y199246D01*
X238088Y199227D01*
X238106Y199209D01*
X238131Y199184D01*
X238157Y199154D01*
X238186Y199125D01*
X238215Y199089D01*
X238244Y199045D01*
X238277Y199002D01*
X238306Y198954D01*
X238332Y198900D01*
X238361Y198845D01*
X238383Y198787D01*
X238404Y198721D01*
X238077Y198645D01*
Y198649D01*
X238073Y198656D01*
X238066Y198670D01*
X238059Y198688D01*
X238051Y198710D01*
X238040Y198740D01*
X238011Y198798D01*
X237975Y198863D01*
X237931Y198929D01*
X237877Y198991D01*
X237818Y199045D01*
X237811Y199053D01*
X237789Y199067D01*
X237753Y199085D01*
X237705Y199111D01*
X237644Y199133D01*
X237575Y199154D01*
X237491Y199169D01*
X237400Y199173D01*
X237371D01*
X237352Y199169D01*
X237327D01*
X237298Y199165D01*
X237229Y199154D01*
X237152Y199140D01*
X237072Y199114D01*
X236988Y199078D01*
X236912Y199031D01*
X236908D01*
X236905Y199023D01*
X236879Y199005D01*
X236846Y198976D01*
X236807Y198932D01*
X236759Y198878D01*
X236716Y198816D01*
X236675Y198740D01*
X236639Y198656D01*
Y198652D01*
X236635Y198645D01*
X236632Y198634D01*
X236628Y198616D01*
X236621Y198594D01*
X236613Y198568D01*
X236603Y198506D01*
X236588Y198434D01*
X236574Y198354D01*
X236566Y198266D01*
X236563Y198172D01*
Y198168D01*
Y198157D01*
Y198139D01*
Y198117D01*
X236566Y198092D01*
Y198059D01*
X236570Y198022D01*
X236574Y197982D01*
X236584Y197895D01*
X236603Y197800D01*
X236625Y197706D01*
X236654Y197611D01*
Y197608D01*
X236657Y197600D01*
X236665Y197589D01*
X236672Y197571D01*
X236694Y197527D01*
X236726Y197476D01*
X236766Y197418D01*
X236817Y197356D01*
X236876Y197302D01*
X236945Y197251D01*
X236948D01*
X236956Y197247D01*
X236967Y197240D01*
X236981Y197232D01*
X236999Y197225D01*
X237021Y197214D01*
X237072Y197193D01*
X237138Y197171D01*
X237210Y197152D01*
X237291Y197138D01*
X237374Y197134D01*
X237400D01*
X237422Y197138D01*
X237447D01*
X237473Y197142D01*
X237538Y197156D01*
X237614Y197174D01*
X237691Y197203D01*
X237771Y197243D01*
X237811Y197265D01*
X237847Y197294D01*
X237851Y197298D01*
X237855Y197302D01*
X237866Y197313D01*
X237880Y197324D01*
X237895Y197342D01*
X237913Y197364D01*
X237935Y197385D01*
X237953Y197415D01*
X237975Y197447D01*
X238000Y197484D01*
X238022Y197520D01*
X238044Y197564D01*
X238062Y197611D01*
X238081Y197662D01*
X238099Y197717D01*
X238113Y197775D01*
X238448Y197691D01*
Y197687D01*
X238444Y197673D01*
X238437Y197651D01*
X238426Y197622D01*
X238415Y197589D01*
X238401Y197549D01*
X238383Y197505D01*
X238361Y197458D01*
X238310Y197356D01*
X238244Y197254D01*
X238204Y197203D01*
X238164Y197152D01*
X238121Y197109D01*
X238070Y197065D01*
X238066Y197062D01*
X238059Y197054D01*
X238040Y197047D01*
X238022Y197032D01*
X237993Y197014D01*
X237964Y196996D01*
X237924Y196978D01*
X237884Y196959D01*
X237837Y196938D01*
X237786Y196920D01*
X237731Y196901D01*
X237673Y196883D01*
X237611Y196869D01*
X237545Y196861D01*
X237476Y196854D01*
X237403Y196850D01*
X237363D01*
X237334Y196854D01*
X237301D01*
X237262Y196858D01*
X237218Y196865D01*
X237167Y196872D01*
X237061Y196890D01*
X236952Y196920D01*
X236843Y196959D01*
X236792Y196985D01*
X236741Y197014D01*
X236737Y197018D01*
X236730Y197021D01*
X236716Y197032D01*
X236701Y197047D01*
X236679Y197062D01*
X236654Y197083D01*
X236625Y197109D01*
X236595Y197138D01*
X236566Y197171D01*
X236533Y197203D01*
X236468Y197287D01*
X236406Y197385D01*
X236351Y197495D01*
Y197498D01*
X236344Y197509D01*
X236340Y197527D01*
X236330Y197549D01*
X236322Y197578D01*
X236311Y197615D01*
X236297Y197655D01*
X236286Y197698D01*
X236275Y197746D01*
X236261Y197800D01*
X236242Y197913D01*
X236228Y198041D01*
X236220Y198172D01*
Y198175D01*
Y198190D01*
Y198212D01*
X236224Y198237D01*
Y198274D01*
X236228Y198310D01*
X236231Y198357D01*
X236239Y198405D01*
X236257Y198510D01*
X236282Y198627D01*
X236319Y198743D01*
X236370Y198856D01*
X236373Y198860D01*
X236377Y198871D01*
X236384Y198885D01*
X236399Y198903D01*
X236413Y198929D01*
X236432Y198958D01*
X236479Y199023D01*
X236541Y199096D01*
X236613Y199169D01*
X236697Y199242D01*
X236795Y199304D01*
X236799Y199307D01*
X236810Y199311D01*
X236825Y199318D01*
X236843Y199329D01*
X236872Y199340D01*
X236901Y199351D01*
X236937Y199366D01*
X236978Y199380D01*
X237021Y199395D01*
X237069Y199409D01*
X237171Y199431D01*
X237287Y199449D01*
X237407Y199457D01*
X237443D01*
X237469Y199453D01*
D02*
G37*
G36*
X239897Y196894D02*
X239587D01*
Y198863D01*
X239584Y198860D01*
X239566Y198845D01*
X239544Y198823D01*
X239507Y198798D01*
X239467Y198765D01*
X239416Y198729D01*
X239358Y198688D01*
X239293Y198649D01*
X239289D01*
X239285Y198645D01*
X239264Y198630D01*
X239227Y198612D01*
X239183Y198590D01*
X239132Y198565D01*
X239078Y198539D01*
X239023Y198514D01*
X238969Y198492D01*
Y198791D01*
X238972D01*
X238980Y198798D01*
X238994Y198801D01*
X239012Y198812D01*
X239034Y198823D01*
X239060Y198838D01*
X239122Y198874D01*
X239194Y198914D01*
X239267Y198965D01*
X239344Y199023D01*
X239420Y199085D01*
X239424Y199089D01*
X239427Y199093D01*
X239438Y199103D01*
X239453Y199114D01*
X239486Y199151D01*
X239529Y199195D01*
X239573Y199246D01*
X239620Y199304D01*
X239660Y199362D01*
X239697Y199424D01*
X239897D01*
Y196894D01*
D02*
G37*
%LPC*%
G36*
X136709Y168994D02*
X136706D01*
X136702D01*
X136680Y168990D01*
X136647Y168986D01*
X136603Y168979D01*
X136560Y168961D01*
X136509Y168939D01*
X136462Y168906D01*
X136414Y168863D01*
X136411Y168855D01*
X136396Y168837D01*
X136378Y168808D01*
X136356Y168761D01*
X136334Y168706D01*
X136316Y168633D01*
X136301Y168550D01*
X136298Y168451D01*
Y167658D01*
X137131D01*
Y168408D01*
X137128Y168451D01*
X137124Y168502D01*
X137120Y168560D01*
X137113Y168619D01*
X137102Y168677D01*
X137088Y168728D01*
X137084Y168735D01*
X137077Y168750D01*
X137066Y168772D01*
X137051Y168801D01*
X137029Y168833D01*
X137004Y168866D01*
X136971Y168899D01*
X136935Y168924D01*
X136931Y168928D01*
X136917Y168935D01*
X136895Y168946D01*
X136866Y168961D01*
X136833Y168972D01*
X136796Y168983D01*
X136753Y168990D01*
X136709Y168994D01*
D02*
G37*
G36*
X185922Y168994D02*
X185918D01*
X185914D01*
X185893Y168990D01*
X185860Y168986D01*
X185816Y168979D01*
X185773Y168961D01*
X185722Y168939D01*
X185674Y168906D01*
X185627Y168863D01*
X185623Y168855D01*
X185609Y168837D01*
X185591Y168808D01*
X185569Y168761D01*
X185547Y168706D01*
X185529Y168633D01*
X185514Y168550D01*
X185510Y168451D01*
Y167658D01*
X186344D01*
Y168407D01*
X186340Y168451D01*
X186337Y168502D01*
X186333Y168560D01*
X186326Y168619D01*
X186315Y168677D01*
X186300Y168728D01*
X186297Y168735D01*
X186289Y168750D01*
X186278Y168772D01*
X186264Y168801D01*
X186242Y168833D01*
X186216Y168866D01*
X186184Y168899D01*
X186147Y168924D01*
X186144Y168928D01*
X186129Y168935D01*
X186107Y168946D01*
X186078Y168961D01*
X186046Y168972D01*
X186009Y168983D01*
X185965Y168990D01*
X185922Y168994D01*
D02*
G37*
G36*
X185950Y266103D02*
X185368D01*
Y264181D01*
X185965D01*
X185990Y264184D01*
X186045Y264188D01*
X186107Y264192D01*
X186172Y264199D01*
X186238Y264210D01*
X186292Y264224D01*
X186300Y264228D01*
X186318Y264232D01*
X186343Y264243D01*
X186376Y264257D01*
X186412Y264279D01*
X186449Y264301D01*
X186485Y264326D01*
X186522Y264355D01*
X186525Y264363D01*
X186540Y264377D01*
X186562Y264403D01*
X186587Y264439D01*
X186616Y264487D01*
X186649Y264541D01*
X186678Y264603D01*
X186704Y264672D01*
Y264676D01*
X186707Y264683D01*
X186711Y264694D01*
X186715Y264708D01*
X186718Y264727D01*
X186725Y264752D01*
X186733Y264778D01*
X186740Y264807D01*
X186751Y264880D01*
X186762Y264963D01*
X186769Y265058D01*
X186773Y265160D01*
Y265163D01*
Y265178D01*
Y265196D01*
X186769Y265225D01*
Y265258D01*
X186766Y265295D01*
X186762Y265338D01*
X186758Y265382D01*
X186740Y265480D01*
X186718Y265582D01*
X186685Y265677D01*
X186664Y265724D01*
X186642Y265764D01*
Y265768D01*
X186635Y265775D01*
X186627Y265786D01*
X186620Y265800D01*
X186591Y265837D01*
X186554Y265881D01*
X186507Y265928D01*
X186452Y265975D01*
X186391Y266015D01*
X186325Y266048D01*
X186318Y266052D01*
X186300Y266055D01*
X186267Y266066D01*
X186220Y266077D01*
X186161Y266084D01*
X186089Y266095D01*
X186045Y266099D01*
X185997D01*
X185950Y266103D01*
D02*
G37*
G36*
X170127Y266121D02*
X169334D01*
Y265287D01*
X170083D01*
X170127Y265291D01*
X170178Y265295D01*
X170236Y265298D01*
X170294Y265305D01*
X170353Y265316D01*
X170404Y265331D01*
X170411Y265335D01*
X170426Y265342D01*
X170447Y265353D01*
X170476Y265367D01*
X170509Y265389D01*
X170542Y265415D01*
X170575Y265447D01*
X170600Y265484D01*
X170604Y265487D01*
X170611Y265502D01*
X170622Y265524D01*
X170637Y265553D01*
X170648Y265586D01*
X170659Y265622D01*
X170666Y265666D01*
X170669Y265709D01*
Y265713D01*
Y265717D01*
X170666Y265739D01*
X170662Y265771D01*
X170655Y265815D01*
X170637Y265859D01*
X170615Y265910D01*
X170582Y265957D01*
X170538Y266004D01*
X170531Y266008D01*
X170513Y266022D01*
X170484Y266041D01*
X170437Y266063D01*
X170382Y266084D01*
X170309Y266103D01*
X170225Y266117D01*
X170127Y266121D01*
D02*
G37*
G36*
X159291Y266103D02*
X158570D01*
Y265203D01*
X159247D01*
X159273Y265207D01*
X159298D01*
X159327Y265211D01*
X159396Y265218D01*
X159473Y265233D01*
X159549Y265254D01*
X159618Y265284D01*
X159651Y265302D01*
X159677Y265324D01*
X159684Y265331D01*
X159698Y265346D01*
X159720Y265375D01*
X159746Y265411D01*
X159771Y265458D01*
X159793Y265517D01*
X159808Y265582D01*
X159815Y265658D01*
Y265662D01*
Y265666D01*
Y265684D01*
X159811Y265717D01*
X159804Y265753D01*
X159797Y265793D01*
X159782Y265841D01*
X159760Y265884D01*
X159735Y265928D01*
X159731Y265932D01*
X159720Y265946D01*
X159702Y265964D01*
X159680Y265990D01*
X159648Y266015D01*
X159611Y266037D01*
X159571Y266059D01*
X159524Y266077D01*
X159520D01*
X159506Y266081D01*
X159484Y266084D01*
X159455Y266092D01*
X159411Y266095D01*
X159356Y266099D01*
X159291Y266103D01*
D02*
G37*
G36*
X175376Y266157D02*
X175343D01*
X175318Y266154D01*
X175285Y266150D01*
X175252Y266143D01*
X175212Y266135D01*
X175169Y266128D01*
X175074Y266099D01*
X175023Y266077D01*
X174972Y266055D01*
X174917Y266026D01*
X174866Y265993D01*
X174815Y265957D01*
X174768Y265913D01*
X174765Y265910D01*
X174757Y265902D01*
X174746Y265888D01*
X174728Y265866D01*
X174710Y265841D01*
X174688Y265808D01*
X174666Y265768D01*
X174641Y265720D01*
X174619Y265669D01*
X174593Y265608D01*
X174572Y265542D01*
X174553Y265469D01*
X174535Y265389D01*
X174524Y265298D01*
X174517Y265203D01*
X174513Y265102D01*
Y265098D01*
Y265083D01*
Y265058D01*
X174517Y265025D01*
X174521Y264989D01*
X174528Y264945D01*
X174535Y264894D01*
X174542Y264843D01*
X174572Y264727D01*
X174593Y264668D01*
X174615Y264607D01*
X174644Y264548D01*
X174677Y264490D01*
X174714Y264436D01*
X174757Y264385D01*
X174761Y264381D01*
X174768Y264374D01*
X174783Y264359D01*
X174801Y264345D01*
X174826Y264323D01*
X174855Y264301D01*
X174888Y264279D01*
X174925Y264253D01*
X174968Y264228D01*
X175016Y264206D01*
X175067Y264184D01*
X175121Y264162D01*
X175179Y264148D01*
X175238Y264133D01*
X175303Y264126D01*
X175372Y264122D01*
X175391D01*
X175409Y264126D01*
X175434D01*
X175467Y264130D01*
X175503Y264137D01*
X175547Y264144D01*
X175591Y264155D01*
X175642Y264170D01*
X175689Y264188D01*
X175744Y264206D01*
X175795Y264232D01*
X175846Y264264D01*
X175897Y264297D01*
X175947Y264337D01*
X175995Y264385D01*
X175998Y264388D01*
X176006Y264395D01*
X176017Y264414D01*
X176035Y264436D01*
X176053Y264461D01*
X176071Y264494D01*
X176093Y264534D01*
X176119Y264577D01*
X176140Y264628D01*
X176162Y264687D01*
X176180Y264749D01*
X176202Y264814D01*
X176217Y264887D01*
X176228Y264967D01*
X176235Y265051D01*
X176239Y265138D01*
Y265142D01*
Y265153D01*
Y265167D01*
Y265189D01*
X176235Y265214D01*
Y265247D01*
X176231Y265280D01*
X176224Y265320D01*
X176213Y265404D01*
X176195Y265491D01*
X176170Y265586D01*
X176133Y265673D01*
Y265677D01*
X176129Y265684D01*
X176122Y265695D01*
X176115Y265709D01*
X176089Y265753D01*
X176057Y265804D01*
X176013Y265862D01*
X175958Y265921D01*
X175897Y265979D01*
X175827Y266030D01*
X175824D01*
X175820Y266037D01*
X175809Y266041D01*
X175791Y266052D01*
X175773Y266059D01*
X175751Y266070D01*
X175696Y266095D01*
X175631Y266117D01*
X175554Y266139D01*
X175467Y266154D01*
X175376Y266157D01*
D02*
G37*
G36*
X172639D02*
X172606D01*
X172580Y266154D01*
X172548Y266150D01*
X172515Y266143D01*
X172475Y266135D01*
X172431Y266128D01*
X172337Y266099D01*
X172286Y266077D01*
X172235Y266055D01*
X172180Y266026D01*
X172129Y265993D01*
X172078Y265957D01*
X172031Y265913D01*
X172027Y265910D01*
X172020Y265902D01*
X172009Y265888D01*
X171991Y265866D01*
X171973Y265841D01*
X171951Y265808D01*
X171929Y265768D01*
X171903Y265720D01*
X171882Y265669D01*
X171856Y265608D01*
X171834Y265542D01*
X171816Y265469D01*
X171798Y265389D01*
X171787Y265298D01*
X171780Y265203D01*
X171776Y265102D01*
Y265098D01*
Y265083D01*
Y265058D01*
X171780Y265025D01*
X171783Y264989D01*
X171791Y264945D01*
X171798Y264894D01*
X171805Y264843D01*
X171834Y264727D01*
X171856Y264668D01*
X171878Y264607D01*
X171907Y264548D01*
X171940Y264490D01*
X171976Y264436D01*
X172020Y264385D01*
X172023Y264381D01*
X172031Y264374D01*
X172045Y264359D01*
X172064Y264345D01*
X172089Y264323D01*
X172118Y264301D01*
X172151Y264279D01*
X172187Y264253D01*
X172231Y264228D01*
X172278Y264206D01*
X172329Y264184D01*
X172384Y264162D01*
X172442Y264148D01*
X172500Y264133D01*
X172566Y264126D01*
X172635Y264122D01*
X172653D01*
X172671Y264126D01*
X172697D01*
X172730Y264130D01*
X172766Y264137D01*
X172810Y264144D01*
X172853Y264155D01*
X172904Y264170D01*
X172952Y264188D01*
X173006Y264206D01*
X173057Y264232D01*
X173108Y264264D01*
X173159Y264297D01*
X173210Y264337D01*
X173258Y264385D01*
X173261Y264388D01*
X173268Y264395D01*
X173279Y264414D01*
X173298Y264436D01*
X173316Y264461D01*
X173334Y264494D01*
X173356Y264534D01*
X173381Y264577D01*
X173403Y264628D01*
X173425Y264687D01*
X173443Y264749D01*
X173465Y264814D01*
X173479Y264887D01*
X173491Y264967D01*
X173498Y265051D01*
X173501Y265138D01*
Y265142D01*
Y265153D01*
Y265167D01*
Y265189D01*
X173498Y265214D01*
Y265247D01*
X173494Y265280D01*
X173487Y265320D01*
X173476Y265404D01*
X173458Y265491D01*
X173432Y265586D01*
X173396Y265673D01*
Y265677D01*
X173392Y265684D01*
X173385Y265695D01*
X173378Y265709D01*
X173352Y265753D01*
X173319Y265804D01*
X173276Y265862D01*
X173221Y265921D01*
X173159Y265979D01*
X173090Y266030D01*
X173086D01*
X173083Y266037D01*
X173072Y266041D01*
X173054Y266052D01*
X173035Y266059D01*
X173014Y266070D01*
X172959Y266095D01*
X172894Y266117D01*
X172817Y266139D01*
X172730Y266154D01*
X172639Y266157D01*
D02*
G37*
%LPD*%
D13*
X132480Y144783D02*
X143110D01*
Y189862D01*
X132480D02*
X143110D01*
X132480Y144783D02*
Y189862D01*
X181693Y144783D02*
Y189862D01*
X192323D01*
Y144783D02*
Y189862D01*
X181693Y144783D02*
X192323D01*
X115748Y212165D02*
Y315512D01*
Y212165D02*
X191339D01*
Y315512D01*
X115748D02*
X191339D01*
X158661Y123622D02*
Y134252D01*
Y123622D02*
X174016D01*
Y134252D01*
X158661D02*
X174016D01*
M02*
