G04*
G04 #@! TF.GenerationSoftware,Altium Limited,Altium Designer,22.4.2 (48)*
G04*
G04 Layer_Physical_Order=1*
G04 Layer_Color=255*
%FSLAX25Y25*%
%MOIN*%
G70*
G04*
G04 #@! TF.SameCoordinates,D1C75A00-648E-4898-854E-167750E82D76*
G04*
G04*
G04 #@! TF.FilePolarity,Positive*
G04*
G01*
G75*
%ADD15R,0.05512X0.07874*%
%ADD16R,0.05236X0.05236*%
%ADD17R,0.03543X0.07874*%
%ADD18R,0.07874X0.03543*%
%ADD24C,0.04921*%
%ADD25R,0.04921X0.04921*%
%ADD26C,0.04724*%
%ADD27R,0.04724X0.04724*%
%ADD28C,0.05118*%
%ADD29R,0.05118X0.05118*%
%ADD34C,0.02362*%
%ADD35R,0.08465X0.08465*%
%ADD36C,0.08465*%
%ADD37C,0.05906*%
%ADD38R,0.05906X0.05906*%
%ADD39R,0.06102X0.06102*%
%ADD40C,0.06102*%
%ADD41C,0.06000*%
%ADD42C,0.05000*%
D15*
X66929Y299213D02*
D03*
Y271654D02*
D03*
X51181Y299213D02*
D03*
Y271654D02*
D03*
X61024Y212598D02*
D03*
Y240158D02*
D03*
X76772Y212598D02*
D03*
Y240158D02*
D03*
D16*
X156831Y248681D02*
D03*
X149606D02*
D03*
X142382D02*
D03*
X156831Y255906D02*
D03*
X149606D02*
D03*
X142382D02*
D03*
X156831Y263130D02*
D03*
X149606D02*
D03*
X142382D02*
D03*
D17*
X176043Y216496D02*
D03*
X171043D02*
D03*
X166043D02*
D03*
X161043D02*
D03*
X156043D02*
D03*
X151043D02*
D03*
X146043D02*
D03*
X141043D02*
D03*
X136043D02*
D03*
X131043D02*
D03*
D18*
X187008Y285433D02*
D03*
Y280433D02*
D03*
Y275433D02*
D03*
Y270433D02*
D03*
Y265433D02*
D03*
Y260433D02*
D03*
Y255433D02*
D03*
Y250433D02*
D03*
Y245433D02*
D03*
Y240433D02*
D03*
Y235433D02*
D03*
Y230433D02*
D03*
Y225433D02*
D03*
Y220433D02*
D03*
X120079D02*
D03*
Y225433D02*
D03*
Y230433D02*
D03*
Y235433D02*
D03*
Y240433D02*
D03*
Y245433D02*
D03*
Y250433D02*
D03*
Y255433D02*
D03*
Y260433D02*
D03*
Y265433D02*
D03*
Y270433D02*
D03*
Y275433D02*
D03*
Y280433D02*
D03*
Y285433D02*
D03*
D24*
X137795Y187008D02*
D03*
X187008D02*
D03*
D25*
X137795Y147638D02*
D03*
X187008D02*
D03*
D26*
X171260Y128937D02*
D03*
D27*
X161417D02*
D03*
D28*
X246063Y196850D02*
D03*
D29*
X226378D02*
D03*
D34*
X104915Y108189D02*
X107362D01*
X116142Y99410D01*
X230709Y120157D02*
X237575Y127024D01*
X226378Y196850D02*
X237575Y185654D01*
Y127024D02*
Y185654D01*
X217618Y245374D02*
X237598D01*
X202559Y260433D02*
X217618Y245374D01*
X187008Y260433D02*
X202559D01*
X66929Y287375D02*
X78714Y275590D01*
X66929Y287375D02*
Y299213D01*
X78714Y275590D02*
X78740D01*
X127075Y237311D02*
X134843Y245079D01*
X131043Y232421D02*
X142382Y243760D01*
Y248681D01*
X166095Y244175D02*
Y262953D01*
X99809Y285433D02*
X120079D01*
X98425Y236221D02*
Y284049D01*
X108268Y275590D02*
X113110Y280433D01*
X98425Y284049D02*
X99809Y285433D01*
X113110Y280433D02*
X120079D01*
X108268Y177165D02*
Y275590D01*
X61024Y27959D02*
Y56608D01*
X77741Y40025D02*
X80118Y42401D01*
X61024Y27959D02*
X62407Y26575D01*
X104915D01*
X61024Y56608D02*
X62407Y57992D01*
X80118D01*
X90551Y48897D02*
Y91215D01*
X84055Y42401D02*
X90551Y48897D01*
X106299Y27959D02*
Y106805D01*
X104915Y26575D02*
X106299Y27959D01*
X187008Y275433D02*
X236215D01*
X237598Y274049D01*
Y260965D02*
Y274049D01*
X179496Y200166D02*
Y262173D01*
X51181Y214567D02*
Y271654D01*
Y214567D02*
X53150Y212598D01*
X61024D01*
X126181Y261024D02*
X139764Y274606D01*
X139764Y268701D02*
X142346D01*
X134843Y263779D02*
X139764Y268701D01*
X142346D02*
X146475Y272829D01*
X156831Y263130D02*
Y284075D01*
X155473Y285433D02*
X156831Y284075D01*
Y263130D02*
X179134Y285433D01*
X146475Y272829D02*
Y278075D01*
X179134Y285433D02*
X187008D01*
X143575Y280975D02*
X146475Y278075D01*
X186417Y264842D02*
X187008Y265433D01*
X179496Y262173D02*
X182165Y264842D01*
X186417D01*
X166095Y262953D02*
X173575Y270433D01*
X187008D01*
X156831Y255906D02*
Y263130D01*
X149606D02*
X156831D01*
X149606Y248681D02*
Y255906D01*
Y263130D01*
X156831Y248681D02*
Y255906D01*
X142382D02*
X149606D01*
X142382Y263130D02*
X149606D01*
X142382Y248681D02*
X149606D01*
X138317Y280975D02*
X143575D01*
X132775Y275433D02*
X138317Y280975D01*
X120079Y275433D02*
X132775D01*
X120079Y285433D02*
X155473D01*
X120079Y260433D02*
X120669Y261024D01*
X126181D01*
X134843Y245079D02*
Y263779D01*
X120394Y245748D02*
X127638D01*
X120079Y245433D02*
X120394Y245748D01*
X127638D02*
X127953Y246063D01*
X80118Y92598D02*
X89167D01*
X104915Y108189D02*
X106299Y106805D01*
X80118Y108189D02*
X104915D01*
X89167Y92598D02*
X90551Y91215D01*
X131043Y210492D02*
X171260Y170276D01*
X61024Y195197D02*
Y212598D01*
X62598Y226378D02*
X88583D01*
X61024Y212598D02*
X61215Y212789D01*
Y224994D01*
X88583Y226378D02*
X98425Y236221D01*
X61024Y195197D02*
X78740Y177480D01*
X61215Y224994D02*
X62598Y226378D01*
X76772Y197835D02*
Y212598D01*
X108268Y177165D02*
X137795Y147638D01*
X127075Y197728D02*
X137795Y187008D01*
X137795Y147638D02*
Y147638D01*
X139075Y146358D02*
X139075D01*
X137795Y147638D02*
X139075Y146358D01*
X76772Y197835D02*
X156496Y118110D01*
X139075Y146358D02*
X156496Y128937D01*
X161417D01*
X156496Y118110D02*
X185624D01*
X195467Y147638D02*
X196850Y149022D01*
X187008Y206142D02*
X196850Y196299D01*
X187008Y147638D02*
X195467D01*
X196850Y149022D02*
Y196299D01*
X171260Y128937D02*
Y170276D01*
X170276Y190945D02*
X179496Y200166D01*
X131043Y210492D02*
Y216496D01*
Y232421D01*
X127075Y197728D02*
Y237311D01*
X187008Y206142D02*
Y220433D01*
X185624Y118110D02*
X187008Y119494D01*
Y147638D01*
D35*
X237598Y245374D02*
D03*
X237992Y292697D02*
D03*
X230709Y120157D02*
D03*
X80118Y42401D02*
D03*
X34843Y92598D02*
D03*
X80118Y92598D02*
D03*
D36*
X237598Y260965D02*
D03*
X237992Y308287D02*
D03*
X230709Y135748D02*
D03*
X80118Y57992D02*
D03*
X34843Y108189D02*
D03*
X80118Y108189D02*
D03*
D37*
X275590Y98425D02*
D03*
X276575Y25591D02*
D03*
X116142Y99410D02*
D03*
Y24606D02*
D03*
D38*
X275590Y88425D02*
D03*
X276575Y15590D02*
D03*
X116142Y89410D02*
D03*
Y14606D02*
D03*
D39*
X78740Y147480D02*
D03*
D40*
Y157480D02*
D03*
Y167480D02*
D03*
Y177480D02*
D03*
D41*
X9843Y325787D02*
D03*
X305118Y9843D02*
D03*
D42*
X170276Y190945D02*
D03*
X78740Y275590D02*
D03*
X139764Y274606D02*
D03*
X127953Y246063D02*
D03*
X166095Y244175D02*
D03*
M02*
